<svg width="216" height="108" viewBox="0 0 216 108" fill="none" xmlns="http://www.w3.org/2000/svg">
<g clip-path="url(#clip0_363_7392)">
<mask id="mask0_363_7392" style="mask-type:luminance" maskUnits="userSpaceOnUse" x="21" y="42" width="176" height="23">
<path d="M196.597 42.7885H21.3008V64.873H196.597V42.7885Z" fill="white"/>
</mask>
<g mask="url(#mask0_363_7392)">
<path fill-rule="evenodd" clip-rule="evenodd" d="M85.4411 59.3657C85.2711 59.6446 85.0317 59.8746 84.7462 60.0333C84.4608 60.192 84.139 60.274 83.8124 60.2712H78.6115C78.5934 60.2712 78.5757 60.2662 78.5603 60.2567C78.5449 60.2472 78.5325 60.2335 78.5245 60.2173C78.5148 60.2013 78.5096 60.1829 78.5096 60.1642C78.5096 60.1454 78.5148 60.127 78.5245 60.111L86.2375 48.1343C86.4929 47.7156 86.8525 47.3702 87.2811 47.1319C87.7098 46.8936 88.193 46.7706 88.6834 46.7748H96.8588C97.3492 46.7706 97.8324 46.8936 98.2611 47.1319C98.6897 47.3702 99.0493 47.7156 99.3047 48.1343L107.011 60.111C107.021 60.127 107.026 60.1454 107.026 60.1642C107.026 60.1829 107.021 60.2013 107.011 60.2173C107.003 60.2335 106.99 60.2472 106.975 60.2567C106.96 60.2662 106.942 60.2712 106.924 60.2712H101.733C101.406 60.2742 101.083 60.1924 100.797 60.0337C100.511 59.875 100.272 59.6448 100.101 59.3657L98.1149 56.2877C98.0937 56.2526 98.0637 56.2237 98.0278 56.2039C97.992 56.184 97.9516 56.1739 97.9106 56.1745H89.8787C89.8605 56.1746 89.8426 56.1694 89.8271 56.1596C89.8117 56.1499 89.7994 56.1358 89.7918 56.1193C89.7827 56.1033 89.7779 56.0852 89.7779 56.0668C89.7779 56.0484 89.7827 56.0304 89.7918 56.0144L91.034 54.082C91.0557 54.0474 91.0859 54.0188 91.1216 53.9991C91.1573 53.9793 91.1975 53.9688 91.2383 53.9688H96.4323C96.4504 53.9688 96.4681 53.9638 96.4835 53.9543C96.4989 53.9448 96.5113 53.9312 96.5193 53.915C96.5289 53.8992 96.534 53.881 96.534 53.8625C96.534 53.844 96.5289 53.8259 96.5193 53.8101L93.7035 49.4359C93.6185 49.2965 93.4988 49.1815 93.356 49.1021C93.2133 49.0228 93.0524 48.9818 92.8891 48.9832H92.6379C92.4746 48.9819 92.3138 49.023 92.1711 49.1023C92.0284 49.1816 91.9086 49.2966 91.8235 49.4359L85.4411 59.3657ZM76.911 53.8018V60.013C76.9117 60.0464 76.9059 60.0796 76.8938 60.1107C76.8817 60.1418 76.8636 60.1702 76.8405 60.1943C76.8174 60.2184 76.7898 60.2377 76.7593 60.2511C76.7288 60.2645 76.6959 60.2718 76.6625 60.2725H59.2061C49.1701 60.2725 49.3247 54.231 49.3247 53.5243C49.3247 52.8176 49.1701 46.7761 59.2061 46.7761H76.6639C76.6973 46.7769 76.7302 46.7841 76.7607 46.7976C76.7912 46.811 76.8188 46.8303 76.8419 46.8544C76.865 46.8785 76.8831 46.9069 76.8952 46.938C76.9073 46.9691 76.9131 47.0023 76.9124 47.0356V48.7555C76.9133 48.7888 76.9076 48.822 76.8957 48.8532C76.8838 48.8844 76.8658 48.9129 76.8429 48.9371C76.8199 48.9613 76.7924 48.9808 76.762 48.9944C76.7315 49.008 76.6986 49.0154 76.6653 49.0163H61.4325C56.8472 49.0163 55.9224 51.3725 55.9224 53.545C55.9224 55.7176 56.8458 58.0751 61.4325 58.0751H70.5161C70.5497 58.0744 70.5827 58.0671 70.6134 58.0536C70.6442 58.0401 70.6719 58.0207 70.6951 57.9964C70.7183 57.9722 70.7365 57.9437 70.7487 57.9124C70.7608 57.8811 70.7667 57.8478 70.766 57.8143V53.8114C70.7649 53.7439 70.7905 53.6788 70.8373 53.6301C70.8841 53.5815 70.9483 53.5534 71.0158 53.5519H76.6625C76.6959 53.5527 76.7288 53.5599 76.7593 53.5734C76.7898 53.5868 76.8174 53.6061 76.8405 53.6302C76.8636 53.6543 76.8817 53.6827 76.8938 53.7138C76.9059 53.7449 76.9117 53.7781 76.911 53.8114V53.8018ZM177.735 52.525H192.706C192.773 52.5268 192.837 52.5551 192.883 52.6037C192.93 52.6523 192.955 52.7172 192.954 52.7845V54.2766C192.955 54.3439 192.93 54.4088 192.883 54.4574C192.837 54.506 192.773 54.5343 192.706 54.5361H177.735C177.587 54.5318 177.447 54.4702 177.344 54.3643C177.241 54.2584 177.183 54.1165 177.183 53.9688V53.0992C177.18 53.0257 177.192 52.9523 177.218 52.8833C177.243 52.8144 177.282 52.7511 177.332 52.6973C177.383 52.6434 177.443 52.6 177.51 52.5695C177.577 52.539 177.649 52.522 177.723 52.5195H177.732L177.735 52.525ZM167.223 53.5299C167.223 52.8204 167.068 46.7817 177.103 46.7817H194.305C194.373 46.7831 194.437 46.8112 194.484 46.8598C194.531 46.9085 194.556 46.9737 194.555 47.0412V48.7555C194.556 48.823 194.531 48.8881 194.484 48.9368C194.437 48.9854 194.373 49.0135 194.305 49.015H179.338C174.766 49.015 173.834 51.3614 173.827 53.5257C173.821 55.69 174.765 58.0365 179.338 58.0365H194.307C194.374 58.0379 194.438 58.066 194.485 58.1147C194.532 58.1633 194.558 58.2285 194.557 58.296V60.0089C194.558 60.0764 194.532 60.1416 194.485 60.1902C194.438 60.2388 194.374 60.2669 194.307 60.2684H177.103C167.065 60.2684 167.221 54.2255 167.221 53.5202L167.223 53.5299ZM108.889 60.2781H114.542C114.609 60.2766 114.672 60.2489 114.719 60.2008C114.766 60.1528 114.792 60.0883 114.791 60.0213C114.834 56.4464 114.791 52.8439 114.791 49.2675C114.791 49.2342 114.797 49.201 114.809 49.1699C114.821 49.1388 114.839 49.1104 114.862 49.0863C114.885 49.0622 114.913 49.0429 114.943 49.0295C114.974 49.0161 115.007 49.0088 115.04 49.0081H124.126C128.713 49.0081 129.636 50.5788 129.636 52.0295C129.636 53.4802 128.713 55.0509 124.126 55.0509H117.404C117.337 55.0527 117.273 55.0812 117.226 55.13C117.179 55.1788 117.153 55.2442 117.154 55.3118V57.0372C117.153 57.1046 117.179 57.1698 117.226 57.2185C117.273 57.2671 117.337 57.2952 117.404 57.2966H126.346C136.382 57.2966 136.227 52.5857 136.227 52.0364C136.227 51.487 136.383 46.7761 126.346 46.7761H108.888C108.821 46.7779 108.757 46.8062 108.71 46.8548C108.664 46.9034 108.638 46.9684 108.64 47.0356V60.0186C108.638 60.0858 108.664 60.1508 108.71 60.1994C108.757 60.248 108.822 60.2762 108.889 60.2781ZM138.04 60.2781H143.689C143.756 60.2766 143.82 60.2489 143.866 60.2008C143.913 60.1528 143.939 60.0883 143.939 60.0213C143.982 56.4464 143.939 52.8439 143.939 49.2675C143.938 49.2001 143.963 49.1349 144.01 49.0862C144.057 49.0376 144.121 49.0095 144.189 49.0081H153.272C157.859 49.0081 158.782 50.5788 158.782 52.0295C158.782 53.4802 157.859 55.0509 153.272 55.0509H146.564C146.497 55.0527 146.432 55.0812 146.386 55.13C146.339 55.1788 146.313 55.2442 146.314 55.3118V57.0372C146.313 57.1046 146.339 57.1698 146.386 57.2185C146.432 57.2671 146.497 57.2952 146.564 57.2966H155.506C165.542 57.2966 165.387 52.5857 165.387 52.0364C165.387 51.487 165.543 46.7761 155.506 46.7761H138.052C137.984 46.7776 137.92 46.8057 137.873 46.8543C137.827 46.903 137.801 46.9681 137.802 47.0356V60.0186C137.801 60.0842 137.825 60.1478 137.87 60.1961C137.914 60.2445 137.974 60.2738 138.04 60.2781ZM28.3651 59.374C28.195 59.6531 27.9553 59.8832 27.6696 60.042C27.3839 60.2007 27.0618 60.2825 26.735 60.2794H21.5355C21.5174 60.2795 21.4997 60.2745 21.4843 60.265C21.4689 60.2555 21.4565 60.2418 21.4485 60.2256C21.4388 60.2096 21.4336 60.1912 21.4336 60.1725C21.4336 60.1537 21.4388 60.1353 21.4485 60.1193L29.1629 48.1412C29.4183 47.7225 29.7778 47.3771 30.2065 47.1388C30.6352 46.9005 31.1183 46.7775 31.6088 46.7817H39.7855C40.276 46.7775 40.7591 46.9005 41.1878 47.1388C41.6165 47.3771 41.9761 47.7225 42.2314 48.1412L49.9444 60.1179C49.9542 60.134 49.9593 60.1523 49.9593 60.1711C49.9593 60.1898 49.9542 60.2082 49.9444 60.2242C49.9364 60.2404 49.924 60.2541 49.9087 60.2636C49.8933 60.2731 49.8755 60.2781 49.8575 60.2781H44.6524C44.3254 60.2812 44.0031 60.1995 43.7171 60.0407C43.4311 59.882 43.1913 59.6518 43.0209 59.3726L41.0333 56.2946C41.012 56.2596 40.982 56.2308 40.9462 56.2109C40.9103 56.1911 40.87 56.1809 40.829 56.1814H32.8137C32.7955 56.1815 32.7776 56.1763 32.7622 56.1665C32.7467 56.1568 32.7345 56.1427 32.7268 56.1262C32.7177 56.1102 32.7129 56.0921 32.7129 56.0737C32.7129 56.0553 32.7177 56.0373 32.7268 56.0213L33.969 54.0889C33.9903 54.0539 34.0204 54.0251 34.0562 54.0052C34.092 53.9854 34.1324 53.9752 34.1733 53.9757H39.3701C39.3882 53.9757 39.4059 53.9707 39.4213 53.9612C39.4366 53.9517 39.449 53.9381 39.457 53.9219C39.4661 53.9059 39.4709 53.8878 39.4709 53.8694C39.4709 53.851 39.4661 53.833 39.457 53.817L36.6385 49.4456C36.5534 49.3062 36.4337 49.1913 36.291 49.112C36.1482 49.0326 35.9874 48.9916 35.8241 48.9929H35.5729C35.4096 48.9916 35.2488 49.0326 35.1061 49.112C34.9634 49.1913 34.8437 49.3062 34.7586 49.4456L28.3651 59.374Z" fill="white"/>
</g>
</g>
<defs>
<clipPath id="clip0_363_7392">
<rect width="215.324" height="107.662" fill="white" transform="translate(0.605469)"/>
</clipPath>
</defs>
</svg>
