<svg width="216" height="108" viewBox="0 0 216 108" fill="none" xmlns="http://www.w3.org/2000/svg">
<path d="M120.413 31.7463V44.9598L120.486 44.9929L120.864 44.5705C122.084 43.2108 123.712 42.2833 125.504 41.9267C127.296 41.5701 129.155 41.8037 130.802 42.5925C132.381 43.3985 133.617 44.7473 134.281 46.3911C134.86 47.7469 135.187 49.1968 135.247 50.6699C135.29 51.4815 135.31 52.2987 135.31 53.1117V65.693C135.17 65.7226 135.027 65.7424 134.884 65.7523H128.397C128.258 65.7433 128.119 65.7267 127.982 65.7026C127.982 65.5011 127.953 65.3327 127.953 65.1615V52.8205C127.965 51.9924 127.863 51.1667 127.65 50.3663C127.522 49.8875 127.309 49.4354 127.022 49.0315C126.588 48.4038 125.927 47.9696 125.179 47.8211C124.427 47.6532 123.643 47.6933 122.911 47.937C122.217 48.2054 121.613 48.6662 121.171 49.2653C120.728 49.8645 120.466 50.5772 120.414 51.3201V65.069C120.414 65.2623 120.401 65.4583 120.391 65.6874C120.255 65.7181 120.116 65.7384 119.977 65.7482H113.489C113.344 65.7391 113.198 65.7211 113.055 65.6943V32.2308C113.055 32.0706 113.069 31.9119 113.075 31.7587L120.413 31.7463Z" fill="white"/>
<path d="M27.6854 63.99C27.7608 63.8236 27.8253 63.6525 27.8787 63.4779C28.2803 61.885 28.6737 60.2894 29.0726 58.6966C29.1085 58.5586 29.1596 58.4205 29.2107 58.2508C29.3735 58.317 29.4991 58.3612 29.6164 58.4177C31.4264 59.2804 33.3633 59.8467 35.3529 60.0948C36.6265 60.2845 37.9224 60.2663 39.1901 60.041C39.9089 59.9065 40.59 59.6173 41.186 59.1935C41.542 58.9112 41.8319 58.5544 42.0351 58.148C42.2384 57.7416 42.3501 57.2956 42.3625 56.8414C42.3749 56.3872 42.2876 55.9358 42.1067 55.519C41.9259 55.1022 41.6559 54.73 41.3157 54.4288C40.5096 53.773 39.6019 53.2532 38.6283 52.8898C37.6083 52.4757 36.5689 52.1209 35.5613 51.7096C33.9934 51.0969 32.5331 50.2382 31.2355 49.1658C29.6715 47.9415 28.6052 46.1909 28.2348 44.2395C27.9543 42.845 28.0217 41.4028 28.4309 40.0405C28.8402 38.6781 29.5787 37.4376 30.5813 36.4285C31.984 35.0203 33.7423 34.0186 35.669 33.53C37.0746 33.138 38.526 32.9347 39.9851 32.9253C42.1613 32.8673 44.3336 33.1419 46.4269 33.7397C47.1437 33.9522 47.8429 34.2203 48.518 34.5417C48.0793 36.5317 47.5342 38.4969 46.8852 40.4286C46.7692 40.3817 46.6491 40.3416 46.5263 40.2905C44.992 39.597 43.3518 39.1673 41.6746 39.0193C40.6312 38.8957 39.5752 38.9283 38.5414 39.116C37.8336 39.2453 37.1669 39.5415 36.5965 39.98C36.3022 40.2073 36.0596 40.4947 35.8849 40.823C35.7101 41.1513 35.6072 41.513 35.5829 41.8841C35.5586 42.2552 35.6135 42.6273 35.744 42.9756C35.8745 43.3239 36.0776 43.6404 36.3398 43.9041C36.8595 44.4197 37.4727 44.8314 38.1466 45.1174C39.3732 45.6695 40.6127 46.1917 41.8651 46.684C43.463 47.2753 44.9716 48.0845 46.3482 49.0885C48.0472 50.3014 49.2266 52.1102 49.6512 54.1541C50.2044 56.5951 49.7755 59.1557 48.4573 61.2833C47.6559 62.5377 46.5629 63.5794 45.2716 64.3198C43.7813 65.181 42.1426 65.7551 40.4406 66.0121C39.0651 66.25 37.6684 66.3426 36.2735 66.2881C33.6869 66.2186 31.1322 65.6997 28.7234 64.7546C28.3687 64.6166 28.0153 64.4455 27.6758 64.2826L27.6854 63.99Z" fill="white"/>
<path d="M52.6633 76.2273C52.1415 74.2094 51.646 72.1872 51.1339 70.1348C51.323 70.0713 51.4597 70.0189 51.606 69.9788C52.7626 69.6577 53.863 69.161 54.869 68.506C55.8422 67.8436 56.6682 66.9875 57.2955 65.9912C57.5047 65.6983 57.6333 65.3554 57.6682 64.997C57.7031 64.6387 57.6431 64.2776 57.4942 63.9498C57.2444 63.3452 57.0084 62.7351 56.7655 62.1278C54.3794 56.2036 51.9947 50.2803 49.6115 44.358C49.3989 43.8294 49.1822 43.3062 48.9696 42.7776C48.9199 42.6547 48.8799 42.525 48.8164 42.3456C48.9528 42.3151 49.0912 42.2939 49.2305 42.2821H56.5308C56.9366 42.2821 56.9628 42.3055 57.0829 42.6878C57.3465 43.5491 57.6074 44.4132 57.8683 45.2828C58.673 47.9302 59.4887 50.5734 60.2727 53.225C60.7144 54.7157 61.1009 56.2243 61.515 57.7247C61.541 57.8512 61.6011 57.9681 61.6889 58.0629C61.7248 57.9373 61.7648 57.813 61.7952 57.6874C63.0218 52.7368 64.248 47.7816 65.4737 42.8218C65.6117 42.2793 65.6117 42.2697 66.1638 42.2697H72.9078C73.0749 42.2697 73.2405 42.2931 73.4531 42.3125C73.4006 42.4946 73.3703 42.6216 73.3275 42.7472C72.0999 46.2081 70.8719 49.6777 69.6435 53.156C68.876 55.3078 68.1252 57.4652 67.3287 59.6074C66.3648 62.3069 65.2236 64.9397 63.9125 67.4888C63.1349 69.0224 62.1786 70.4587 61.0636 71.7677C59.2095 73.9355 56.7071 75.4493 53.9262 76.0852C53.7592 76.1225 53.5936 76.1721 53.4266 76.2232L52.6633 76.2273Z" fill="white"/>
<path d="M186.905 54.7969C186.862 55.1889 186.825 55.5809 186.778 55.9771C186.764 56.0958 186.728 56.2131 186.693 56.3732C185.676 56.387 184.681 56.3732 183.683 56.3732H174.711C173.716 56.3732 172.719 56.3608 171.675 56.3732C171.71 56.6092 171.722 56.8148 171.767 57.0012C171.907 57.586 172.17 58.1342 172.539 58.6091C172.908 59.084 173.374 59.4746 173.906 59.7549C174.979 60.354 176.18 60.6854 177.408 60.721C179.757 60.8567 182.111 60.5629 184.355 59.8542C184.414 59.835 184.474 59.8206 184.535 59.8114C184.569 59.8079 184.604 59.8079 184.638 59.8114C185.054 61.4319 185.381 63.0743 185.615 64.7308C185.499 64.7846 185.379 64.8606 185.243 64.913C183.832 65.446 182.364 65.8128 180.869 66.0062C179.314 66.2224 177.743 66.294 176.176 66.2201C174.142 66.1701 172.145 65.6679 170.33 64.7501C168.049 63.5811 166.303 61.5826 165.451 59.1655C164.777 57.2763 164.511 55.2657 164.67 53.2661C164.786 51.248 165.357 49.2823 166.34 47.516C167.132 46.0177 168.268 44.7282 169.654 43.753C171.04 42.7778 172.637 42.1446 174.315 41.9051C176.233 41.5643 178.205 41.6825 180.068 42.2502C182.221 42.9094 184.045 44.3572 185.175 46.304C186.067 47.8354 186.631 49.5355 186.831 51.2965C186.862 51.5325 186.878 51.7685 186.902 51.9866L186.905 54.7969ZM171.679 51.2923H178.028C178.727 51.3191 179.426 51.3081 180.123 51.2592C180.139 51.1871 180.149 51.1136 180.151 51.0398C180.109 50.2984 179.941 49.5697 179.653 48.8852C179.381 48.2306 178.929 47.6666 178.35 47.2592C177.542 46.7683 176.594 46.5595 175.654 46.6654C174.715 46.7713 173.837 47.186 173.158 47.8444C172.351 48.7074 171.83 49.7997 171.669 50.9708C171.662 51.0784 171.664 51.1865 171.675 51.2938L171.679 51.2923Z" fill="white"/>
<path d="M97.3398 34.9983C97.7015 34.7788 104.147 33.0134 104.517 33.0328C104.531 33.1915 104.557 33.3585 104.557 33.5242V42.2199C104.725 42.2441 104.894 42.2597 105.064 42.2668H109.212C109.37 42.2668 109.525 42.2875 109.67 42.2999C109.782 44.0969 109.792 45.8988 109.7 47.6969C109.551 47.7107 109.388 47.741 109.228 47.741H105.115C104.956 47.741 104.799 47.7576 104.606 47.7672C104.584 47.9045 104.57 48.0426 104.563 48.1813C104.563 51.1195 104.563 54.0591 104.563 57C104.556 57.6544 104.649 58.306 104.839 58.9323C104.92 59.2918 105.116 59.6153 105.396 59.8546C105.676 60.094 106.027 60.2363 106.394 60.2602C106.96 60.3052 107.527 60.3149 108.094 60.2892C108.497 60.2699 108.898 60.1691 109.3 60.1097C109.389 60.105 109.478 60.105 109.566 60.1097C109.889 61.813 110.175 63.5217 110.461 65.2485C110.301 65.3341 110.175 65.4114 110.047 65.468C109.199 65.8169 108.303 66.0342 107.39 66.1126C106.47 66.2124 105.545 66.2626 104.619 66.2631C103.43 66.2522 102.257 65.9888 101.177 65.4901C100.434 65.1629 99.7677 64.6825 99.2228 64.0802C98.6779 63.478 98.2662 62.7675 98.0148 61.9952C97.6771 61.0383 97.4777 60.0381 97.4227 59.0248C97.3711 58.0807 97.3458 57.1316 97.3468 56.1773V35.5006L97.3398 34.9983Z" fill="white"/>
<path d="M162.623 60.1276C162.687 60.4644 162.753 60.7888 162.81 61.1145C163.025 62.3558 163.239 63.598 163.452 64.8412C163.525 65.2705 163.508 65.3133 163.105 65.4859C162.407 65.7734 161.675 65.9691 160.927 66.0683C159.903 66.2328 158.866 66.3117 157.828 66.3043C156.677 66.2921 155.539 66.0622 154.473 65.6266C153.681 65.3179 152.967 64.8391 152.381 64.2243C151.795 63.6094 151.351 62.8735 151.08 62.0683C150.759 61.1716 150.561 60.2355 150.492 59.2856C150.44 58.5582 150.409 57.8294 150.409 57.1034V35.5033C150.409 34.9305 150.329 34.9416 150.982 34.7649L157.162 33.0685C157.278 33.0354 157.398 33.0119 157.514 32.9857C157.567 33.0587 157.604 33.142 157.622 33.2302C157.641 33.3184 157.641 33.4095 157.623 33.4978C157.623 35.3381 157.623 37.1785 157.623 39.0189V41.7602C157.623 41.9065 157.637 42.05 157.649 42.2322C157.826 42.2488 157.979 42.2764 158.132 42.2764H162.245C162.415 42.2764 162.582 42.2999 162.734 42.3123C162.85 44.1092 162.856 45.9116 162.75 47.7092C162.6 47.723 162.432 47.752 162.265 47.752H158.19C158.033 47.752 157.874 47.7657 157.678 47.7782C157.651 47.9121 157.634 48.0477 157.625 48.184C157.625 51.147 157.63 54.1105 157.639 57.0744C157.646 57.6321 157.713 58.1874 157.839 58.7307C157.9 59.1992 158.137 59.6268 158.503 59.9264C158.868 60.226 159.334 60.375 159.805 60.3429C160.596 60.3768 161.389 60.3156 162.165 60.1607C162.262 60.1441 162.358 60.1248 162.458 60.111C162.513 60.112 162.569 60.1176 162.623 60.1276Z" fill="white"/>
<path d="M74.1172 57.0205C74.1462 56.8411 74.1544 56.732 74.1779 56.6285C74.8689 53.544 75.5591 50.4614 76.2483 47.3806L77.6645 41.0521C77.7269 40.7753 77.7647 40.4935 77.7777 40.21C77.7777 39.8774 77.6148 39.7546 77.3056 39.8746C77.0973 39.9537 76.903 40.0655 76.73 40.2059C76.2041 40.6324 75.6921 41.0783 75.1772 41.52C75.0751 41.6055 74.9784 41.6966 74.8377 41.8264C74.6886 41.5669 74.5616 41.3543 74.4388 41.1183C74.4088 41.0632 74.3992 40.9993 74.4118 40.9379C74.4245 40.8765 74.4585 40.8216 74.5078 40.7829C74.6734 40.6159 74.8335 40.4433 75.0061 40.2846C76.2139 39.1523 77.5208 38.1306 78.9109 37.2314C79.383 36.9361 79.8771 36.6793 80.3712 36.4295C80.5591 36.3361 80.7581 36.2669 80.9634 36.2238C81.0731 36.1887 81.1889 36.1772 81.3033 36.19C81.4178 36.2027 81.5283 36.2395 81.6275 36.2978C81.7268 36.3562 81.8126 36.4349 81.8794 36.5287C81.9462 36.6225 81.9925 36.7292 82.0151 36.8421C82.125 37.3001 82.1372 37.776 82.051 38.239C81.8259 39.616 81.5306 40.9805 81.1663 42.3274C81.0283 42.9168 80.8902 43.5075 80.7522 44.0955C80.7405 44.1737 80.7341 44.2526 80.7329 44.3316C80.8171 44.2869 80.8962 44.2332 80.9689 44.1715C81.452 43.6291 81.913 43.0672 82.4196 42.5386C82.9261 42.0099 83.4879 41.4067 84.0759 40.8822C84.8006 40.2293 85.5417 39.5944 86.3147 38.994C87.5834 37.9646 89.0108 37.1479 90.5411 36.5757C90.9685 36.4115 91.4236 36.3315 91.8814 36.3398C92.1188 36.3368 92.3522 36.4018 92.5537 36.5273C92.7553 36.6528 92.9167 36.8335 93.0188 37.0479C93.1912 37.391 93.2855 37.7681 93.2948 38.1521C93.3246 39.1054 93.2215 40.0581 92.9884 40.983C92.2127 44.2285 91.4397 47.4722 90.6695 50.714C90.4804 51.5187 90.3231 52.3331 90.1505 53.1419C90.1356 53.2017 90.1255 53.2627 90.1202 53.3241C90.0967 53.6375 90.243 53.7631 90.5467 53.6802C90.6651 53.6457 90.7798 53.5994 90.889 53.5422C91.7325 53.1024 92.5409 52.5985 93.3072 52.0349C93.4245 51.9521 93.5433 51.8817 93.6771 51.7989C93.9111 52.0333 94.0803 52.3244 94.1685 52.6437C93.9325 52.8659 93.7324 53.1157 93.4922 53.3117C92.3441 54.2896 91.0995 55.1484 89.7778 55.8748C89.2464 56.1647 88.7012 56.427 88.1546 56.681C87.9279 56.7961 87.6805 56.8648 87.4269 56.883C87.1733 56.9013 86.9186 56.8687 86.6777 56.7872C86.5052 56.7347 86.346 56.646 86.2105 56.527C86.0751 56.408 85.9666 56.2614 85.8923 56.0971C85.6911 55.7097 85.6223 55.2671 85.6963 54.8369C85.9531 53.6292 86.2154 52.4228 86.5038 51.2219C87.1857 48.3496 87.8841 45.4828 88.5743 42.6118C88.6809 42.1569 88.7597 41.696 88.8103 41.2315C88.8369 41.0243 88.8303 40.8141 88.7909 40.6089C88.773 40.4397 88.692 40.2835 88.5641 40.1713C88.4363 40.059 88.2709 39.999 88.1008 40.003C87.7419 39.9712 87.381 40.0331 87.0532 40.1825C86.4846 40.4553 85.958 40.8081 85.4893 41.2301C84.3395 42.2434 83.3058 43.3813 82.4071 44.6228C81.717 45.5269 81.0862 46.4682 80.4416 47.4054C80.3124 47.6001 80.2159 47.8146 80.1559 48.0404C79.5679 50.1647 79.1456 52.3441 78.7397 54.5181C78.6901 54.7845 78.6335 55.0508 78.6017 55.32C78.5929 55.4247 78.5507 55.5239 78.4814 55.6029C78.4121 55.6819 78.3193 55.7366 78.2166 55.7589C77.2725 56.0584 76.3104 56.3677 75.3567 56.6741L74.5451 56.9308C74.4374 56.9404 74.3201 56.968 74.1172 57.0205Z" fill="white"/>
<path d="M146.575 65.7261C146.438 65.751 146.3 65.7677 146.161 65.7758H139.712C139.574 65.7694 139.435 65.7551 139.298 65.733C139.275 65.6129 139.249 65.5203 139.239 65.4265C139.233 65.3277 139.233 65.2286 139.239 65.1298V42.3551C139.381 42.3228 139.525 42.3006 139.671 42.2888H146.193C146.32 42.2974 146.447 42.315 146.572 42.3413L146.575 65.7261Z" fill="white"/>
<path d="M73 66.4964H71.7867C71.7537 66.4207 71.7292 66.3415 71.7136 66.2603C71.5792 64.6481 71.9663 63.0354 72.8178 61.6598C73.1976 61.0717 73.6995 60.5722 74.2894 60.1951C74.8793 59.8181 75.5435 59.5724 76.2368 59.4748C77.5743 59.2525 78.9478 59.4272 80.1871 59.9773C81.3935 60.4825 82.5792 61.0346 83.7759 61.577C84.9726 62.1195 86.0768 62.6619 87.2349 63.1796C87.7955 63.4433 88.4098 63.5728 89.0292 63.5577C89.6265 63.566 90.2134 63.4009 90.7188 63.0824C91.2242 62.7639 91.6264 62.3058 91.8768 61.7634C92.0501 61.3833 92.1887 60.9883 92.2908 60.5832C92.3054 60.4858 92.348 60.3948 92.4135 60.3213C92.4789 60.2477 92.5643 60.1949 92.6594 60.1691C92.8719 60.107 93.0735 60.016 93.2874 59.9331C93.3896 59.9 93.4944 59.8862 93.6035 59.8627C93.6993 60.1026 93.72 60.3659 93.6628 60.6177C93.5572 61.9397 93.1779 63.2252 92.549 64.3928C92.1775 65.1014 91.6459 65.7136 90.9963 66.1806C90.3467 66.6477 89.597 66.9566 88.807 67.083C87.741 67.2602 86.6467 67.1359 85.6476 66.7241C84.4978 66.2741 83.3687 65.7799 82.2396 65.2775C80.9766 64.7157 79.733 64.1098 78.4646 63.5619C77.9506 63.3548 77.4182 63.1968 76.8745 63.0898C76.3243 62.9726 75.753 63.0026 75.2181 63.1768C74.8384 63.2951 74.4898 63.4964 74.1975 63.7662C73.9053 64.0359 73.6769 64.3674 73.5287 64.7365C73.3722 65.1382 73.2399 65.5488 73.1325 65.9663C73.0773 66.1181 73.0469 66.288 73 66.4964Z" fill="white"/>
</svg>
