<svg width="216" height="108" viewBox="0 0 216 108" fill="none" xmlns="http://www.w3.org/2000/svg">
<g clip-path="url(#clip0_363_7467)">
<path fill-rule="evenodd" clip-rule="evenodd" d="M161.935 75.2752H54.7344V32.3884H161.952V75.2752H161.935Z" fill="white"/>
<path fill-rule="evenodd" clip-rule="evenodd" d="M56.8828 53.831C56.8828 64.3722 78.4511 73.1301 108.354 73.1301C138.256 73.1301 159.81 64.3736 159.81 53.831C159.81 43.2884 138.242 34.5319 108.354 34.5319C78.4649 34.5319 56.8828 43.2884 56.8828 53.831Z" fill="black"/>
<path d="M104.536 60.2701C104.868 60.7524 105.25 61.1996 105.673 61.6048H94.0703C93.9193 60.8482 93.5989 60.1356 93.1331 59.5206C92.6417 58.7987 89.9833 54.8566 89.9833 54.8566V60.2701C89.947 60.7273 90.0263 61.1863 90.2138 61.6048H80.5518C80.7393 61.1863 80.8186 60.7273 80.7823 60.2701V47.399C80.8186 46.9418 80.7393 46.4828 80.5518 46.0642H90.2138C90.0263 46.4828 89.947 46.9418 89.9833 47.399V53.0264C89.9833 53.0264 93.0723 49.0967 93.779 48.1816C94.3303 47.5736 94.7408 46.8516 94.9813 46.067H105.057C104.274 46.6404 103.571 47.3164 102.968 48.0767L99.2739 52.4729C99.2739 52.4729 103.92 59.3853 104.536 60.2701ZM107.572 47.399V60.2701C107.608 60.7273 107.529 61.1863 107.342 61.6048H126.003V57.2831C125.572 57.4667 125.103 57.5438 124.635 57.5081H116.783V55.4695H124.329V52.2009H116.783V50.1457H124.638C125.104 50.1126 125.572 50.1847 126.006 50.3569V46.0504H107.347C107.534 46.4746 107.613 46.9383 107.578 47.4003L107.572 47.399ZM151.845 60.2701C152.001 60.7624 152.257 61.2169 152.598 61.6048H142.492C142.5 61.1414 142.395 60.683 142.184 60.2701C142.184 60.2701 142.03 59.9098 141.814 59.3853L141.716 59.1603H135.9L135.807 59.4005C135.807 59.4005 135.637 59.8353 135.484 60.2853C135.294 60.7038 135.205 61.1608 135.222 61.62H127.248C127.574 61.2266 127.819 60.7731 127.97 60.2853L132.749 47.4141C132.95 46.9989 133.045 46.5403 133.025 46.0794H146.496C146.452 46.544 146.554 47.0107 146.789 47.4141C147.195 48.39 151.512 59.4005 151.85 60.2701H151.845ZM140.444 55.8753L139.03 52.2755C138.905 51.9429 138.802 51.6021 138.722 51.2555C138.661 51.603 138.569 51.9444 138.446 52.2755C138.401 52.4259 137.8 54.0008 137.11 55.8753H140.444ZM75.9679 46.0656H65.457C65.6445 46.4842 65.7238 46.9431 65.6875 47.4003V60.2715C65.7236 60.7282 65.6443 61.1867 65.457 61.6048H75.9679C75.7804 61.1863 75.7011 60.7273 75.7374 60.2701V47.4003C75.7013 46.9436 75.7806 46.4851 75.9679 46.067V46.0656Z" fill="white"/>
</g>
<defs>
<clipPath id="clip0_363_7467">
<rect width="215.324" height="107.662" fill="white" transform="translate(0.675781)"/>
</clipPath>
</defs>
</svg>
