<svg width="216" height="108" viewBox="0 0 216 108" fill="none" xmlns="http://www.w3.org/2000/svg">
<g clip-path="url(#clip0_363_7401)">
<path d="M21.2031 70.7851H28.433C28.433 70.7851 42.6182 42.7336 76.6049 39.2954C76.288 38.5238 75.909 37.7792 75.4717 37.069C75.4717 37.069 40.4719 38.423 21.2031 70.7851Z" fill="white"/>
<path d="M66.3956 48.2795C76.1818 49.0649 74.9533 58.6482 74.9533 58.6482C74.8842 60.2207 74.2658 61.7192 73.2059 62.8829C67.6419 68.6801 61.9414 64.738 61.9414 64.738C66.3763 68.4648 73.5841 68.1611 73.5841 68.1611C83.1895 61.7055 81.5994 50.4617 78.3598 43.276C74.0454 44.0202 69.9553 45.7307 66.3956 48.2795Z" fill="white"/>
<path d="M64.5988 44.0435C64.5988 44.0435 51.5924 52.7392 58.5394 63.8105C60.6098 67.1162 66.621 69.7457 72.7881 69.6946C70.666 70.3912 68.4498 70.7585 66.2165 70.7837C63.0778 70.6967 47.9609 70.7837 47.9609 70.7837C47.9609 70.7837 48.5779 52.9559 64.5988 44.0435Z" fill="white"/>
<path d="M45.8204 70.785H31.5469C31.5469 70.785 40.0425 51.9193 65.0463 42.6355C65.0463 42.6355 48.0219 49.1339 45.8204 70.785Z" fill="white"/>
<path d="M96.2829 37.5382H94.7305V38.9194H96.2829V37.5382Z" fill="white"/>
<path d="M98.4782 37.5382H96.9258V38.9194H98.4782V37.5382Z" fill="white"/>
<path d="M137.369 37.5382H135.816V38.9194H137.369V37.5382Z" fill="white"/>
<path d="M139.568 37.5382H138.016V38.9194H139.568V37.5382Z" fill="white"/>
<path d="M180.24 37.5382H178.688V38.9194H180.24V37.5382Z" fill="white"/>
<path d="M182.434 37.5382H180.883V38.9194H182.434V37.5382Z" fill="white"/>
<path d="M104.004 37.9881C104.004 37.9289 103.992 37.8703 103.97 37.8156C103.948 37.7609 103.915 37.7112 103.873 37.6693C103.833 37.6264 103.784 37.5921 103.73 37.5684C103.676 37.5447 103.618 37.5321 103.559 37.5312H102.903C102.844 37.5321 102.786 37.5448 102.732 37.5685C102.678 37.5922 102.629 37.6265 102.588 37.6693C102.504 37.7538 102.457 37.8678 102.457 37.9867V49.8572H104.003L104.004 37.9881Z" fill="white"/>
<path d="M108.8 49.8573C108.815 49.3549 108.79 48.9974 108.79 48.9974V42.5405C108.79 42.4217 108.743 42.3077 108.66 42.223C108.62 42.1802 108.571 42.1459 108.517 42.1222C108.463 42.0985 108.405 42.0859 108.346 42.085H107.688C107.629 42.0858 107.571 42.0984 107.517 42.1221C107.463 42.1458 107.414 42.1801 107.374 42.223C107.291 42.3077 107.244 42.4217 107.244 42.5405V49.6765C107.234 49.9286 107.158 50.1737 107.024 50.387C106.889 50.6003 106.7 50.7742 106.477 50.8912C106.006 51.027 105.517 51.0853 105.027 51.0637V52.4564C108.441 52.5461 108.762 51.0361 108.8 49.8573Z" fill="white"/>
<path d="M191.04 47.2098V37.9909C191.04 37.8722 190.994 37.7582 190.911 37.6735C190.87 37.6307 190.822 37.5965 190.768 37.5728C190.714 37.549 190.656 37.5364 190.597 37.5354H189.94C189.882 37.5364 189.823 37.549 189.77 37.5728C189.716 37.5965 189.667 37.6307 189.627 37.6735C189.544 37.7583 189.497 37.8722 189.497 37.9909V47.2098C189.492 47.5003 189.372 47.7771 189.165 47.98C189.063 48.0799 188.942 48.1585 188.81 48.2113C188.677 48.2642 188.535 48.2902 188.393 48.2878H187.406L185.805 38.699L185.65 37.7646C185.641 37.7065 185.62 37.6508 185.589 37.6008C185.558 37.5508 185.517 37.5075 185.47 37.4733C185.422 37.4394 185.368 37.4151 185.312 37.4021C185.255 37.3891 185.196 37.3875 185.138 37.3974L184.491 37.5078C184.433 37.5179 184.378 37.5393 184.329 37.5708C184.28 37.6023 184.237 37.6433 184.204 37.6914C184.135 37.7889 184.108 37.9094 184.128 38.0268L184.283 38.9599L185.841 48.2865H183.594V49.8545H188.398C188.744 49.8552 189.087 49.7875 189.406 49.6553C189.726 49.5231 190.016 49.3291 190.26 49.0843C190.757 48.5862 191.039 47.9132 191.044 47.2098H191.04Z" fill="white"/>
<path d="M194.855 38.935V37.9867C194.852 37.867 194.802 37.7532 194.717 37.6693C194.676 37.6265 194.628 37.5922 194.574 37.5685C194.52 37.5448 194.461 37.5321 194.402 37.5312H193.747C193.688 37.532 193.629 37.5446 193.575 37.5683C193.521 37.592 193.472 37.6263 193.432 37.6693C193.39 37.7112 193.358 37.761 193.335 37.8156C193.312 37.8702 193.301 37.9289 193.301 37.9881V49.8227H194.852V38.935H194.855Z" fill="white"/>
<path d="M151.115 37.9882C151.114 37.9288 151.102 37.8702 151.078 37.8157C151.054 37.7612 151.02 37.7119 150.977 37.6707C150.937 37.628 150.888 37.5937 150.835 37.57C150.781 37.5463 150.723 37.5336 150.664 37.5327H150.015C149.957 37.5326 149.899 37.5444 149.845 37.5672C149.791 37.59 149.742 37.6233 149.7 37.6652C149.659 37.707 149.626 37.7565 149.604 37.811C149.582 37.8655 149.57 37.9238 149.571 37.9827V47.2099C149.565 47.5004 149.446 47.7771 149.238 47.9801C149.136 48.0799 149.016 48.1584 148.883 48.2113C148.751 48.2641 148.609 48.2901 148.467 48.2879H146.6C146.457 48.2912 146.315 48.266 146.181 48.2136C146.048 48.1613 145.926 48.0828 145.823 47.9828C145.614 47.7796 145.493 47.5017 145.488 47.2099V37.9896C145.488 37.9305 145.477 37.8719 145.455 37.8171C145.432 37.7624 145.4 37.7127 145.358 37.6707C145.319 37.6295 145.272 37.5963 145.22 37.5727C145.166 37.55 145.109 37.5382 145.05 37.5382H144.393C144.334 37.5392 144.276 37.5518 144.223 37.5756C144.169 37.5993 144.12 37.6335 144.08 37.6763C143.997 37.7611 143.95 37.875 143.95 37.9937V47.2099C143.945 47.5004 143.825 47.7771 143.618 47.9801C143.515 48.0799 143.395 48.1585 143.262 48.2113C143.129 48.2642 142.987 48.2902 142.845 48.2879H141.326C141.608 47.6236 141.743 46.9068 141.724 46.1857C141.724 43.2595 140.446 41.8985 137.702 41.8985C135.11 41.8985 133.68 43.4169 133.68 46.1857C133.657 46.9063 133.791 47.6233 134.07 48.2879H129.122C129.38 47.5482 129.497 46.7669 129.468 45.9842C129.46 42.5859 127.312 42.0835 126.033 42.0835H122.197C121.552 42.0836 120.92 42.2633 120.372 42.6025V37.9882C120.372 37.8695 120.326 37.7555 120.243 37.6707C120.202 37.6279 120.153 37.5936 120.099 37.5699C120.045 37.5462 119.987 37.5335 119.928 37.5327H119.271C119.212 37.5335 119.154 37.5462 119.099 37.5699C119.045 37.5936 118.997 37.6279 118.956 37.6707C118.873 37.7555 118.826 37.8695 118.826 37.9882V48.2865H112.561C112.419 48.2886 112.277 48.2625 112.145 48.2097C112.012 48.1569 111.892 48.0784 111.79 47.9787C111.582 47.7761 111.463 47.4999 111.457 47.2099V37.9896C111.457 37.8708 111.41 37.7568 111.327 37.6721C111.288 37.6309 111.241 37.5977 111.189 37.5741C111.135 37.5515 111.078 37.5397 111.019 37.5396H110.364C110.305 37.5405 110.247 37.5532 110.193 37.5769C110.138 37.6006 110.09 37.6348 110.049 37.6776C109.965 37.7621 109.918 37.8762 109.918 37.9951V47.2099C109.923 47.9151 110.206 48.5899 110.705 49.0884C110.95 49.3334 111.241 49.5273 111.562 49.6591C111.882 49.7908 112.226 49.8577 112.572 49.8559H122.209V49.8862H126.045C126.335 49.8862 126.641 49.8862 126.945 49.8559H142.846C143.093 49.6086 143.386 49.4125 143.708 49.2787C144.031 49.1448 144.377 49.0759 144.726 49.0759C145.075 49.0759 145.421 49.1448 145.744 49.2787C146.066 49.4125 146.359 49.6086 146.606 49.8559H148.472C148.818 49.857 149.161 49.7895 149.481 49.6573C149.801 49.5251 150.092 49.3308 150.337 49.0857C150.834 48.5876 151.116 47.9139 151.122 47.2099V38.9378L151.115 37.9882ZM135.22 46.1829C135.22 44.2726 135.958 43.4638 137.692 43.4638C139.332 43.4638 140.164 43.8779 140.164 46.1829C140.164 47.2996 139.848 48.0574 139.293 48.2851H136.204C135.55 48.1278 135.22 47.4224 135.22 46.1829ZM120.371 45.0194C120.48 44.621 120.719 44.2701 121.049 44.022C121.379 43.7739 121.783 43.6426 122.196 43.6487H126.031C126.959 43.6487 127.909 43.9248 127.909 45.9828C127.909 47.0995 127.739 47.8282 127.419 48.0933C127.249 48.2136 127.048 48.2835 126.84 48.2948H120.371V45.0194Z" fill="white"/>
<path d="M101.371 47.4997H101.382V42.5652C101.382 42.4465 101.336 42.3324 101.252 42.2478C101.212 42.2051 101.164 42.1709 101.11 42.1472C101.056 42.1235 100.998 42.1107 100.939 42.1097H100.288C100.229 42.1107 100.171 42.1235 100.117 42.1472C100.063 42.1709 100.015 42.2051 99.9743 42.2478C99.891 42.3324 99.8444 42.4465 99.8446 42.5652V47.2389C99.8383 47.5293 99.7177 47.8055 99.5091 48.0077C99.4069 48.1075 99.2861 48.1862 99.1534 48.2393C99.0208 48.2923 98.879 48.3187 98.7362 48.3169H93.5242C93.2362 48.3202 92.9587 48.209 92.7527 48.0077C92.5454 47.8048 92.4255 47.5289 92.4187 47.2389V44.2588C92.4189 44.1997 92.4077 44.1411 92.3856 44.0863C92.3633 44.0317 92.3304 43.9819 92.2889 43.94C92.2483 43.8972 92.1995 43.8629 92.1455 43.8392C92.0914 43.8155 92.0332 43.8029 91.9742 43.802H91.3117C91.2527 43.8029 91.1944 43.8155 91.1404 43.8392C91.0864 43.8629 91.0376 43.8972 90.9969 43.94C90.9554 43.9819 90.9226 44.0317 90.9003 44.0863C90.8781 44.1411 90.8669 44.1997 90.8672 44.2588V47.2403C90.8725 47.9455 91.1551 48.6203 91.654 49.1188C91.8993 49.3639 92.1908 49.558 92.5116 49.6897C92.8324 49.8214 93.1761 49.8883 93.5229 49.8863H98.7348C99.3906 49.8898 100.024 49.6475 100.51 49.2071C100.999 48.7646 101.308 48.1572 101.378 47.5011L101.371 47.4997Z" fill="white"/>
<path d="M182.413 47.4584H182.424V42.5239C182.424 42.4047 182.378 42.2903 182.295 42.2051C182.254 42.1623 182.205 42.1281 182.151 42.1044C182.097 42.0807 182.039 42.068 181.98 42.067H181.324C181.265 42.0678 181.207 42.0804 181.153 42.1041C181.099 42.1278 181.05 42.1621 181.009 42.2051C180.968 42.2471 180.935 42.2968 180.913 42.3514C180.891 42.4063 180.88 42.4648 180.88 42.5239V47.1906C180.874 47.4811 180.755 47.7579 180.547 47.9608C180.445 48.0607 180.325 48.1393 180.192 48.1921C180.06 48.245 179.918 48.271 179.776 48.2686H176.42C176.646 47.5158 176.747 46.731 176.718 45.9456C176.718 43.3576 175.649 42.0449 173.544 42.0449H171.146C171.045 42.0451 170.944 42.0653 170.851 42.1043C170.757 42.1443 170.671 42.2019 170.599 42.2741C170.452 42.4324 170.371 42.6408 170.373 42.8568C170.374 43.0728 170.459 43.2801 170.608 43.4363C170.652 43.4903 170.707 43.5337 170.771 43.5633C170.834 43.5931 170.902 43.6082 170.972 43.6074H173.545C174.403 43.6074 175.175 43.7855 175.175 45.9401C175.175 47.3949 174.953 47.9084 174.768 48.0823C174.57 48.2136 174.334 48.2766 174.097 48.2617H173.248V48.2728H167.143C167.001 48.2757 166.859 48.2504 166.726 48.1983C166.594 48.1461 166.473 48.0683 166.37 47.9691C166.161 47.7672 166.04 47.4909 166.033 47.2003V37.9897C166.033 37.871 165.987 37.7571 165.904 37.6722C165.863 37.6295 165.814 37.5954 165.76 37.5717C165.706 37.548 165.648 37.5352 165.589 37.5342H164.928C164.869 37.5351 164.811 37.5478 164.757 37.5715C164.703 37.5952 164.655 37.6294 164.615 37.6722C164.572 37.7134 164.537 37.7627 164.514 37.8171C164.49 37.8716 164.477 37.9303 164.477 37.9897V47.2086C164.482 47.9137 164.765 48.5883 165.263 49.0871C165.508 49.3321 165.8 49.5261 166.12 49.6578C166.441 49.7895 166.784 49.8564 167.131 49.8546H173.532C173.731 49.8546 173.936 49.8546 174.143 49.8435H179.771C180.427 49.8471 181.06 49.6048 181.546 49.1644C182.035 48.7216 182.344 48.1143 182.413 47.4584Z" fill="white"/>
<path d="M162.411 49.2735C162.777 48.8151 163.046 48.2868 163.2 47.721C163.355 47.1551 163.392 46.5636 163.31 45.9829C163.31 43.3935 162.241 42.0808 160.135 42.0808H157.738C157.635 42.0802 157.533 42.1002 157.438 42.1395C157.343 42.1789 157.257 42.2368 157.185 42.31C157.038 42.4683 156.957 42.677 156.958 42.8934C156.96 43.1097 157.044 43.3173 157.194 43.4735C157.238 43.5276 157.293 43.5711 157.356 43.6007C157.419 43.6303 157.488 43.6454 157.558 43.6447H160.131C160.989 43.6447 161.761 43.8241 161.761 45.9787C161.761 47.4336 161.54 47.947 161.355 48.1209C161.17 48.2949 160.748 48.3114 160.132 48.3114H156.832V49.8794H160.132C160.942 49.9867 161.762 49.7688 162.411 49.2735Z" fill="white"/>
<path d="M113.419 56.5309H112.761C112.702 56.5312 112.644 56.5432 112.59 56.566C112.536 56.5888 112.487 56.622 112.445 56.6638C112.404 56.7056 112.372 56.7551 112.349 56.8095C112.327 56.8639 112.316 56.9221 112.316 56.9809V70.2053C112.316 70.2641 112.327 70.3223 112.349 70.3767C112.372 70.4311 112.404 70.4806 112.445 70.5224C112.487 70.5642 112.536 70.5974 112.59 70.6202C112.644 70.643 112.702 70.6549 112.761 70.6553H113.419C113.478 70.6549 113.536 70.643 113.59 70.6202C113.644 70.5974 113.693 70.5642 113.735 70.5224C113.776 70.4806 113.809 70.4311 113.831 70.3767C113.853 70.3223 113.864 70.2641 113.864 70.2053V56.9809C113.864 56.9221 113.853 56.8639 113.831 56.8095C113.809 56.7551 113.776 56.7056 113.735 56.6638C113.693 56.622 113.644 56.5888 113.59 56.566C113.536 56.5432 113.478 56.5312 113.419 56.5309Z" fill="white"/>
<path d="M182.209 56.5309H181.552C181.434 56.532 181.321 56.58 181.238 56.6643C181.155 56.7487 181.109 56.8625 181.109 56.9809V70.2053C181.109 70.3237 181.155 70.4375 181.238 70.5219C181.321 70.6062 181.434 70.6542 181.552 70.6553H182.209C182.268 70.6549 182.326 70.643 182.38 70.6202C182.434 70.5974 182.484 70.5642 182.525 70.5224C182.566 70.4806 182.599 70.4311 182.621 70.3767C182.643 70.3223 182.654 70.2641 182.654 70.2053V56.9809C182.654 56.9221 182.643 56.8639 182.621 56.8095C182.599 56.7551 182.566 56.7056 182.525 56.6638C182.484 56.622 182.434 56.5888 182.38 56.566C182.326 56.5432 182.268 56.5312 182.209 56.5309Z" fill="white"/>
<path d="M109.609 56.6083H100.568C100.509 56.6093 100.451 56.622 100.398 56.6457C100.344 56.6694 100.295 56.7036 100.255 56.7463C100.171 56.8309 100.125 56.945 100.125 57.0638V57.7291C100.125 57.8479 100.171 57.9619 100.255 58.0465C100.295 58.0892 100.344 58.1235 100.398 58.1472C100.451 58.1709 100.509 58.1836 100.568 58.1846H104.321V70.2068C104.321 70.3256 104.368 70.4396 104.451 70.5243C104.491 70.567 104.54 70.6012 104.594 70.6249C104.647 70.6486 104.705 70.6613 104.764 70.6623H105.413C105.472 70.6613 105.53 70.6486 105.583 70.6249C105.637 70.6012 105.686 70.567 105.726 70.5243C105.81 70.4396 105.856 70.3256 105.856 70.2068V58.1735H109.603C109.662 58.1727 109.721 58.1601 109.775 58.1364C109.829 58.1127 109.878 58.0784 109.918 58.0355C110.001 57.9508 110.048 57.8368 110.048 57.718V57.0541C110.048 56.9355 110.002 56.8215 109.919 56.7366C109.879 56.6939 109.831 56.6597 109.777 56.636C109.723 56.6123 109.665 56.5996 109.606 56.5986L109.609 56.6083Z" fill="white"/>
<path d="M162.177 64.5654C163.031 64.3754 163.791 63.8927 164.326 63.2009C164.861 62.5091 165.137 61.6519 165.106 60.7779C165.106 58.1553 163.602 56.7088 160.869 56.7088C160.068 56.7088 159.447 56.7005 158.949 56.6936C157.458 56.6729 157.062 56.666 156.686 57.0401C156.572 57.167 156.485 57.3164 156.432 57.4788C156.379 57.6411 156.36 57.8128 156.377 57.9828V70.2107C156.377 70.27 156.389 70.3286 156.412 70.3833C156.445 70.4656 156.502 70.5359 156.576 70.5852C156.65 70.6344 156.737 70.6603 156.826 70.6593H157.483C157.541 70.6593 157.599 70.6475 157.653 70.6248C157.705 70.6013 157.751 70.568 157.791 70.5268C157.832 70.4852 157.865 70.436 157.887 70.3819C157.909 70.327 157.92 70.2684 157.92 70.2093V64.8539C158.397 64.8539 159.096 64.8456 160.027 64.8456C160.212 64.8456 160.391 64.8456 160.566 64.829L163.905 70.2121C164.203 70.6952 164.383 70.6621 164.629 70.6621H165.513C165.758 70.6621 165.832 70.4606 165.678 70.2121L162.177 64.5654ZM157.924 63.29V58.2533C158.178 58.2533 158.535 58.2533 158.927 58.2533C159.43 58.2602 160.057 58.2699 160.869 58.2699C162.757 58.2699 163.557 59.018 163.557 60.771C163.557 62.8414 161.64 63.2721 160.031 63.2721C159.105 63.2767 158.404 63.2826 157.926 63.29H157.924Z" fill="white"/>
<path d="M126.279 56.5309H125.622C125.563 56.5317 125.505 56.5443 125.451 56.568C125.397 56.5917 125.348 56.6261 125.308 56.6689C125.224 56.7536 125.178 56.8676 125.178 56.9864V62.5379H118.69V56.9864C118.69 56.8676 118.644 56.7536 118.561 56.6689C118.52 56.6261 118.471 56.5917 118.417 56.568C118.363 56.5443 118.305 56.5317 118.246 56.5309H117.589C117.53 56.5317 117.472 56.5443 117.418 56.568C117.364 56.5917 117.315 56.6261 117.274 56.6689C117.191 56.7536 117.144 56.8676 117.145 56.9864V70.2108C117.144 70.3296 117.191 70.4437 117.274 70.5283C117.315 70.5712 117.364 70.6055 117.418 70.6292C117.472 70.6529 117.53 70.6655 117.589 70.6663H118.246C118.305 70.6655 118.363 70.6529 118.417 70.6292C118.471 70.6055 118.52 70.5712 118.561 70.5283C118.644 70.4436 118.69 70.3296 118.69 70.2108V64.1017H125.178V70.2108C125.178 70.3296 125.224 70.4436 125.308 70.5283C125.348 70.5712 125.397 70.6055 125.451 70.6292C125.505 70.6529 125.563 70.6655 125.622 70.6663H126.279C126.338 70.6656 126.397 70.653 126.451 70.6293C126.505 70.6056 126.553 70.5713 126.594 70.5283C126.677 70.4437 126.724 70.3296 126.724 70.2108V56.9877C126.724 56.869 126.677 56.755 126.594 56.6703C126.553 56.6274 126.505 56.5931 126.451 56.5694C126.397 56.5457 126.338 56.5331 126.279 56.5323V56.5309Z" fill="white"/>
<path d="M146.247 56.7379C145.454 56.7379 144.832 56.7214 144.334 56.7076C143.071 56.6758 142.54 56.662 142.126 57.0761C141.948 57.2521 141.832 57.4805 141.794 57.7276C141.763 57.7902 141.746 57.8591 141.746 57.9291V70.2136C141.747 70.3322 141.793 70.446 141.876 70.5311C141.915 70.5721 141.962 70.6053 142.014 70.6291C142.068 70.6517 142.126 70.6635 142.185 70.6636H142.511C142.519 70.6636 142.981 70.6705 143.663 70.6705C144.385 70.6705 145.358 70.6622 146.304 70.6305C149.394 70.5297 150.96 68.1888 150.96 63.6849C150.969 60.3225 150.605 56.7379 146.247 56.7379ZM146.26 69.0625C145.155 69.1011 144.014 69.1039 143.293 69.1011V58.4384H143.306V58.2659C143.543 58.2576 143.91 58.2659 144.298 58.2783C144.805 58.2908 145.434 58.3073 146.25 58.3073C148.399 58.3073 149.425 59.112 149.425 63.6904C149.425 68.3613 147.734 69.0183 146.264 69.0735L146.26 69.0625Z" fill="white"/>
<path d="M137.533 57.1659C137.246 56.9324 136.911 56.7651 136.552 56.6759C135.802 56.5168 135.034 56.4561 134.268 56.4951C133.501 56.4669 132.734 56.5275 131.982 56.6759C131.546 56.7658 131.14 56.9615 130.798 57.246C130.023 58.1988 129.65 59.4154 129.756 60.6387C129.748 60.6717 129.744 60.7055 129.743 60.7395V63.4462C129.733 63.4831 129.728 63.5211 129.727 63.5594V64.2247C129.728 64.2629 129.733 64.3009 129.743 64.3379V70.1875C129.743 70.3062 129.79 70.4202 129.873 70.505C129.913 70.5476 129.962 70.5818 130.016 70.6055C130.069 70.6292 130.127 70.6419 130.186 70.643H130.843C130.902 70.6429 130.959 70.6311 131.013 70.6085C131.122 70.5623 131.208 70.475 131.253 70.3656C131.275 70.3108 131.287 70.2521 131.286 70.193V64.6719H137.063H137.121V70.211C137.121 70.3297 137.167 70.4437 137.251 70.5284C137.291 70.5713 137.34 70.6056 137.394 70.6293C137.448 70.653 137.506 70.6656 137.565 70.6665H138.224C138.282 70.6655 138.34 70.6527 138.394 70.629C138.448 70.6053 138.496 70.5711 138.537 70.5284C138.62 70.4438 138.667 70.3297 138.667 70.211V60.7436C138.668 60.722 138.668 60.7003 138.667 60.6787C138.73 60.0467 138.663 59.4083 138.468 58.8038C138.273 58.1992 137.954 57.6416 137.533 57.1659ZM137.071 63.1011H131.295V60.7298C131.295 60.7298 131.101 58.2453 132.715 58.1073C133.311 58.0576 135.368 58.0604 135.705 58.1073C137.307 58.3309 137.124 60.7298 137.124 60.7298V63.1067C137.104 63.1051 137.085 63.1051 137.066 63.1067L137.071 63.1011Z" fill="white"/>
<path d="M176.145 57.1657C175.858 56.9323 175.523 56.765 175.164 56.6757C174.413 56.5163 173.645 56.4555 172.878 56.4949C172.112 56.4667 171.346 56.5274 170.594 56.6757C170.158 56.7654 169.751 56.9612 169.41 57.2458C168.634 58.1982 168.261 59.4151 168.367 60.6385C168.36 60.6716 168.356 60.7054 168.355 60.7393V63.446C168.346 63.483 168.34 63.521 168.34 63.5592V64.2245C168.34 64.2627 168.346 64.3006 168.355 64.3376V70.1873C168.355 70.2465 168.367 70.3052 168.39 70.3598C168.435 70.4692 168.521 70.5565 168.63 70.6028C168.683 70.6256 168.741 70.6373 168.799 70.6373H169.456C169.515 70.6373 169.573 70.6255 169.626 70.6028C169.68 70.5803 169.73 70.5472 169.771 70.5055C169.812 70.4638 169.845 70.4143 169.866 70.3598C169.889 70.3052 169.901 70.2465 169.901 70.1873V64.6662H175.677H175.735V70.2052C175.736 70.3239 175.782 70.4379 175.865 70.5227C175.906 70.5655 175.954 70.5997 176.008 70.6234C176.062 70.6471 176.12 70.6598 176.178 70.6607H176.841C176.9 70.6598 176.958 70.6471 177.012 70.6234C177.065 70.5997 177.114 70.5655 177.154 70.5227C177.238 70.4382 177.285 70.3241 177.284 70.2052V60.7379C177.285 60.7163 177.285 60.6946 177.284 60.673C177.344 60.0416 177.275 59.4045 177.079 58.8012C176.883 58.1979 176.565 57.6412 176.145 57.1657ZM175.683 63.1009H169.906V60.7296C169.906 60.7296 169.715 58.2451 171.325 58.1071C171.922 58.0574 173.978 58.0601 174.315 58.1071C175.918 58.3307 175.734 60.7296 175.734 60.7296V63.1064C175.717 63.1057 175.7 63.1062 175.683 63.1078V63.1009Z" fill="white"/>
<path d="M98.1695 56.604H96.5642C96.2398 56.5916 95.863 56.5847 95.4269 56.5847C94.6626 56.5734 93.8985 56.6196 93.1411 56.7227C92.7211 56.7754 92.3273 56.9551 92.012 57.2376C91.274 58.109 90.8989 59.2307 90.9644 60.3708V66.9409C90.9059 68.0675 91.2808 69.1738 92.012 70.0328C92.3273 70.3153 92.7211 70.4949 93.1411 70.5476C93.8985 70.6508 94.6626 70.6969 95.4269 70.6856C95.863 70.6856 96.2398 70.6787 96.5642 70.6663H98.1695C98.2283 70.6653 98.2862 70.6526 98.34 70.6289C98.3938 70.6052 98.4424 70.571 98.4828 70.5283C98.5663 70.4437 98.6129 70.3296 98.6125 70.2108V69.5469C98.6129 69.4281 98.5663 69.314 98.4828 69.2294C98.4424 69.1867 98.3938 69.1525 98.34 69.1288C98.2862 69.1051 98.2283 69.0924 98.1695 69.0914H95.1328C94.6014 69.0817 94.1046 69.0638 93.8699 69.0445C92.6774 68.9437 92.5406 67.6794 92.5144 66.9644C92.5144 66.7794 92.5061 66.629 92.5061 66.5627V64.1072H98.1654C98.2241 64.1062 98.2821 64.0935 98.3359 64.0698C98.3897 64.0461 98.4383 64.0119 98.4787 63.9692C98.562 63.8846 98.6086 63.7705 98.6084 63.6517V62.9878C98.6086 62.869 98.562 62.755 98.4787 62.6703C98.4383 62.6276 98.3897 62.5934 98.3359 62.5697C98.2821 62.546 98.2241 62.5333 98.1654 62.5323H92.5061V60.6634C92.5061 60.5985 92.5061 60.4467 92.5144 60.2617C92.5406 59.5468 92.6746 58.2824 93.8699 58.1817C94.1046 58.1623 94.6014 58.1458 95.1328 58.1347H98.1695C98.2283 58.1337 98.2862 58.121 98.34 58.0973C98.3938 58.0736 98.4424 58.0394 98.4828 57.9967C98.5661 57.9121 98.6127 57.798 98.6125 57.6793V57.0153C98.6128 56.8961 98.5662 56.7816 98.4828 56.6965C98.4435 56.6553 98.3966 56.622 98.3447 56.5985C98.291 56.5758 98.2333 56.5641 98.175 56.564L98.1695 56.604Z" fill="white"/>
<path d="M194.363 69.1205H191.327C190.796 69.1108 190.298 69.0929 190.064 69.0735C188.872 68.9728 188.734 67.7084 188.71 66.9934C188.71 66.8389 188.701 66.7063 188.701 66.629V56.9809C188.701 56.8622 188.655 56.7482 188.572 56.6634C188.531 56.6206 188.482 56.5864 188.428 56.5626C188.374 56.5389 188.316 56.5263 188.257 56.5254H187.6C187.541 56.5263 187.483 56.539 187.429 56.5627C187.375 56.5864 187.327 56.6206 187.286 56.6634C187.244 56.7046 187.209 56.7539 187.186 56.8084C187.162 56.8628 187.149 56.9215 187.148 56.9809V67.1108C187.15 67.1543 187.157 67.1975 187.171 67.2391C187.134 68.2727 187.502 69.2798 188.196 70.0466C188.521 70.3142 188.911 70.4918 189.327 70.5615C190.083 70.6645 190.847 70.7107 191.611 70.6995C192.047 70.6995 192.425 70.6926 192.748 70.6802H194.355C194.414 70.6792 194.472 70.6665 194.525 70.6428C194.579 70.6191 194.628 70.5849 194.668 70.5421C194.751 70.4573 194.798 70.3434 194.798 70.2247V69.5608C194.798 69.5015 194.786 69.4429 194.763 69.3882C194.741 69.3338 194.708 69.2843 194.667 69.2426C194.626 69.2009 194.576 69.1678 194.522 69.1453C194.468 69.1228 194.409 69.1116 194.351 69.1122L194.363 69.1205Z" fill="white"/>
</g>
<defs>
<clipPath id="clip0_363_7401">
<rect width="215.324" height="107.662" fill="white" transform="translate(0.140625)"/>
</clipPath>
</defs>
</svg>
