<svg width="216" height="108" viewBox="0 0 216 108" fill="none" xmlns="http://www.w3.org/2000/svg">
<path d="M107.565 16.5632C108.077 18.123 108.549 19.5597 109.014 20.9979C110.883 26.7546 112.751 32.5133 114.617 38.2737C114.952 39.3061 114.929 39.3143 116.018 39.3143H137.953C138.171 39.3251 138.388 39.3473 138.604 39.3807L138.617 39.4801C138.49 39.5795 138.366 39.6704 138.238 39.7726L121.549 51.9714C121.079 52.3151 120.621 52.6754 120.162 53.0302C119.629 53.4443 119.582 53.6016 119.782 54.2241L125.027 70.4603C125.592 72.2086 126.155 73.9621 126.715 75.7206C126.757 75.8476 126.781 75.9815 126.837 76.2065C126.674 76.1071 126.581 76.0603 126.5 75.9996L108.32 62.7488C107.604 62.227 107.492 62.2271 106.758 62.7585L88.8899 75.7799C88.7188 75.9027 88.5421 76.0176 88.2936 76.1846C88.3071 76.0644 88.3275 75.945 88.3545 75.8271C88.959 73.9264 89.5291 72.0256 90.1944 70.1415C90.4453 69.5221 90.7989 68.9494 91.2405 68.4478C97.5296 60.8336 104.613 53.9123 112.371 47.8015C113.28 47.0755 114.221 46.3896 115.132 45.6718C115.313 45.51 115.482 45.3353 115.637 45.1488L115.568 45.0315C114.791 45.222 114.001 45.3587 113.241 45.5919C107.183 47.3085 101.384 49.831 95.9984 53.0922C95.8333 53.2198 95.6286 53.2855 95.4201 53.2772C95.2116 53.2688 95.0126 53.1871 94.8582 53.0467C88.8558 48.6114 82.8503 44.1846 76.8414 39.7658C76.7018 39.6514 76.5695 39.5282 76.4453 39.3972L76.4868 39.3005H99.3152C100.062 39.3005 100.157 39.2314 100.39 38.5109L107.34 17.1375C107.4 16.9884 107.467 16.8296 107.565 16.5632Z" fill="white"/>
<path d="M92.5352 91.6451C92.7256 91.1564 92.8927 90.6941 93.0873 90.2496C93.1228 90.2095 93.1674 90.1789 93.2174 90.1596C93.2673 90.1404 93.3212 90.1335 93.3744 90.1394C93.9044 90.2471 94.4248 90.4154 94.959 90.4885C95.6915 90.6447 96.4518 90.6104 97.1674 90.3891C97.3934 90.3227 97.5945 90.1905 97.7454 90.0097C97.8963 89.8288 97.9901 89.6073 98.0149 89.3731C98.0707 89.1229 98.0389 88.8611 97.9249 88.6314C97.8108 88.4018 97.6214 88.2185 97.3883 88.1118C96.7423 87.8012 96.0729 87.5417 95.4186 87.238C95.0117 87.0703 94.6145 86.8798 94.2288 86.6678C93.7218 86.3737 93.319 85.9289 93.0764 85.3954C92.8337 84.8618 92.7632 84.266 92.8748 83.6906C92.9443 82.9465 93.2761 82.2514 93.8108 81.7293C94.3455 81.2072 95.0485 80.8921 95.794 80.8404C96.7831 80.6842 97.7951 80.7654 98.7464 81.0776C99.5566 81.333 99.8162 81.9913 99.3773 82.6166C99.3294 82.7042 99.2516 82.7719 99.158 82.8067C99.0644 82.8414 98.9613 82.8412 98.8679 82.806C98.0015 82.5256 97.0845 82.4375 96.1806 82.5479C95.9457 82.593 95.7186 82.6724 95.5069 82.7838C95.3302 82.8712 95.1794 83.0036 95.0699 83.1676C94.9604 83.3316 94.896 83.5214 94.8831 83.7182C94.87 83.9149 94.9089 84.1115 94.9959 84.2884C95.0829 84.4652 95.2148 84.6161 95.3785 84.7258C95.8096 84.986 96.2595 85.2141 96.7244 85.4078C97.4959 85.7874 98.2979 86.0979 99.0322 86.5327C99.5139 86.8261 99.8899 87.2649 100.106 87.7859C100.322 88.3069 100.367 88.8829 100.234 89.4311C100.192 89.9779 99.9933 90.5013 99.6629 90.9391C99.3325 91.3769 98.8838 91.7108 98.3697 91.9018C97.259 92.3032 96.0651 92.418 94.8982 92.2358C94.2271 92.1354 93.5621 91.9974 92.9065 91.822C92.7788 91.7717 92.6547 91.7124 92.5352 91.6451Z" fill="white"/>
<path d="M112.832 91.5529C112.145 92.0075 111.344 92.2602 110.52 92.2828C109.831 92.3479 109.142 92.1618 108.58 91.7584C108.018 91.355 107.62 90.7618 107.462 90.0883C107.038 88.7659 107.061 87.3406 107.529 86.0331C107.762 85.3727 108.176 84.791 108.723 84.3542C109.271 83.9174 109.93 83.6431 110.625 83.5623C111.903 83.3862 113.203 83.4632 114.451 83.7888C114.715 83.844 114.671 84.0234 114.671 84.1932V90.1102C114.696 90.7038 114.869 90.8917 115.457 90.9635C115.921 91.0201 116.097 91.3776 115.768 91.7241C115.536 91.9641 115.234 92.1242 114.905 92.182C114.537 92.2957 114.143 92.2965 113.774 92.1844C113.405 92.0722 113.078 91.8524 112.835 91.5529H112.832ZM112.589 87.7224V85.9418C112.578 85.0294 112.755 85.1371 111.718 85.0791C111.27 85.0072 110.81 85.0916 110.416 85.3177C110.022 85.5437 109.717 85.898 109.553 86.3215C109.152 87.411 109.19 88.6133 109.658 89.6755C109.747 89.8935 109.89 90.085 110.074 90.2319C110.258 90.3788 110.477 90.4761 110.709 90.5146C111.243 90.6302 111.798 90.5823 112.304 90.3768C112.399 90.3483 112.482 90.2861 112.535 90.2016C112.589 90.1171 112.61 90.016 112.595 89.9171C112.58 89.1897 112.595 88.4499 112.595 87.717L112.589 87.7224Z" fill="white"/>
<path d="M106.836 91.7968C105.694 92.2892 104.423 92.4027 103.211 92.1209C102.757 91.9796 102.368 91.6819 102.114 91.2805C101.859 90.8791 101.755 90.4002 101.82 89.9292C101.82 88.4758 101.806 87.0196 101.82 85.5565C101.82 85.217 101.715 85.1051 101.391 85.1285C101.066 85.152 100.79 85.1285 100.398 85.1285C100.495 84.6648 100.564 84.2618 100.675 83.874C100.695 83.8036 100.905 83.7581 101.028 83.7553C101.765 83.7277 101.768 83.7346 101.816 82.9948C101.841 82.64 101.845 82.2852 101.881 81.936C101.892 81.8366 101.973 81.6793 102.048 81.66C102.637 81.5399 103.234 81.4489 103.886 81.3398C103.886 81.9651 103.906 82.5557 103.886 83.1437C103.87 83.5053 103.982 83.6323 104.354 83.6185C105.098 83.5937 105.845 83.6185 106.664 83.6185C106.583 84.0906 106.525 84.531 106.418 84.9644C106.398 85.0403 106.205 85.119 106.087 85.1232C105.557 85.1411 105.024 85.1232 104.494 85.1232C103.897 85.1232 103.897 85.1232 103.897 85.7388V89.1589C103.897 90.4011 104.321 90.767 105.562 90.5931C105.855 90.5516 106.223 90.4026 106.427 90.5351C106.632 90.6676 106.618 91.0527 106.704 91.3273C106.75 91.4737 106.785 91.6077 106.836 91.7968Z" fill="white"/>
<path d="M119.367 92.0257C118.702 92.0257 118.097 92.0381 117.493 92.0119C117.414 92.0119 117.286 91.8217 117.28 91.714C117.258 91.2213 117.269 90.7299 117.269 90.2343V85.8711C117.269 85.1119 117.119 84.7671 116.318 84.7961C116.234 84.7961 116.061 84.6247 116.075 84.5612C116.093 84.3207 116.179 84.0903 116.324 83.8974C116.666 83.6703 117.063 83.5412 117.473 83.5237C117.883 83.5061 118.291 83.6009 118.651 83.798C118.879 84.0074 119.087 84.2385 119.27 84.4881C119.712 84.0743 120.25 83.7779 120.836 83.6264C121.422 83.475 122.036 83.4734 122.623 83.6214C122.433 84.1735 122.271 84.7077 122.071 85.2295C122.045 85.2999 121.881 85.3495 121.795 85.3606C121.345 85.4116 120.889 85.4321 120.442 85.4984C120.247 85.5379 120.056 85.5978 119.872 85.6766C119.703 85.7225 119.557 85.8292 119.463 85.9762C119.368 86.1233 119.331 86.3002 119.359 86.4729C119.388 88.1679 119.37 89.8617 119.37 91.5553L119.367 92.0257Z" fill="white"/>
</svg>
