<svg width="32" height="32" viewBox="0 0 32 32" fill="none" xmlns="http://www.w3.org/2000/svg">
<path fill-rule="evenodd" clip-rule="evenodd" d="M22.035 4.00006L9.94288 4C5.71683 4 2.66797 7.41535 2.66797 11.812V20.188C2.66797 24.5847 5.71683 28 9.94288 28H22.0237C24.0536 27.9773 25.9749 27.1228 27.3514 25.6354C28.7279 24.1481 29.4394 22.1577 29.3204 20.1279L29.3221 11.812C29.4394 9.84228 28.7279 7.85193 27.3514 6.36459C25.9749 4.87725 24.0536 4.02273 22.035 4.00006ZM9.94288 6.0379L22.0125 6.03784C23.4777 6.0543 24.8723 6.67456 25.8714 7.75417C26.8706 8.83378 27.3871 10.2785 27.3006 11.7519L27.2989 20.188C27.3871 21.7215 26.8706 23.1662 25.8714 24.2458C24.8723 25.3254 23.4777 25.9457 22.0125 25.9622L9.94288 25.9621C6.88502 25.9621 4.69122 23.5046 4.69122 20.188V11.812C4.69122 8.4954 6.88502 6.0379 9.94288 6.0379ZM24.0329 11.5177C23.6837 11.0783 23.0471 11.0072 22.6109 11.3589L17.1452 15.7655L16.9886 15.8756C16.3441 16.2792 15.4979 16.242 14.8806 15.7573L9.37491 11.3563L9.251 11.2713C8.82397 11.0229 8.26937 11.1203 7.95363 11.521C7.60632 11.9618 7.67954 12.6027 8.11717 12.9526L13.6298 17.3592L13.8449 17.5166C15.2316 18.461 17.0693 18.4088 18.3993 17.3647L23.8753 12.9499L23.9851 12.8472C24.3208 12.4833 24.3503 11.9171 24.0329 11.5177Z" fill="#0C0C0C"/>
</svg>
