<svg width="32" height="32" viewBox="0 0 32 32" fill="none" xmlns="http://www.w3.org/2000/svg">
<path fill-rule="evenodd" clip-rule="evenodd" d="M8.62855 2.66832L8.66405 2.67061C9.36257 2.7285 9.96925 3.07564 10.5231 3.61675C11.5755 4.64466 13.8355 7.64424 14.0061 8.46056C14.195 9.37123 13.9931 9.96271 13.3912 11.009L13.2453 11.2669C12.9691 11.7713 12.9269 11.9796 13.0124 12.2181C14.3266 15.4344 16.5691 17.6767 19.7487 18.9753C20.0498 19.0844 20.2772 19.0219 20.9135 18.6568L21.2456 18.469C22.1402 17.9783 22.7072 17.8232 23.5433 17.9974C24.3568 18.1678 27.3581 20.4292 28.3844 21.4804C28.9248 22.0336 29.2727 22.6414 29.3333 23.3859C29.3971 25.1956 27.189 27.7436 25.842 28.5097C24.3102 29.6055 22.3662 29.5873 20.1866 28.5728C14.4868 26.201 5.76797 17.5379 3.44448 11.8451L3.30539 11.5267C2.42313 9.418 2.44225 7.59623 3.45328 6.22279C4.3758 4.69503 6.8631 2.58667 8.62855 2.66832ZM8.52127 4.61821L8.40373 4.62424C7.4976 4.74462 5.68048 6.30901 5.07534 7.30404L4.9708 7.45961C4.44949 8.30897 4.50991 9.47541 5.2357 11.0725L5.37441 11.3972C7.71511 16.6505 15.8195 24.6425 20.9729 26.7878L21.2568 26.914C22.7478 27.546 23.8764 27.5179 24.7902 26.87L24.8578 26.8265C25.1406 26.6301 25.7926 26.0376 26.2949 25.458C27.0003 24.644 27.3999 23.8982 27.387 23.5012C27.3729 23.3313 27.2419 23.1024 26.9894 22.8439C26.2264 22.0625 23.4516 19.9717 23.1449 19.9074C22.855 19.847 22.6169 19.9282 21.966 20.3026L21.6386 20.4866C20.6797 21.0037 20.0037 21.1427 19.0486 20.796C15.3473 19.2853 12.7195 16.6579 11.1928 12.9193C10.8312 11.9197 11.0259 11.2125 11.6547 10.1164L11.8046 9.85281C12.0902 9.33698 12.1507 9.11813 12.0969 8.85852C12.0324 8.55017 9.94297 5.77693 9.16055 5.01276C8.90146 4.75961 8.67381 4.62936 8.50342 4.61523L8.52127 4.61821Z" fill="#0C0C0C"/>
</svg>
