<svg width="26" height="26" viewBox="0 0 26 26" fill="none" xmlns="http://www.w3.org/2000/svg">
<path d="M6.50008 9.75H2.16675V22.75H6.50008V9.75Z" stroke="white" stroke-width="2" stroke-linecap="round" stroke-linejoin="round"/>
<path d="M17.3333 8.66797C19.0572 8.66797 20.7105 9.35279 21.9294 10.5718C23.1484 11.7908 23.8333 13.4441 23.8333 15.168V22.7513H19.4999V15.168C19.4999 14.5933 19.2716 14.0422 18.8653 13.6359C18.459 13.2296 17.9079 13.0013 17.3333 13.0013C16.7586 13.0013 16.2075 13.2296 15.8012 13.6359C15.3949 14.0422 15.1666 14.5933 15.1666 15.168V22.7513H10.8333V15.168C10.8333 13.4441 11.5181 11.7908 12.7371 10.5718C13.956 9.35279 15.6093 8.66797 17.3333 8.66797V8.66797Z" stroke="white" stroke-width="2" stroke-linecap="round" stroke-linejoin="round"/>
<path d="M4.33341 6.5013C5.53003 6.5013 6.50008 5.53125 6.50008 4.33464C6.50008 3.13802 5.53003 2.16797 4.33341 2.16797C3.1368 2.16797 2.16675 3.13802 2.16675 4.33464C2.16675 5.53125 3.1368 6.5013 4.33341 6.5013Z" stroke="white" stroke-width="2" stroke-linecap="round" stroke-linejoin="round"/>
</svg>
