<svg width="28" height="28" viewBox="0 0 28 28" fill="none" xmlns="http://www.w3.org/2000/svg">
<path d="M24.8901 5.26901C23.1643 9.57246 18.8384 15.4225 15.2186 18.325L13.0108 20.0957C12.7306 20.2975 12.4505 20.4768 12.1367 20.6C12.1367 20.3983 12.1255 20.1742 12.0919 19.9613C11.9686 19.0199 11.5427 18.1457 10.7919 17.3949C10.0298 16.6328 9.09961 16.1845 8.14702 16.0613C7.92289 16.05 7.69875 16.0276 7.47461 16.05C7.59789 15.7026 7.7884 15.3776 8.02375 15.1087L9.77202 12.9009C12.6634 9.28108 18.5358 4.93281 22.8281 3.21815C23.4893 2.9716 24.1281 3.15091 24.5315 3.56557C24.9574 3.98022 25.1591 4.61901 24.8901 5.26901Z" stroke="white" stroke-width="1.68103" stroke-linecap="round" stroke-linejoin="round"/>
<path d="M12.136 20.601C12.136 21.8338 11.6653 23.0105 10.78 23.9071C10.0964 24.5907 9.16618 25.0614 8.0567 25.2071L5.2998 25.5096C3.79808 25.6778 2.50929 24.4002 2.6886 22.876L2.99118 20.1191C3.26015 17.6648 5.31101 16.0959 7.48515 16.051C7.70929 16.0398 7.94463 16.051 8.15756 16.0622C9.11015 16.1855 10.0403 16.6226 10.8024 17.3959C11.5533 18.1467 11.9791 19.0209 12.1024 19.9622C12.1136 20.1752 12.136 20.3881 12.136 20.601Z" stroke="white" stroke-width="1.68103" stroke-linecap="round" stroke-linejoin="round"/>
<path d="M16.4068 17.0701C16.4068 14.1451 14.031 11.7693 11.106 11.7693" stroke="white" stroke-width="1.68103" stroke-linecap="round" stroke-linejoin="round"/>
</svg>
