<svg width="28" height="28" viewBox="0 0 28 28" fill="none" xmlns="http://www.w3.org/2000/svg">
<path d="M10.5346 21.0259C11.463 21.0259 12.2156 21.7785 12.2156 22.7069C12.2156 23.6353 11.463 24.3879 10.5346 24.3879C9.60614 24.3879 8.85352 23.6353 8.85352 22.7069C8.85352 21.7785 9.60614 21.0259 10.5346 21.0259Z" stroke="white" stroke-width="1.68103"/>
<path d="M18.3793 21.0259C19.3077 21.0259 20.0603 21.7785 20.0603 22.7069C20.0603 23.6353 19.3077 24.3879 18.3793 24.3879C17.4509 24.3879 16.6982 23.6353 16.6982 22.7069C16.6982 21.7785 17.4509 21.0259 18.3793 21.0259Z" stroke="white" stroke-width="1.68103"/>
<path d="M6.89258 14.3018C6.89258 12.6932 6.89436 11.5712 7.00818 10.7247C7.11873 9.90239 7.32096 9.46692 7.63112 9.15676C7.94129 8.8466 8.37675 8.64437 9.19909 8.53381C10.0456 8.41999 11.1675 8.41821 12.7762 8.41821H16.0455C17.9136 8.41821 19.2243 8.42022 20.1985 8.55849C21.1494 8.69345 21.6245 8.93946 21.9383 9.3099C22.2521 9.68033 22.4167 10.1894 22.3935 11.1495C22.3698 12.1332 22.1561 13.4265 21.8491 15.2691C21.6219 16.6321 21.4628 17.5774 21.2519 18.286C21.0477 18.972 20.8221 19.335 20.5235 19.5879C20.2249 19.8408 19.8298 20.0037 19.1195 20.0923C18.3859 20.1839 17.4274 20.1855 16.0455 20.1855H12.7762C11.1675 20.1855 10.0456 20.1837 9.19909 20.0699C8.37675 19.9593 7.94129 19.7571 7.63112 19.4469C7.32096 19.1367 7.11873 18.7013 7.00818 17.879C6.89436 17.0324 6.89258 15.9105 6.89258 14.3018Z" stroke="white" stroke-width="1.68103"/>
<path d="M6.89224 13.7414V6.45696C6.89224 5.21908 5.88874 4.21558 4.65086 4.21558H3.25" stroke="white" stroke-width="1.68103" stroke-linecap="round"/>
</svg>
