<svg width="28" height="28" viewBox="0 0 28 28" fill="none" xmlns="http://www.w3.org/2000/svg">
<path d="M27.205 8.37347C27.1823 7.24157 26.968 6.12171 26.571 5.06147C26.2292 4.15153 25.693 3.32705 25 2.64547C24.3178 1.95103 23.4923 1.41386 22.581 1.07147C21.5208 0.674455 20.4009 0.460084 19.269 0.437469C17.814 0.371469 17.349 0.355469 13.644 0.355469C9.939 0.355469 9.473 0.371469 8.018 0.437469C6.88644 0.460254 5.76693 0.674622 4.707 1.07147C3.79643 1.41406 2.97157 1.95122 2.29 2.64547C1.5959 3.32677 1.05875 4.15127 0.716 5.06147C0.319005 6.1217 0.104634 7.24157 0.082 8.37347C0.016 9.82847 0 10.2935 0 13.9985C0 17.7035 0.016 18.1685 0.082 19.6235C0.104596 20.7554 0.318968 21.8752 0.716 22.9355C1.05818 23.8471 1.59537 24.673 2.29 25.3555C2.97153 26.0498 3.7964 26.5869 4.707 26.9295C5.76721 27.3266 6.88709 27.5409 8.019 27.5635C9.474 27.6295 9.939 27.6455 13.644 27.6455C17.349 27.6455 17.814 27.6295 19.269 27.5635C20.4009 27.5409 21.5208 27.3265 22.581 26.9295C23.4873 26.579 24.3104 26.0431 24.9975 25.356C25.6846 24.6689 26.2205 23.8458 26.571 22.9395C26.968 21.8792 27.1824 20.7594 27.205 19.6275C27.271 18.1725 27.287 17.7075 27.287 14.0025C27.287 10.2975 27.271 9.82847 27.205 8.37347ZM24.749 19.5125C24.7386 20.3775 24.5796 21.2343 24.279 22.0455C24.0521 22.634 23.7046 23.1685 23.2587 23.6145C22.8128 24.0606 22.2784 24.4084 21.69 24.6355C20.8788 24.9361 20.022 25.0951 19.157 25.1055C17.719 25.1715 17.287 25.1855 13.644 25.1855C10.001 25.1855 9.569 25.1715 8.131 25.1055C7.26665 25.0948 6.41055 24.9359 5.6 24.6355C5.00728 24.4166 4.47114 24.0678 4.031 23.6145C3.5766 23.1747 3.22667 22.6385 3.007 22.0455C2.70635 21.2343 2.54737 20.3775 2.537 19.5125C2.471 18.0735 2.457 17.6425 2.457 13.9995C2.457 10.3565 2.471 9.92447 2.537 8.48647C2.5477 7.62212 2.70668 6.76603 3.007 5.95547C3.22549 5.36171 3.57439 4.82452 4.028 4.38347C4.46902 3.93006 5.00624 3.58148 5.6 3.36347C6.41116 3.06278 7.26797 2.9038 8.133 2.89347C9.572 2.82747 10.003 2.81347 13.646 2.81347C17.289 2.81347 17.721 2.82747 19.159 2.89347C20.024 2.90386 20.8808 3.06284 21.692 3.36347C22.2847 3.58235 22.8208 3.93123 23.261 4.38447C23.7136 4.8254 24.0614 5.36225 24.279 5.95547C24.5798 6.7666 24.7388 7.62343 24.749 8.48847C24.815 9.92747 24.829 10.3585 24.829 14.0015C24.829 17.6445 24.815 18.0735 24.749 19.5125Z" fill="#747474"/>
<path d="M13.6466 6.99414C12.261 6.99414 10.9064 7.40504 9.7543 8.17487C8.60217 8.94469 7.7042 10.0389 7.17393 11.3191C6.64366 12.5992 6.50492 14.0079 6.77525 15.3669C7.04557 16.726 7.71283 17.9743 8.69264 18.9541C9.67244 19.9339 10.9208 20.6012 12.2798 20.8715C13.6388 21.1418 15.0475 21.0031 16.3277 20.4728C17.6079 19.9426 18.7021 19.0446 19.4719 17.8925C20.2417 16.7403 20.6526 15.3858 20.6526 14.0001C20.6526 12.142 19.9145 10.36 18.6006 9.04615C17.2867 7.73227 15.5047 6.99414 13.6466 6.99414ZM13.6466 18.5481C12.7471 18.5481 11.8678 18.2814 11.1199 17.7817C10.372 17.2819 9.78904 16.5716 9.44482 15.7406C9.10059 14.9095 9.01053 13.9951 9.18601 13.1129C9.3615 12.2306 9.79465 11.4203 10.4307 10.7842C11.0667 10.1482 11.8771 9.71501 12.7594 9.53953C13.6416 9.36404 14.556 9.4541 15.3871 9.79833C16.2181 10.1426 16.9284 10.7255 17.4281 11.4734C17.9279 12.2213 18.1946 13.1006 18.1946 14.0001C18.1946 15.2063 17.7155 16.3631 16.8625 17.2161C16.0096 18.069 14.8528 18.5481 13.6466 18.5481Z" fill="#747474"/>
<path d="M22.5631 6.71708C22.5631 7.04085 22.467 7.35735 22.2872 7.62655C22.1073 7.89575 21.8516 8.10557 21.5525 8.22947C21.2534 8.35337 20.9243 8.38579 20.6067 8.32262C20.2892 8.25946 19.9975 8.10355 19.7685 7.87461C19.5396 7.64567 19.3837 7.35398 19.3205 7.03644C19.2574 6.71889 19.2898 6.38974 19.4137 6.09062C19.5376 5.7915 19.7474 5.53584 20.0166 5.35596C20.2858 5.17609 20.6023 5.08008 20.9261 5.08008C21.3602 5.08008 21.7766 5.25255 22.0836 5.55955C22.3906 5.86654 22.5631 6.28292 22.5631 6.71708Z" fill="#747474"/>
</svg>
