<svg width="27" height="26" viewBox="0 0 27 26" fill="none" xmlns="http://www.w3.org/2000/svg">
<path d="M26.4362 25.9984H26.4422V16.8294C26.4422 12.3444 25.4762 8.8884 20.2332 8.8884C19.249 8.85242 18.2736 9.08406 17.4107 9.55865C16.5478 10.0332 15.8298 10.733 15.3332 11.5834H15.2602V9.3074H10.2852V25.9974H15.4622V17.7334C15.4622 15.5574 15.8752 13.4534 18.5692 13.4534C21.2242 13.4534 21.2642 15.9364 21.2642 17.8734V25.9994L26.4362 25.9984Z" fill="#747474"/>
<path d="M0.855469 9.30859H6.03447V25.9996H0.855469V9.30859Z" fill="#747474"/>
<path d="M3.44212 4.22357e-05C2.84426 -0.00312111 2.25895 0.171476 1.76052 0.501658C1.2621 0.83184 0.873055 1.30271 0.6428 1.85446C0.412546 2.40621 0.351471 3.01395 0.467334 3.60048C0.583196 4.18701 0.870767 4.72588 1.29352 5.14863C1.71628 5.57139 2.25515 5.85896 2.84168 5.97482C3.42821 6.09069 4.03595 6.02961 4.5877 5.79936C5.13945 5.5691 5.61032 5.18006 5.9405 4.68164C6.27068 4.18321 6.44528 3.5979 6.44212 3.00004C6.44212 2.20439 6.12604 1.44133 5.56344 0.878722C5.00083 0.316113 4.23777 4.22357e-05 3.44212 4.22357e-05Z" fill="#747474"/>
</svg>
