<svg width="24" height="24" viewBox="0 0 24 24" fill="none" xmlns="http://www.w3.org/2000/svg">
<path d="M17.0066 11.2696C16.9165 11.2283 16.8249 11.1886 16.7322 11.1505C16.5707 8.30606 14.9448 6.6776 12.2147 6.66094C12.2023 6.66086 12.19 6.66086 12.1776 6.66086C10.5446 6.66086 9.18653 7.32718 8.35062 8.53966L9.8521 9.52425C10.4766 8.61857 11.4566 8.4255 12.1783 8.4255C12.1867 8.4255 12.195 8.4255 12.2033 8.42557C13.1022 8.43105 13.7806 8.6809 14.2196 9.16813C14.5391 9.52284 14.7528 10.013 14.8586 10.6316C14.0616 10.5022 13.1996 10.4623 12.2782 10.5128C9.68251 10.6558 8.0138 12.1029 8.12588 14.1137C8.18275 15.1337 8.71432 16.0112 9.62261 16.5845C10.3906 17.0691 11.3796 17.306 12.4076 17.2524C13.7651 17.1812 14.83 16.6861 15.573 15.7808C16.1372 15.0933 16.4941 14.2024 16.6517 13.0798C17.2986 13.453 17.7781 13.9442 18.0429 14.5346C18.4932 15.5382 18.5194 17.1875 17.1116 18.5321C15.8782 19.71 14.3956 20.2196 12.1549 20.2353C9.66938 20.2177 7.78962 19.4557 6.56745 17.9705C5.42299 16.5798 4.83152 14.571 4.80946 12C4.83152 9.42894 5.42299 7.42017 6.56745 6.02945C7.78962 4.54426 9.66935 3.78229 12.1549 3.76464C14.6584 3.78243 16.5709 4.54806 17.8399 6.04042C18.4621 6.77225 18.9312 7.69258 19.2405 8.76566L21 8.3169C20.6251 6.99606 20.0353 5.85789 19.2326 4.91396C17.6058 3.0007 15.2266 2.02033 12.161 2H12.1487C9.08938 2.02026 6.73679 3.00435 5.15632 4.92493C3.74992 6.634 3.02445 9.01205 3.00008 11.993L3 12L3.00008 12.007C3.02445 14.9879 3.74992 17.366 5.15632 19.0751C6.73679 20.9956 9.08938 21.9798 12.1487 22H12.161C14.8809 21.982 16.7981 21.3013 18.3775 19.7928C20.4439 17.8194 20.3817 15.3457 19.7006 13.8272C19.212 12.7382 18.2805 11.8538 17.0066 11.2696ZM12.3104 15.4903C11.1728 15.5516 9.99087 15.0634 9.93259 14.0179C9.88939 13.2427 10.5097 12.3777 12.3802 12.2747C12.5944 12.2629 12.8046 12.2571 13.0111 12.2571C13.6906 12.2571 14.3262 12.3202 14.904 12.4409C14.6885 15.0141 13.4242 15.4319 12.3104 15.4903Z" fill="#747474"/>
</svg>
