<svg width="32" height="26" viewBox="0 0 32 26" fill="none" xmlns="http://www.w3.org/2000/svg">
<path d="M31.4121 3.35165C30.2411 3.86181 29.0027 4.20063 27.7351 4.35765C29.0709 3.56518 30.0696 2.31026 30.5421 0.830653C29.2913 1.57225 27.9229 2.09445 26.4961 2.37465C25.6211 1.4403 24.4854 0.790731 23.2364 0.510375C21.9874 0.230019 20.683 0.33184 19.4927 0.802604C18.3023 1.27337 17.2811 2.0913 16.5618 3.1501C15.8424 4.2089 15.4582 5.45961 15.4591 6.73965C15.4541 7.22865 15.5037 7.71667 15.6071 8.19466C13.0688 8.07009 10.5855 7.41124 8.31929 6.26118C6.05312 5.11112 4.05517 3.49575 2.45606 1.52065C1.6348 2.92438 1.38042 4.58869 1.74488 6.17366C2.10934 7.75862 3.06514 9.14465 4.41706 10.0487C3.40652 10.0201 2.41768 9.74882 1.53406 9.25766V9.32765C1.53595 10.8009 2.04527 12.2286 2.97632 13.3703C3.90738 14.5121 5.20332 15.2983 6.64606 15.5967C6.10017 15.7405 5.53757 15.8111 4.97306 15.8067C4.56765 15.8138 4.16264 15.7773 3.76506 15.6977C4.1765 16.965 4.97084 18.0735 6.03862 18.8705C7.1064 19.6675 8.39507 20.1137 9.72706 20.1477C7.46851 21.9137 4.68314 22.8718 1.81606 22.8687C1.30573 22.8723 0.795683 22.8432 0.289062 22.7817C3.20662 24.6616 6.60632 25.656 10.0771 25.6447C21.8181 25.6447 28.2371 15.9187 28.2371 7.48865C28.2371 7.20665 28.2271 6.93465 28.2141 6.66365C29.4725 5.76322 30.5562 4.64086 31.4121 3.35165Z" fill="#747474"/>
</svg>
