<svg width="37" height="26" viewBox="0 0 37 26" fill="none" xmlns="http://www.w3.org/2000/svg">
<path d="M35.8134 4.31442C35.6069 3.55207 35.2044 2.85705 34.646 2.29846C34.0876 1.73988 33.3927 1.33719 32.6304 1.13042C29.8044 0.357422 18.4994 0.357422 18.4994 0.357422C18.4994 0.357422 7.19441 0.357422 4.36841 1.10142C3.60681 1.31897 2.91399 1.7288 2.35655 2.29149C1.79911 2.85418 1.3958 3.55082 1.18541 4.31442C0.441406 7.14042 0.441406 13.0014 0.441406 13.0014C0.441406 13.0014 0.441406 18.8914 1.18541 21.6884C1.39218 22.4505 1.79475 23.1453 2.35313 23.7037C2.91152 24.2621 3.60628 24.6647 4.36841 24.8714C7.22441 25.6444 18.4994 25.6444 18.4994 25.6444C18.4994 25.6444 29.7994 25.6444 32.6304 24.9004C33.3926 24.6937 34.0874 24.2912 34.6458 23.7328C35.2042 23.1744 35.6067 22.4796 35.8134 21.7174C36.5574 18.8914 36.5574 13.0304 36.5574 13.0304C36.5574 13.0304 36.5874 7.14042 35.8134 4.31442Z" fill="#747474"/>
<path d="M14.9023 18.4159L24.3024 13.0019L14.9023 7.58789V18.4159Z" fill="#FBFBFC"/>
</svg>
