<svg xmlns="http://www.w3.org/2000/svg" width="239" height="41" viewBox="0 0 239 41" fill="none">
<path d="M5.87561 36.0039H0.448832L11.2208 6.177H16.566L27.3379 36.0039H21.8295L19.4222 29.1082H8.28298L5.87561 36.0039ZM13.2201 15.072L9.83349 24.7015H17.9125L14.485 15.072C14.2402 14.2968 13.9546 13.3991 13.873 12.7871C13.7506 13.3583 13.5058 14.256 13.2201 15.072ZM42.9925 15.7657V20.3764H41.1564C37.5657 20.3764 35.3216 22.2941 35.3216 26.2112V36.0039H30.3436V15.8881H35.036L35.3216 18.8259C36.1784 16.8266 38.0962 15.4801 40.7892 15.4801C41.4828 15.4801 42.1765 15.5617 42.9925 15.7657ZM51.563 36.5343C47.2787 36.5343 44.6674 34.0454 44.6674 30.2507C44.6674 26.5376 47.3603 24.2119 52.1343 23.8446L58.1731 23.3958V22.947C58.1731 20.2132 56.541 19.1115 54.0112 19.1115C51.0734 19.1115 49.4413 20.3356 49.4413 22.4574H45.1978C45.1978 18.0914 48.7884 15.2352 54.256 15.2352C59.6828 15.2352 63.0286 18.173 63.0286 23.763V36.0039H58.6627L58.2955 33.0253C57.4387 35.1062 54.7049 36.5343 51.563 36.5343ZM53.1952 32.7805C56.2554 32.7805 58.2139 30.9443 58.2139 27.8433V26.7825L54.0112 27.1089C50.9102 27.3945 49.7269 28.4146 49.7269 30.0467C49.7269 31.8828 50.951 32.7805 53.1952 32.7805ZM72.5297 36.0039H67.9189V5.64657H72.8969V18.7851C74.2026 16.5409 76.8956 15.1944 79.9558 15.1944C85.709 15.1944 89.218 19.6828 89.218 26.048C89.218 32.25 85.4234 36.5343 79.6294 36.5343C76.61 36.5343 74.0394 35.1878 72.8561 32.8621L72.5297 36.0039ZM72.9377 25.844C72.9377 29.4754 75.1819 31.9644 78.6093 31.9644C82.1183 31.9644 84.1993 29.4346 84.1993 25.844C84.1993 22.2533 82.1183 19.6828 78.6093 19.6828C75.1819 19.6828 72.9377 22.2125 72.9377 25.844Z" fill="white"/>
<path d="M114.213 36.0039H105.318V6.78905H114.131C122.945 6.78905 128.82 12.6647 128.82 21.3965C128.82 30.1283 122.986 36.0039 114.213 36.0039ZM114.009 9.48204H108.256V33.3109H114.091C121.231 33.3109 125.801 28.6594 125.801 21.3965C125.801 14.0928 121.231 9.48204 114.009 9.48204ZM143.838 16.0105V18.5403H142.288C138.656 18.5403 136.33 20.9884 136.33 24.7423V36.0039H133.515V16.2553H136.167L136.371 19.3155C137.146 17.1938 139.227 15.8065 142.002 15.8065C142.614 15.8065 143.144 15.8473 143.838 16.0105ZM155.107 36.4935C149.313 36.4935 145.436 32.3316 145.436 26.1296C145.436 19.9684 149.272 15.7249 154.903 15.7249C160.248 15.7249 163.879 19.5195 163.879 25.1095V26.4968H148.17C148.374 31.3116 150.904 34.0862 155.148 34.0862C158.371 34.0862 160.452 32.6989 161.186 30.0875H163.879C162.818 34.2494 159.758 36.4935 155.107 36.4935ZM154.903 18.1322C151.19 18.1322 148.741 20.5804 148.252 24.4567H161.064C161.064 20.662 158.616 18.1322 154.903 18.1322ZM173.853 36.4935C169.65 36.4935 167.161 34.127 167.161 30.6587C167.161 27.0273 169.936 24.7423 174.547 24.3751L181.075 23.8446V23.1918C181.075 19.3155 178.749 18.0914 175.852 18.0914C172.425 18.0914 170.385 19.642 170.385 22.2941H167.814C167.814 18.2955 171.078 15.7249 175.934 15.7249C180.504 15.7249 183.85 18.0098 183.85 23.2326V36.0039H181.483L181.116 32.5357C179.892 35.0246 177.199 36.4935 173.853 36.4935ZM174.506 34.2086C178.668 34.2086 181.075 31.3116 181.075 27.0273V25.9664L175.24 26.4152C171.527 26.7417 170.018 28.3738 170.018 30.5771C170.018 32.9845 171.813 34.2086 174.506 34.2086ZM192.315 36.0039H189.499V16.2553H191.948L192.274 19.0707C193.253 16.9898 195.457 15.7249 198.231 15.7249C201.332 15.7249 203.658 17.357 204.596 19.9276C205.494 17.357 207.901 15.7249 211.084 15.7249C215.368 15.7249 218.184 18.4995 218.184 23.0694V36.0039H215.45V23.6406C215.45 20.254 213.573 18.2547 210.554 18.2547C207.249 18.2547 205.29 20.7436 205.29 23.8038V36.0039H202.516V23.5998C202.516 20.254 200.598 18.2955 197.619 18.2955C194.314 18.2955 192.315 20.7436 192.315 23.763V36.0039ZM221.935 30.4547H224.628C224.628 32.7397 226.342 34.1678 229.116 34.1678C232.177 34.1678 233.972 32.8621 233.972 30.7403C233.972 29.1082 233.156 28.1698 230.83 27.5985L227.444 26.7417C224.016 25.8848 222.343 24.0895 222.343 21.3965C222.343 17.9282 225.24 15.7249 229.484 15.7249C233.646 15.7249 236.339 18.0098 236.461 21.6821H233.727C233.646 19.3971 232.054 18.0506 229.402 18.0506C226.627 18.0506 225.077 19.2339 225.077 21.3557C225.077 22.8654 226.138 23.9263 228.3 24.4567L231.687 25.3136C235.114 26.1704 236.665 27.7617 236.665 30.6179C236.665 34.1678 233.646 36.4935 229.157 36.4935C224.71 36.4935 221.935 34.127 221.935 30.4547Z" fill="#9852F1"/>
</svg>