<svg width="89" height="52" viewBox="0 0 89 52" fill="none" xmlns="http://www.w3.org/2000/svg">
<path fill-rule="evenodd" clip-rule="evenodd" d="M8.79827 0.998751C8.79827 0.931757 8.79528 0.870188 8.7903 0.812229V0.140625H9.34974e-05V14.6661H0.0029385C0.0029385 16.9829 0.00279517 19.2998 0.00279517 21.6168C0.00179887 21.6168 0.000944132 21.6168 0.00023249 21.6168C0.00023249 28.4803 -0.000764435 35.3436 0.00137049 42.2071C0.00151282 42.3085 0.00208391 42.3973 0.00407651 42.4779V43.1368H8.79428V37.4443H8.78973C8.78902 25.2957 8.78702 13.1472 8.79827 0.998751Z" fill="#F6F6F6"/>
<path fill-rule="evenodd" clip-rule="evenodd" d="M30.8701 31.6413H30.8809C30.8823 32.3425 30.8826 33.0438 30.887 33.7451C30.8903 34.306 30.7225 34.6422 30.0786 34.5776C27.5683 34.3253 25.4886 33.2832 23.9118 31.3432C22.5596 29.6796 22.0006 27.7686 22.0056 25.6526C22.0141 21.9961 22.0161 18.3397 22.0162 14.6831H22.0248V0.157715H13.2344V14.6831H13.2368C13.2366 18.3013 13.2299 21.9196 13.2398 25.5381C13.2506 29.5034 14.2442 33.1621 16.7867 36.3419C18.7034 38.7394 21.0542 40.6034 23.914 41.7991C26.2529 42.777 28.7393 43.1277 31.2755 43.1379C33.7901 43.148 36.3049 43.1366 38.8192 43.1593C39.4118 43.1647 39.6625 42.9866 39.6603 42.3692C39.6473 38.7932 39.6456 35.2172 39.6487 31.6412H39.6603V25.9488H30.8699L30.8701 31.6413Z" fill="#F6F6F6"/>
<path fill-rule="evenodd" clip-rule="evenodd" d="M88.1749 37.4604C88.1711 32.2093 88.1713 26.9582 88.171 21.7071C88.1706 14.8214 88.1669 7.93558 88.1777 1.04988C88.1787 0.484884 88.0894 0.133237 87.3827 0.140743C84.5983 0.170904 81.8135 0.139353 79.0296 0.177297C74.1379 0.244012 70.0035 2.05213 66.5966 5.45794C66.197 5.8574 65.9029 5.86546 65.5488 5.4521C65.4056 5.28476 65.2316 5.14229 65.0687 4.99149C61.9951 2.14275 58.4011 0.397873 54.1205 0.25374C51.0699 0.151026 48.0145 0.191889 44.9614 0.149498C44.3108 0.140463 44.1127 0.406215 44.1133 1.02097C44.125 13.1622 44.1245 25.3035 44.1251 37.4445H44.1133V43.137H46.4022C48.3451 43.1398 50.2882 43.1429 52.2311 43.1498C52.2935 43.1499 52.3503 43.1452 52.4031 43.137H52.9035V37.4445H52.8781C52.878 28.1652 52.8779 18.8859 52.8779 9.60637C52.8779 8.78772 52.9896 8.68654 53.8111 8.7552C57.1975 9.03805 60.4737 11.6287 61.3216 14.8506C61.6237 15.9985 61.7115 17.2266 61.7162 18.4188C61.7412 24.7607 61.7348 15.6747 61.7304 22.0167H61.7284V25.5314C61.7284 25.9342 61.7279 26.3372 61.7279 26.74C61.7279 26.7666 61.7283 26.7904 61.7284 26.8156V27.709H62.6728C62.6944 27.7091 62.7143 27.7094 62.737 27.7094C63.1412 27.7087 63.5454 27.7093 63.9496 27.709H66.7387C67.6279 27.7098 68.5172 27.7108 69.4063 27.7118C69.543 27.7119 69.6617 27.7116 69.7659 27.709H70.4819V26.7238C70.4819 26.6938 70.482 26.6657 70.482 26.6339C70.4813 19.1561 70.4795 27.1059 70.4828 19.6283C70.483 18.6199 70.4618 17.6085 70.5314 16.6037C70.8154 12.5129 74.2935 9.08266 78.4429 8.76409C79.289 8.69905 79.3811 8.77855 79.3817 9.60874C79.3837 12.2621 79.3843 14.9155 79.3826 17.5688C79.3784 24.1994 79.374 30.8299 79.3636 37.4604H79.3608V39.3376C79.3591 40.3706 79.3585 41.4031 79.3564 42.4361C79.3564 42.4786 79.3581 42.5178 79.3608 42.5553V43.1527H88.1789V37.4604H88.1749Z" fill="#F6F6F6"/>
<path d="M70.4931 30.584H61.7305V43.0236H70.4931V30.584Z" fill="#F6F6F6"/>
<path d="M33.065 48.9488H32.5449V50.0857H32.0742V47.2837H33.065C33.7462 47.2837 34.0806 47.6627 34.0806 48.1183C34.0806 48.5172 33.8123 48.9488 33.065 48.9488ZM33.065 48.5738C33.4325 48.5738 33.5976 48.4005 33.5976 48.1183C33.5976 47.828 33.4325 47.6587 33.065 47.6587H32.5449V48.5738H33.065Z" fill="#F6F6F6"/>
<path d="M35.5145 50.1202C34.8662 50.1202 34.375 49.6688 34.375 48.9712C34.375 48.2736 34.887 47.8262 35.535 47.8262C36.1833 47.8262 36.6951 48.2737 36.6951 48.9712C36.6951 49.6686 36.1668 50.1202 35.5145 50.1202ZM35.5145 49.7212C35.8655 49.7212 36.2122 49.4752 36.2122 48.9712C36.2122 48.4672 35.8777 48.2254 35.5269 48.2254C35.1717 48.2254 34.8538 48.4672 34.8538 48.9712C34.8538 49.4752 35.1594 49.7212 35.5145 49.7212Z" fill="#F6F6F6"/>
<path d="M36.8945 47.8643H37.3735L37.8481 49.6503L38.3313 47.8643H38.8225L39.2849 49.6422L39.7556 47.8643H40.218L39.5121 50.0856H39.0167L38.5584 48.4447L38.1001 50.0856H37.6047L36.8945 47.8643Z" fill="#F6F6F6"/>
<path d="M41.5455 50.1202C40.8932 50.1202 40.4102 49.6688 40.4102 48.9712C40.4102 48.2736 40.8726 47.8262 41.5455 47.8262C42.1938 47.8262 42.652 48.2657 42.652 48.9188C42.652 48.9954 42.6478 49.0679 42.6355 49.1445H40.8973C40.9304 49.5114 41.1987 49.7331 41.5455 49.7331C41.8346 49.7331 41.9956 49.5961 42.0822 49.4227H42.5899C42.4621 49.8098 42.1029 50.1202 41.5455 50.1202ZM40.9016 48.7737H42.1608C42.1525 48.4311 41.876 48.2134 41.525 48.2134C41.2071 48.2134 40.951 48.4229 40.9016 48.7737Z" fill="#F6F6F6"/>
<path d="M43.5879 50.0841H43.1172V47.8626H43.5879V48.185C43.7199 47.9632 43.947 47.8262 44.2691 47.8262V48.3019H44.1494C43.8024 48.3019 43.5879 48.4432 43.5879 48.9147V50.0841Z" fill="#F6F6F6"/>
<path d="M45.6783 50.1202C45.026 50.1202 44.543 49.6688 44.543 48.9712C44.543 48.2736 45.0054 47.8262 45.6783 47.8262C46.3266 47.8262 46.7848 48.2657 46.7848 48.9188C46.7848 48.9954 46.7807 49.0679 46.7683 49.1445H45.0302C45.0632 49.5114 45.3315 49.7331 45.6783 49.7331C45.9674 49.7331 46.1284 49.5961 46.215 49.4227H46.7227C46.5949 49.8098 46.2357 50.1202 45.6783 50.1202ZM45.0344 48.7737H46.2936C46.2854 48.4311 46.0088 48.2134 45.6578 48.2134C45.3399 48.2134 45.084 48.4229 45.0344 48.7737Z" fill="#F6F6F6"/>
<path d="M48.1674 47.8272C48.4646 47.8272 48.7784 47.9643 48.9518 48.174V47.1016H49.4266V50.085H48.9518V49.7504C48.8073 49.952 48.5348 50.1213 48.1633 50.1213C47.5647 50.1213 47.0898 49.6495 47.0898 48.9643C47.0897 48.2788 47.5645 47.8272 48.1674 47.8272ZM48.2624 48.2264C47.9114 48.2264 47.5728 48.4844 47.5728 48.9643C47.5728 49.444 47.9114 49.7222 48.2624 49.7222C48.6173 49.7222 48.9518 49.4522 48.9518 48.9722C48.9516 48.4966 48.6173 48.2264 48.2624 48.2264Z" fill="#F6F6F6"/>
<path d="M52.2687 50.0857H51.1211V47.2837H52.2152C52.8221 47.2837 53.144 47.6103 53.144 48.0053C53.144 48.344 52.9335 48.5496 52.6568 48.6464C52.9623 48.6988 53.2102 48.997 53.2102 49.3319C53.2101 49.7591 52.8549 50.0857 52.2687 50.0857ZM52.1738 47.6587H51.5916V48.4609H52.1738C52.4792 48.4609 52.6651 48.3197 52.6651 48.0618C52.6651 47.8078 52.4792 47.6587 52.1738 47.6587ZM52.2108 48.8358H51.5915V49.7107H52.2273C52.5451 49.7107 52.7392 49.5534 52.7392 49.2833C52.7392 49.0052 52.5246 48.8358 52.2108 48.8358Z" fill="#F6F6F6"/>
<path d="M55.2783 47.8643H55.7653L54.3699 51.1298H53.8828L54.3452 50.0495L53.4492 47.8643H53.9736L54.6135 49.5576L55.2783 47.8643Z" fill="#F6F6F6"/>
<path d="M58.1861 47.2838C58.8672 47.2838 59.2017 47.6669 59.2017 48.1225C59.2017 48.453 59.0202 48.8079 58.537 48.9246L59.2471 50.0857H58.6858L58.0251 48.9651H57.666V50.0857H57.1953V47.2837H58.1861V47.2838ZM58.1861 47.659H57.666V48.5984H58.1861C58.5536 48.5984 58.7187 48.4008 58.7187 48.1226C58.7187 47.8402 58.5536 47.659 58.1861 47.659Z" fill="#F6F6F6"/>
<path d="M61.8622 50.0866H61.3914V49.8206C61.2428 50.01 60.9869 50.1188 60.7185 50.1188C60.1859 50.1188 59.7812 49.7922 59.7812 49.1713V47.8652H60.2478V49.1028C60.2478 49.51 60.4748 49.7196 60.8175 49.7196C61.1644 49.7196 61.3913 49.5099 61.3913 49.1028V47.8652H61.8621L61.8622 50.0866Z" fill="#F6F6F6"/>
<path d="M63.7438 47.8262C64.3424 47.8262 64.8131 48.2778 64.8131 48.9633C64.8131 49.6486 64.3424 50.1202 63.7438 50.1202C63.368 50.1202 63.0997 49.9348 62.9512 49.7615V51.1403H62.4805V47.8626H62.9512V48.1892C63.0955 48.0037 63.3723 47.8262 63.7438 47.8262ZM63.6404 48.2254C63.2896 48.2254 62.951 48.4954 62.951 48.9712C62.951 49.451 63.2896 49.7212 63.6404 49.7212C63.9956 49.7212 64.334 49.4429 64.334 48.9633C64.334 48.4835 63.9957 48.2254 63.6404 48.2254Z" fill="#F6F6F6"/>
<path d="M66.5446 47.8262C67.1432 47.8262 67.6139 48.2778 67.6139 48.9633C67.6139 49.6486 67.1432 50.1202 66.5446 50.1202C66.1688 50.1202 65.9005 49.9348 65.7519 49.7615V51.1403H65.2812V47.8626H65.7519V48.1892C65.8963 48.0037 66.1731 47.8262 66.5446 47.8262ZM66.4414 48.2254C66.0905 48.2254 65.7519 48.4954 65.7519 48.9712C65.7519 49.451 66.0905 49.7212 66.4414 49.7212C66.7965 49.7212 67.1349 49.4429 67.1349 48.9633C67.1349 48.4835 66.7965 48.2254 66.4414 48.2254Z" fill="#F6F6F6"/>
<path d="M69.0572 50.1202C68.4049 50.1202 67.9219 49.6688 67.9219 48.9712C67.9219 48.2736 68.3843 47.8262 69.0572 47.8262C69.7055 47.8262 70.1637 48.2657 70.1637 48.9188C70.1637 48.9954 70.1596 49.0679 70.1472 49.1445H68.4091C68.4421 49.5114 68.7104 49.7331 69.0572 49.7331C69.3463 49.7331 69.5073 49.5961 69.5939 49.4227H70.1016C69.9738 49.8098 69.6146 50.1202 69.0572 50.1202ZM68.4133 48.7737H69.6725C69.6643 48.4311 69.3877 48.2134 69.0367 48.2134C68.7188 48.2134 68.4627 48.4229 68.4133 48.7737Z" fill="#F6F6F6"/>
<path d="M70.625 47.1016H71.0957V50.085H70.625V47.1016Z" fill="#F6F6F6"/>
<path d="M71.7148 47.1016H72.1855V50.085H71.7148V47.1016Z" fill="#F6F6F6"/>
<path d="M73.6292 50.1201C73.0843 50.1201 72.7003 49.8055 72.6797 49.4025H73.1669C73.1832 49.584 73.3609 49.7331 73.6209 49.7331C73.8933 49.7331 74.0379 49.6201 74.0379 49.4669C74.0379 49.0315 72.7168 49.2815 72.7168 48.4672C72.7168 48.1124 73.0554 47.8262 73.592 47.8262C74.1081 47.8262 74.4467 48.0962 74.4715 48.5399H74.0008C73.9843 48.3463 73.8316 48.2133 73.5755 48.2133C73.3236 48.2133 73.1916 48.314 73.1916 48.4632C73.1916 48.9107 74.4756 48.6608 74.5004 49.4631C74.5004 49.8379 74.166 50.1201 73.6292 50.1201Z" fill="#F6F6F6"/>
<path d="M78.7213 48.0888H78.1556C78.0029 47.8066 77.7304 47.6654 77.3877 47.6654C76.818 47.6654 76.4051 48.0606 76.4051 48.6774C76.4051 49.2942 76.818 49.6934 77.3877 49.6934C77.9078 49.6934 78.234 49.387 78.3042 48.9152H77.2266V48.5483H78.8079V48.9072C78.7212 49.5562 78.1596 50.1086 77.3876 50.1086C76.5783 50.1086 75.9219 49.5201 75.9219 48.6774C75.9219 47.8387 76.5783 47.2461 77.3876 47.2461C77.9865 47.2462 78.5024 47.5405 78.7213 48.0888Z" fill="#F6F6F6"/>
<path d="M79.7441 50.0841H79.2734V47.8626H79.7441V48.185C79.8762 47.9632 80.1032 47.8262 80.4253 47.8262V48.3019H80.3056C79.9586 48.3019 79.7441 48.4432 79.7441 48.9147V50.0841Z" fill="#F6F6F6"/>
<path d="M81.8465 50.1202C81.1982 50.1202 80.707 49.6688 80.707 48.9712C80.707 48.2736 81.219 47.8262 81.867 47.8262C82.5153 47.8262 83.0271 48.2737 83.0271 48.9712C83.0271 49.6686 82.4988 50.1202 81.8465 50.1202ZM81.8465 49.7212C82.1975 49.7212 82.5442 49.4752 82.5442 48.9712C82.5442 48.4672 82.2097 48.2254 81.8589 48.2254C81.5038 48.2254 81.1858 48.4672 81.1858 48.9712C81.1858 49.4752 81.4914 49.7212 81.8465 49.7212Z" fill="#F6F6F6"/>
<path d="M85.5497 50.0866H85.0789V49.8206C84.9303 50.01 84.6744 50.1188 84.406 50.1188C83.8734 50.1188 83.4688 49.7922 83.4688 49.1713V47.8652H83.9353V49.1028C83.9353 49.51 84.1623 49.7196 84.505 49.7196C84.8519 49.7196 85.0788 49.5099 85.0788 49.1028V47.8652H85.5496L85.5497 50.0866Z" fill="#F6F6F6"/>
<path d="M87.4313 47.8262C88.0299 47.8262 88.5006 48.2778 88.5006 48.9633C88.5006 49.6486 88.0299 50.1202 87.4313 50.1202C87.0555 50.1202 86.7872 49.9348 86.6386 49.7615V51.1403H86.168V47.8626H86.6386V48.1892C86.7831 48.0037 87.0597 47.8262 87.4313 47.8262ZM87.3279 48.2254C86.9771 48.2254 86.6385 48.4954 86.6385 48.9712C86.6385 49.451 86.9771 49.7212 87.3279 49.7212C87.683 49.7212 88.0215 49.4429 88.0215 48.9633C88.0215 48.4835 87.683 48.2254 87.3279 48.2254Z" fill="#F6F6F6"/>
</svg>
