<svg width="70" height="32" viewBox="0 0 70 32" fill="none" xmlns="http://www.w3.org/2000/svg">
<path d="M70 15.9988C70 24.8197 63.0584 31.9991 54.5272 31.9991C53.8238 32.0013 53.1211 31.9504 52.4249 31.8469C50.4234 31.571 48.4957 30.883 46.7557 29.8237C46.2935 29.5468 45.8463 29.244 45.4162 28.9166L45.2079 28.7589L39.0513 24.0546L38.2885 23.4614L40.1894 22.0069L44.7617 18.5095L46.7557 20.0318L49.6948 22.2822L50.1227 22.608L50.1898 22.6561C51.4688 23.5569 52.9812 24.0372 54.5287 24.0341C55.7438 24.0348 56.9422 23.7409 58.0275 23.176C59.1129 22.611 60.055 21.7908 60.7782 20.7811C61.5014 19.7714 61.9857 18.6004 62.1919 17.3622C62.3982 16.124 62.3208 14.853 61.966 13.6513C61.6111 12.4496 60.9887 11.3506 60.1487 10.4427C59.3087 9.53485 58.2745 8.84328 57.1292 8.42357C55.9839 8.00386 54.7593 7.8677 53.5539 8.02603C52.3485 8.18436 51.1958 8.63276 50.1883 9.33523L50.1227 9.38572C49.9755 9.48983 49.8359 9.59238 49.6955 9.71306L41.4732 15.9988L39.0574 17.8477L35.0015 20.9508L24.7921 28.7596L24.5846 28.9174C22.7351 30.3274 20.5994 31.2837 18.3395 31.7136C18.09 31.7696 17.8368 31.8106 17.5767 31.8477C16.8804 31.9512 16.1778 32.0021 15.4744 31.9999C12.7423 32.0067 10.0581 31.258 7.69981 29.8316C3.10006 27.0559 -0.0045718 21.8997 5.0536e-06 16.0059C5.0536e-06 7.17951 6.94157 0.00637508 15.4728 0.00637508C16.1732 0.00183532 16.873 0.0495485 17.5667 0.149143C20.0454 0.495954 22.4044 1.46431 24.4381 2.96981L24.9065 3.32949L31.7642 8.56618L29.8289 10.0467L25.2833 13.5244L20.3014 9.70754C20.1611 9.5908 20.0199 9.48589 19.8727 9.38256L19.8056 9.33445C18.5272 8.43184 17.0147 7.95036 15.4667 7.9533C13.4046 7.9533 11.4269 8.80037 9.96875 10.3082C8.5106 11.816 7.69142 13.861 7.69142 15.9933C7.69142 18.1256 8.5106 20.1706 9.96875 21.6784C11.4269 23.1862 13.4046 24.0333 15.4667 24.0333C17.0147 24.0381 18.5279 23.5583 19.8071 22.6569L19.872 22.6072C20.0199 22.5031 20.1588 22.4005 20.2999 22.2798L28.5245 15.9988L30.8404 14.2264L34.9985 11.0485L45.0874 3.32949L45.555 2.97139C47.5799 1.4689 49.9305 0.503327 52.4005 0.159398L52.4127 0.151577L52.4272 0.152299C53.1234 0.0487857 53.826 -0.00209327 54.5295 6.59296e-05C63.0577 -0.00387795 70.0008 7.16847 70 15.9988Z" fill="#F3F3F3"/>
</svg>
