<svg width="216" height="108" viewBox="0 0 216 108" fill="none" xmlns="http://www.w3.org/2000/svg">
<g clip-path="url(#clip0_363_7331)">
<path d="M43.5202 29.3721L21.2893 27.6053L-0.532908 29.2934C-0.532908 29.2934 -0.6875 34.2569 -0.6875 40.4047C-0.6875 71.9041 21.4246 80.2948 21.4246 80.2948C21.4246 80.2948 43.6623 71.9828 43.6623 40.4834C43.6623 34.3356 43.5077 29.3638 43.5077 29.3638" fill="white"/>
<path d="M59.2791 42.6352C59.2791 42.3094 58.4855 33.9228 58.4855 33.9228C58.4137 33.0947 58.4303 32.3341 58.4303 32.3341H58.3971C58.3971 32.3341 58.266 33.0809 58.0314 33.9228C58.0314 33.9228 55.7636 42.1949 55.6172 42.6352H54.2784C54.1514 42.2376 51.896 33.898 51.896 33.898C51.6779 33.0698 51.5302 32.33 51.5302 32.33H51.4957C51.4957 32.33 51.4957 33.0767 51.4364 33.898C51.4364 33.898 50.6427 42.2376 50.6427 42.6352H48.6523L50.0699 29.4631H52.4247L54.6925 37.9063C54.9105 38.7483 55.0223 39.3791 55.0223 39.3791H55.0624C55.143 38.882 55.2531 38.3902 55.3923 37.9063L57.7318 29.4631H60.0783L61.5 42.6352H59.2791Z" fill="white"/>
<path d="M63.6077 32.3162H65.8548V42.6407H63.6077V32.3162ZM64.7312 30.5371C64.5748 30.5424 64.4188 30.5169 64.2722 30.4619C64.1256 30.4069 63.9913 30.3236 63.877 30.2167C63.7627 30.1098 63.6705 29.9814 63.6058 29.8388C63.5411 29.6963 63.5052 29.5424 63.5 29.3859C63.5182 29.0712 63.6561 28.7753 63.8854 28.559C64.1147 28.3426 64.418 28.222 64.7333 28.222C65.0485 28.222 65.3519 28.3426 65.5812 28.559C65.8104 28.7753 65.9483 29.0712 65.9666 29.3859C65.9614 29.5427 65.9253 29.697 65.8604 29.8398C65.7954 29.9826 65.7029 30.1112 65.5881 30.2182C65.4733 30.3252 65.3385 30.4084 65.1915 30.4631C65.0444 30.5178 64.888 30.543 64.7312 30.5371Z" fill="white"/>
<path d="M73.7901 33.6786C73.4605 33.5876 73.1186 33.549 72.777 33.564C70.8266 33.564 70.1641 35.3073 70.1641 37.4882C70.1641 39.8236 70.8832 41.353 72.6141 41.353C73.0148 41.3904 73.4177 41.3103 73.7735 41.1224L73.7901 33.6786ZM72.5754 42.8119C69.6492 42.8119 67.957 40.8574 67.957 37.5862C67.957 34.2141 69.7196 32.2031 72.3022 32.2031C72.8052 32.1946 73.3068 32.2587 73.7915 32.3935V27.6053H76.0386V42.0804C74.9695 42.6283 73.7753 42.8858 72.5754 42.8271" fill="white"/>
<path d="M83.9036 33.6786C83.5806 33.5901 83.2459 33.5514 82.9112 33.564C80.9608 33.564 80.2983 35.3073 80.2983 37.4882C80.2983 39.8236 81.0133 41.353 82.7442 41.353C83.1463 41.385 83.5491 41.2996 83.9036 41.1073V33.6786ZM82.689 42.8119C79.7586 42.8119 78.0664 40.8574 78.0664 37.5862C78.0664 34.2141 79.8332 32.2031 82.4115 32.2031C82.9159 32.1949 83.4188 32.259 83.905 32.3935V27.6053H86.1493V42.0804C85.0816 42.6279 83.8888 42.8854 82.6903 42.8271" fill="white"/>
<path d="M90.9865 27.6053H88.7422V42.6366H90.9865V27.6053Z" fill="white"/>
<path d="M97.2663 33.5626C95.9592 33.5626 95.0579 34.6751 95.1145 37.1362L99.2208 36.4888C99.2208 34.4005 98.5017 33.5544 97.2663 33.5544M95.2415 38.3205C95.4237 40.2349 96.3098 41.1915 97.9496 41.1915C98.8181 41.2107 99.6779 41.0143 100.452 40.62L100.977 42.1011C99.9648 42.6236 98.8347 42.8742 97.697 42.8285C94.8812 42.8285 93.0938 40.9347 93.0938 37.4454C93.0938 34.0775 94.7335 32.1244 97.3312 32.1244C99.9289 32.1244 101.398 33.9436 101.302 37.4067L95.2415 38.3205Z" fill="white"/>
<path d="M105.436 42.8064C104.466 42.8338 103.51 42.574 102.688 42.0597L103.284 40.5662C103.82 40.9657 104.473 41.1755 105.142 41.1625C105.339 41.1754 105.537 41.147 105.723 41.0791C105.909 41.0112 106.079 40.9054 106.222 40.7682C106.365 40.6311 106.477 40.4658 106.553 40.2827C106.628 40.0996 106.665 39.9028 106.66 39.7049C106.66 38.8229 106.22 38.4061 105.206 38.0016C103.349 37.2549 102.951 36.1824 102.951 35.1099C102.949 34.7031 103.03 34.3002 103.19 33.926C103.349 33.5518 103.584 33.2144 103.879 32.9344C104.174 32.6545 104.524 32.4381 104.906 32.2985C105.288 32.159 105.695 32.0992 106.101 32.123C107.014 32.0937 107.915 32.3478 108.678 32.8504L108.113 34.2128C107.664 33.8465 107.104 33.6435 106.525 33.6372C106.34 33.6238 106.155 33.6492 105.981 33.712C105.807 33.7747 105.648 33.8732 105.514 34.0012C105.38 34.1292 105.275 34.2839 105.205 34.4551C105.135 34.6264 105.102 34.8104 105.107 34.9954C105.107 35.8373 105.714 36.2583 106.58 36.6241C108.512 37.4178 108.962 38.4626 108.962 39.6704C108.949 40.1127 108.845 40.5475 108.657 40.9482C108.469 41.349 108.202 41.7072 107.871 42.0009C107.54 42.2947 107.153 42.5177 106.732 42.6565C106.312 42.7952 105.868 42.8467 105.427 42.8078" fill="white"/>
<path d="M114.742 33.5626C113.432 33.5626 112.533 34.6751 112.586 37.1362L116.692 36.4888C116.692 34.4005 115.977 33.5544 114.742 33.5544M112.717 38.3205C112.903 40.2349 113.785 41.1915 115.421 41.1915C116.29 41.2104 117.151 41.0141 117.926 40.62L118.451 42.1011C117.438 42.6233 116.308 42.8739 115.17 42.8285C112.354 42.8285 110.566 40.9347 110.566 37.4454C110.566 34.0775 112.202 32.1244 114.8 32.1244C117.397 32.1244 118.87 33.9436 118.771 37.4067L112.717 38.3205Z" fill="white"/>
<path d="M125.741 32.3148L123.989 35.6827H123.957L122.277 32.3148H119.923L122.683 37.2949L119.609 42.6366H121.888L123.786 38.8836H123.833L125.692 42.6366H128.159L125.049 37.1403L127.865 32.3093L125.741 32.3148Z" fill="white"/>
<path d="M53.2781 61.3615C52.7316 61.3991 52.1833 61.3215 51.6687 61.1338C51.154 60.946 50.6846 60.6523 50.2907 60.2715C49.8968 59.8908 49.5873 59.4316 49.3822 58.9236C49.1771 58.4156 49.081 57.8702 49.1 57.3228V47.9741H51.4396V57.2979C51.4052 57.572 51.4295 57.8503 51.5108 58.1143C51.5922 58.3783 51.7288 58.622 51.9116 58.8291C52.0943 59.0363 52.3191 59.2022 52.5709 59.3158C52.8227 59.4294 53.0958 59.4882 53.372 59.4882C53.6483 59.4882 53.9213 59.4294 54.1731 59.3158C54.4249 59.2022 54.6497 59.0363 54.8324 58.8291C55.0152 58.622 55.1518 58.3783 55.2332 58.1143C55.3146 57.8503 55.3388 57.572 55.3044 57.2979V47.9741H57.477V57.3145C57.4954 57.8622 57.3988 58.4076 57.1932 58.9156C56.9876 59.4236 56.6777 59.8827 56.2835 60.2634C55.8893 60.6441 55.4196 60.9378 54.9047 61.1255C54.3899 61.3132 53.8414 61.3908 53.2947 61.3532" fill="white"/>
<path d="M65.544 61.1436V53.8143C65.5687 53.5762 65.5389 53.3357 65.4569 53.1108C65.3748 52.886 65.2427 52.6828 65.0704 52.5166C64.8981 52.3505 64.6903 52.2258 64.4626 52.1519C64.235 52.078 63.9935 52.057 63.7565 52.0903C63.2264 52.069 62.6983 52.1681 62.212 52.3802V61.1174H59.9648V51.3808C61.1864 50.8417 62.5147 50.5877 63.849 50.6383C66.8152 50.6383 67.7883 52.1317 67.7883 53.795V61.1436H65.544Z" fill="white"/>
<path d="M70.2539 50.8245H72.4983V61.149H70.2539V50.8245ZM71.3775 49.0494C71.1512 49.0354 70.934 48.9553 70.7528 48.8192C70.5716 48.683 70.4342 48.4967 70.3578 48.2833C70.2813 48.0699 70.2691 47.8387 70.3226 47.6184C70.3762 47.3982 70.4931 47.1984 70.659 47.0439C70.8248 46.8894 71.0323 46.7869 71.2559 46.749C71.4794 46.7112 71.7091 46.7398 71.9165 46.8311C72.124 46.9225 72.3001 47.0726 72.4231 47.263C72.5462 47.4534 72.6107 47.6757 72.6087 47.9024C72.5972 48.2177 72.4611 48.5155 72.2302 48.7305C71.9994 48.9456 71.6927 49.0603 71.3775 49.0494Z" fill="white"/>
<path d="M79.5338 61.142H77.3971L74.1562 50.8175H76.5386L78.2902 57.4815C78.4141 57.9441 78.494 58.4173 78.529 58.8949H78.569C78.6181 58.4181 78.703 57.9456 78.823 57.4815L80.6104 50.8175H82.7112L79.5338 61.142Z" fill="white"/>
<path d="M87.8316 52.0722C86.5217 52.0722 85.6232 53.1764 85.6797 55.6457L89.7861 55.0066C89.7861 52.9224 89.067 52.0804 87.8316 52.0804M85.8067 56.8466C85.9931 58.761 86.8751 59.7175 88.5107 59.7175C89.3807 59.7379 90.242 59.54 91.0159 59.142L91.5515 60.6147C90.5362 61.1394 89.4012 61.3888 88.2595 61.338C85.4396 61.338 83.6562 59.4401 83.6562 55.9549C83.6562 52.5829 85.2919 50.6339 87.8937 50.6339C90.4956 50.6339 91.96 52.4531 91.8648 55.919L85.8067 56.8466Z" fill="white"/>
<path d="M98.2815 52.3578C97.9456 52.2255 97.586 52.1639 97.2252 52.177C96.8645 52.19 96.5103 52.2774 96.1848 52.4337V61.1461H93.9336V51.382C95.4408 50.7311 97.0906 50.4805 98.7232 50.6545L98.2815 52.3578Z" fill="white"/>
<path d="M102.326 61.316C101.357 61.3433 100.402 61.0819 99.582 60.5652L100.178 59.0758C100.717 59.473 101.371 59.6811 102.04 59.668C102.238 59.6824 102.437 59.6554 102.624 59.5885C102.811 59.5216 102.982 59.4163 103.126 59.2795C103.27 59.1426 103.384 58.9772 103.461 58.7938C103.537 58.6104 103.574 58.4131 103.57 58.2145C103.57 57.3325 103.125 56.9116 102.116 56.5113C100.234 55.7645 99.8484 54.6921 99.8484 53.6196C99.8462 53.2128 99.9274 52.8098 100.087 52.4357C100.247 52.0615 100.481 51.724 100.777 51.4441C101.072 51.1642 101.421 50.9477 101.803 50.8082C102.185 50.6686 102.592 50.6089 102.998 50.6327C103.912 50.6034 104.812 50.8575 105.575 51.3601L105.023 52.7224C104.575 52.3543 104.014 52.1512 103.434 52.1468C103.25 52.1334 103.065 52.1589 102.89 52.2216C102.716 52.2843 102.557 52.3828 102.424 52.5109C102.29 52.6389 102.185 52.7935 102.115 52.9648C102.045 53.136 102.011 53.3201 102.017 53.505C102.017 54.347 102.624 54.768 103.49 55.1337C105.422 55.9274 105.872 56.9723 105.872 58.1704C105.859 58.613 105.755 59.0483 105.568 59.4495C105.381 59.8507 105.113 60.2095 104.782 60.5036C104.451 60.7978 104.064 61.0212 103.643 61.1602C103.223 61.2992 102.778 61.3508 102.337 61.3119" fill="white"/>
<path d="M107.906 50.8245H110.151V61.149H107.906V50.8245ZM109.03 49.0494C108.804 49.0354 108.586 48.9553 108.405 48.8192C108.224 48.683 108.087 48.4967 108.01 48.2833C107.934 48.0699 107.921 47.8387 107.975 47.6184C108.029 47.3982 108.145 47.1984 108.311 47.0439C108.477 46.8894 108.685 46.7869 108.908 46.749C109.132 46.7112 109.361 46.7398 109.569 46.8311C109.776 46.9225 109.952 47.0726 110.075 47.263C110.199 47.4534 110.263 47.6757 110.261 47.9024C110.249 48.2177 110.113 48.5155 109.883 48.7305C109.652 48.9456 109.345 49.0603 109.03 49.0494Z" fill="white"/>
<path d="M115.922 61.2608C115.554 61.2861 115.184 61.231 114.838 61.0994C114.492 60.9678 114.179 60.7627 113.921 60.4985C113.662 60.2342 113.464 59.9169 113.34 59.5686C113.216 59.2203 113.169 58.8492 113.202 58.4809V52.3249H112.098V50.8245H113.202V48.5457L115.449 47.8942V50.8245H117.067V52.3249H115.45V58.3567C115.45 59.1504 115.76 59.6956 116.534 59.6956C116.715 59.6926 116.894 59.6605 117.065 59.6003V61.0538C116.704 61.2039 116.316 61.2768 115.925 61.2677" fill="white"/>
<path d="M122.164 65.2608H119.782L121.398 61.142L118.121 50.8175H120.508L122.219 57.5008C122.343 57.9839 122.412 58.4793 122.426 58.9777H122.466C122.519 58.4802 122.611 57.9877 122.742 57.505L124.585 50.8216H126.686L122.164 65.2608Z" fill="white"/>
<path d="M22.201 47.7243C18.8132 47.8008 15.4721 48.5305 12.3609 49.8734C12.2148 49.4914 12.205 49.0706 12.3333 48.6822C12.5151 48.6631 12.6828 48.5754 12.8023 48.437C12.9217 48.2986 12.984 48.12 12.9765 47.9373C12.9689 47.7547 12.8921 47.5818 12.7616 47.4537C12.6311 47.3257 12.4567 47.2522 12.274 47.2481C12.2396 47.244 12.2048 47.244 12.1705 47.2481L12.0559 47.2716L11.9441 47.3157L11.8999 47.3351L11.8199 47.3986L11.744 47.462C11.419 47.8057 11.1966 48.2335 11.1019 48.6969C11.0073 49.1603 11.0442 49.641 11.2084 50.0846C11.0791 50.146 10.9657 50.2363 10.8769 50.3486C10.7881 50.4608 10.7263 50.592 10.6963 50.7319C10.5908 50.671 10.4731 50.634 10.3517 50.6238C10.2302 50.6135 10.108 50.6302 9.99375 50.6726C9.85992 50.7338 9.74278 50.8264 9.65221 50.9424C9.56165 51.0584 9.50032 51.1946 9.47339 51.3393C9.36836 51.2737 9.24982 51.2327 9.12669 51.2196C9.00356 51.2064 8.87905 51.2214 8.76254 51.2633C8.62637 51.3252 8.50781 51.4201 8.41765 51.5394C8.3275 51.6587 8.2686 51.7987 8.24632 51.9466C8.14244 51.8767 8.02352 51.8324 7.89926 51.8173C7.77499 51.8022 7.64892 51.8167 7.53133 51.8596C7.39435 51.924 7.27613 52.0223 7.18794 52.1453C7.09975 52.2683 7.04452 52.4118 7.02753 52.5622C6.924 52.4858 6.80344 52.4356 6.67624 52.4162C6.54904 52.3967 6.41901 52.4084 6.29736 52.4504C6.0561 52.6053 5.88153 52.8449 5.80797 53.122C5.73441 53.3992 5.76718 53.6938 5.89984 53.948C6.13863 54.5912 6.6935 54.9653 7.17108 54.7762C7.29665 54.7191 7.40619 54.6319 7.48999 54.5224C7.57378 54.4128 7.62923 54.2843 7.65142 54.1481C7.76102 54.2368 7.89144 54.296 8.03033 54.3201C8.16922 54.3443 8.31198 54.3326 8.44508 54.2862C8.56732 54.2282 8.67459 54.1429 8.7586 54.0369C8.84261 53.9309 8.9011 53.8069 8.92956 53.6747C9.04152 53.759 9.17274 53.814 9.31134 53.8347C9.44993 53.8554 9.5915 53.8412 9.72322 53.7934C9.8448 53.7372 9.95199 53.6541 10.0367 53.5503C10.1213 53.4465 10.1812 53.3248 10.2118 53.1944C10.3257 53.2749 10.4575 53.3264 10.5958 53.3444C10.7342 53.3625 10.8748 53.3465 11.0055 53.2979C11.1259 53.2437 11.2328 53.1637 11.3187 53.0635C11.4046 52.9633 11.4673 52.8454 11.5024 52.7182C11.6158 52.7901 11.7441 52.8353 11.8775 52.8503C12.0109 52.8654 12.146 52.8499 12.2726 52.8051C12.3173 52.7873 12.3598 52.7646 12.3996 52.7375C12.5263 53.117 12.5021 53.5307 12.332 53.8928H12.3085C12.2116 53.888 12.1147 53.9027 12.0236 53.9361C11.9324 53.9695 11.849 54.0209 11.7782 54.0872C11.7073 54.1535 11.6506 54.2334 11.6112 54.3222C11.5719 54.4109 11.5509 54.5066 11.5493 54.6036C11.5477 54.7281 11.5789 54.8508 11.6398 54.9593C11.7008 55.0678 11.7893 55.1583 11.8965 55.2216C12.0036 55.2849 12.1256 55.3188 12.2501 55.3198C12.3745 55.3209 12.497 55.289 12.6052 55.2275H12.6618C13.1182 54.918 13.4349 54.4417 13.5438 53.9011C13.666 53.3135 13.6191 52.7032 13.4086 52.1412C15.364 51.5815 17.3871 51.2931 19.4211 51.284C21.5534 51.2441 23.6729 51.6221 25.6599 52.3966C26.3114 51.3048 27.4115 50.7678 28.2176 51.2054C28.6351 51.5617 28.9106 52.0562 28.9937 52.5988C29.0768 53.1413 28.962 53.6956 28.6703 54.1606L29.8615 55.3517H37.039V55.2054C37.039 54.046 34.4579 48.0569 22.1913 47.7243" fill="black"/>
<path d="M22.1209 57.9882H21.907C19.2354 58.1542 16.6056 58.733 14.1111 59.7039C13.983 59.3865 13.9674 59.0348 14.067 58.7073C14.2209 58.6897 14.3623 58.6143 14.4628 58.4964C14.5633 58.3785 14.6152 58.2269 14.6082 58.0722C14.6012 57.9174 14.5357 57.7711 14.425 57.6628C14.3143 57.5545 14.1666 57.4922 14.0118 57.4885C13.9828 57.4861 13.9537 57.4861 13.9248 57.4885C13.8918 57.4848 13.8584 57.4848 13.8254 57.4885C13.7951 57.4988 13.766 57.5122 13.7385 57.5286H13.6943L13.6225 57.5838L13.5673 57.6348C13.2819 57.9269 13.0893 58.2969 13.0136 58.6982C12.938 59.0995 12.9827 59.5143 13.1422 59.8902C13.117 59.8875 13.0915 59.8875 13.0663 59.8902C12.9564 59.9399 12.8592 60.0139 12.7822 60.1067C12.7052 60.1995 12.6504 60.3086 12.6218 60.4258C12.526 60.388 12.4231 60.3714 12.3202 60.3768C12.2174 60.3823 12.1169 60.4098 12.0255 60.4575C11.9147 60.508 11.817 60.5833 11.7399 60.6776C11.6628 60.7719 11.6085 60.8827 11.5811 61.0014C11.4932 60.9529 11.3958 60.9243 11.2956 60.9173C11.1955 60.9104 11.0951 60.9254 11.0014 60.9613C10.888 61.0125 10.7889 61.0907 10.7128 61.1892C10.6368 61.2876 10.5861 61.4032 10.5652 61.5259C10.4775 61.4697 10.378 61.4348 10.2745 61.4238C10.1711 61.4128 10.0664 61.426 9.96892 61.4624C9.85715 61.5159 9.76064 61.5966 9.68828 61.6972C9.61591 61.7978 9.57002 61.915 9.55484 62.0379C9.47654 61.9784 9.38529 61.9383 9.28851 61.9207C9.19174 61.9032 9.09219 61.9088 8.99798 61.937C8.90378 61.9653 8.81759 62.0154 8.74645 62.0833C8.67531 62.1512 8.62124 62.235 8.58864 62.3278C8.47566 62.6205 8.47566 62.9447 8.58864 63.2374C8.79154 63.7812 9.27878 64.1028 9.67216 63.9441C9.776 63.8955 9.86645 63.8223 9.9357 63.731C10.005 63.6396 10.0509 63.5327 10.0697 63.4196C10.1622 63.4918 10.2711 63.5398 10.3868 63.5593C10.5025 63.5788 10.6212 63.5692 10.7322 63.5314C10.8335 63.4835 10.9221 63.4127 10.9911 63.3245C11.0601 63.2363 11.1076 63.1332 11.1297 63.0235C11.2239 63.0914 11.333 63.1356 11.4479 63.1521C11.5628 63.1687 11.68 63.1573 11.7895 63.1187C11.8879 63.0718 11.9746 63.0037 12.0433 62.9192C12.1121 62.8347 12.1612 62.7359 12.187 62.6301C12.2818 62.6917 12.3895 62.7306 12.5018 62.7438C12.6141 62.757 12.7279 62.744 12.8344 62.706C12.9303 62.6589 13.0153 62.5922 13.0838 62.5102C13.1523 62.4281 13.2027 62.3326 13.2319 62.2298C13.3275 62.2879 13.435 62.3238 13.5463 62.3347C13.6576 62.3457 13.77 62.3316 13.8751 62.2933C13.9352 62.2665 13.9914 62.2317 14.0421 62.1898C14.1191 62.4384 14.1109 62.7056 14.0187 62.9489C13.929 62.9281 13.8358 62.9278 13.746 62.948C13.6561 62.9682 13.572 63.0085 13.5 63.0657C13.4279 63.123 13.3696 63.1958 13.3296 63.2787C13.2896 63.3616 13.2688 63.4525 13.2688 63.5445C13.2688 63.6366 13.2896 63.7275 13.3296 63.8104C13.3696 63.8933 13.4279 63.9661 13.5 64.0233C13.572 64.0806 13.6561 64.1208 13.746 64.1411C13.8358 64.1613 13.929 64.161 14.0187 64.1401C14.119 64.1368 14.217 64.1093 14.3044 64.0601H14.3444C14.7197 63.7954 14.9799 63.3975 15.0718 62.9475C15.171 62.5249 15.149 62.0829 15.0083 61.6722C16.6658 61.1753 18.3851 60.9146 20.1154 60.8978C21.5198 60.8619 22.9181 61.0962 24.2341 61.588C24.8622 60.5831 25.8905 60.1028 26.6165 60.5155C26.9917 60.821 27.2494 61.2471 27.3458 61.7212C27.4421 62.1953 27.3712 62.6882 27.1451 63.1159L28.2604 64.136H34.03V64.0048C34.03 63.0759 31.9596 58.2781 22.1168 57.9965" fill="black"/>
<path d="M21.8929 66.9199H21.7936C19.8359 66.9557 17.9025 67.3598 16.0944 68.1111L15.9398 68.1663C15.8707 68.0405 15.8306 67.9009 15.8222 67.7577C15.8139 67.6144 15.8375 67.4711 15.8915 67.3381C16.0305 67.3252 16.1591 67.2584 16.2496 67.1521C16.3402 67.0458 16.3856 66.9083 16.3762 66.769C16.3669 66.6296 16.3035 66.4995 16.1995 66.4062C16.0955 66.3129 15.9593 66.264 15.8197 66.2698C15.7959 66.2668 15.7718 66.2668 15.7479 66.2698C15.7176 66.2669 15.6871 66.2669 15.6568 66.2698L15.5851 66.2974H15.5533L15.4857 66.3457L15.4305 66.3968C15.1969 66.6442 15.0384 66.953 14.9737 67.2871C14.9089 67.6212 14.9405 67.9668 15.0647 68.2836C14.9785 68.3217 14.902 68.3787 14.8408 68.4504C14.7797 68.5221 14.7354 68.6066 14.7113 68.6977C14.6407 68.6613 14.5631 68.64 14.4837 68.6352C14.4044 68.6305 14.3249 68.6424 14.2503 68.6701C14.1616 68.7096 14.0834 68.7694 14.022 68.8447C13.9606 68.92 13.9178 69.0086 13.897 69.1035C13.8271 69.0633 13.7492 69.0388 13.6688 69.0319C13.5885 69.025 13.5076 69.0358 13.4318 69.0635C13.3434 69.1047 13.2658 69.166 13.2052 69.2424C13.1446 69.3188 13.1026 69.4083 13.0826 69.5038C13.013 69.4618 12.9349 69.4356 12.8541 69.4273C12.7732 69.4189 12.6914 69.4286 12.6147 69.4555C12.5253 69.4975 12.4476 69.5607 12.3882 69.6396C12.3288 69.7185 12.2895 69.8107 12.2738 69.9082C12.2048 69.8612 12.1254 69.8316 12.0425 69.822C11.9595 69.8123 11.8755 69.823 11.7976 69.853C11.7302 69.8812 11.6693 69.9229 11.6187 69.9756C11.5681 70.0284 11.529 70.0909 11.5036 70.1594C11.4103 70.3981 11.4103 70.6633 11.5036 70.902C11.6706 71.3465 12.0709 71.6129 12.3966 71.4776C12.4776 71.4411 12.5489 71.3861 12.6047 71.3171C12.6606 71.2481 12.6995 71.1669 12.7182 71.0801C12.7924 71.1338 12.8785 71.1687 12.9691 71.182C13.0597 71.1952 13.1522 71.1863 13.2386 71.156C13.3193 71.1184 13.3904 71.0632 13.4468 70.9944C13.5032 70.9256 13.5434 70.8449 13.5643 70.7585C13.6331 70.8101 13.7133 70.8446 13.7981 70.859C13.8829 70.8733 13.9699 70.8673 14.0519 70.8412C14.1339 70.8151 14.2084 70.7698 14.2694 70.7091C14.3303 70.6484 14.3758 70.574 14.4022 70.4921C14.4771 70.541 14.5626 70.5715 14.6516 70.5811C14.7406 70.5907 14.8306 70.5791 14.9142 70.5473C14.9929 70.5127 15.0634 70.4619 15.121 70.3982C15.1785 70.3344 15.2219 70.2591 15.2483 70.1774C15.3246 70.2214 15.4098 70.2479 15.4977 70.2548C15.5856 70.2617 15.6739 70.2489 15.7562 70.2174C15.7912 70.2044 15.8246 70.1872 15.8556 70.1663C15.9237 70.3943 15.9081 70.639 15.8114 70.8564C15.6692 70.8564 15.5328 70.913 15.4323 71.0135C15.3317 71.1141 15.2752 71.2505 15.2752 71.3927C15.2752 71.5349 15.3317 71.6713 15.4323 71.7719C15.5328 71.8724 15.6692 71.9289 15.8114 71.9289C15.8976 71.9269 15.982 71.9037 16.0571 71.8613L16.0971 71.842C16.2612 71.7338 16.4021 71.5942 16.5118 71.4312C16.6215 71.2682 16.6978 71.085 16.7362 70.8923C16.8276 70.5171 16.8055 70.1232 16.6727 69.7605C17.915 69.3934 19.2021 69.1997 20.4975 69.1849C21.4163 69.1605 22.3325 69.295 23.2056 69.5825C23.3754 69.23 23.6703 68.9535 24.033 68.8067C24.3956 68.66 24.7999 68.6536 25.167 68.7888C25.4776 69.0304 25.6953 69.3717 25.7836 69.7551C25.8718 70.1385 25.8252 70.5407 25.6515 70.8937L26.4796 71.5921H30.8482V71.4541C30.8482 70.5252 29.2595 67.0855 21.8929 66.9144" fill="black"/>
<path d="M21.4245 41.7312C18.9262 41.7312 16.969 41.3171 16.969 40.765C16.969 40.1025 19.205 39.7988 21.4245 39.7988C23.5654 39.7988 25.8759 40.1052 25.8759 40.765C25.8759 41.3088 23.9187 41.7312 21.4245 41.7312ZM28.0499 33.5627C27.926 33.5022 27.7902 33.4697 27.6524 33.4674C27.4633 33.4694 27.2788 33.526 27.1211 33.6303C26.9634 33.7346 26.8392 33.8822 26.7635 34.0554C26.708 34.1809 26.677 34.3159 26.6724 34.453L26.1437 34.6517L26.4971 35.6649C26.1386 36.316 25.7408 36.9447 25.3059 37.5476C24.3426 37.2476 23.3467 37.065 22.3397 37.0037C22.2762 36.6504 22.0636 35.415 21.9421 34.2432L22.6806 33.484L22.2831 33.0699C22.3447 32.9351 22.3753 32.7882 22.3725 32.64C22.3697 32.4918 22.3336 32.3461 22.2669 32.2138C22.2001 32.0814 22.1045 31.9658 21.987 31.8754C21.8695 31.785 21.7332 31.7222 21.5882 31.6916C21.4431 31.6611 21.293 31.6635 21.1491 31.6988C21.0051 31.7341 20.8709 31.8014 20.7565 31.8955C20.642 31.9897 20.5502 32.1085 20.4878 32.2429C20.4255 32.3774 20.3942 32.5242 20.3962 32.6724C20.3959 32.8089 20.4232 32.9441 20.4763 33.0699L20.0788 33.484L20.8131 34.2432C20.7095 35.3833 20.4832 36.6531 20.4155 37.0231C19.4305 37.061 18.4553 37.2333 17.517 37.5351C17.2409 37.1376 16.7702 36.395 16.3492 35.6524L16.7026 34.6393L16.1698 34.4405C16.1685 34.3035 16.1389 34.1681 16.0828 34.043C16.0068 33.8692 15.8819 33.7211 15.7234 33.6167C15.5649 33.5124 15.3796 33.4562 15.1898 33.455C15.051 33.4611 14.9152 33.4979 14.7923 33.5627C14.5543 33.6841 14.3723 33.8926 14.2843 34.1449C14.1964 34.3972 14.2092 34.6737 14.3202 34.9167C14.3728 35.0383 14.4499 35.1478 14.5466 35.2383L14.352 35.7905L15.3333 36.1631C15.7548 37.678 16.0734 39.2196 16.2871 40.7774C16.4776 41.8692 18.6336 42.6601 21.4494 42.6601C24.2652 42.6601 26.3853 41.8858 26.5799 40.7774C26.6034 40.6394 26.6351 40.4365 26.6751 40.1784C26.8352 38.8175 27.1221 37.4747 27.5323 36.1673L28.5178 35.7905L28.2956 35.2301C28.3935 35.1406 28.4707 35.0308 28.5219 34.9085C28.6292 34.6668 28.64 34.3933 28.5523 34.1439C28.4645 33.8945 28.2848 33.6881 28.0499 33.5668" fill="black"/>
<path d="M52.2748 68.0174C51.7177 67.9951 51.1621 68.0891 50.6433 68.2934V78.9782C51.1741 79.1582 51.7325 79.2428 52.2928 79.228C54.9553 79.228 55.9768 77.2529 55.9768 73.5289C55.9768 69.9029 54.7883 68.0229 52.2735 68.0229M52.3894 80.4758C51.183 80.5188 49.984 80.2697 48.8945 79.7498V67.6033C49.957 67.0905 51.1273 66.841 52.3066 66.8759C55.9519 66.8759 57.7987 69.446 57.7987 73.5316C57.7987 77.6172 56.13 80.4579 52.3908 80.4579" fill="white"/>
<path d="M63.8675 80.484C61.2768 80.484 60.207 79.1782 60.207 77.1064V69.929H61.8965V77.1616C61.8667 77.4435 61.8993 77.7285 61.9919 77.9964C62.0846 78.2643 62.235 78.5085 62.4326 78.7117C62.6302 78.9149 62.8701 79.0722 63.1352 79.1724C63.4004 79.2726 63.6843 79.3132 63.9669 79.2914C64.613 79.3263 65.256 79.18 65.8234 78.869V69.9317H67.5101V79.6586C66.3876 80.2454 65.132 80.5308 63.8662 80.4867" fill="white"/>
<path d="M73.5901 70.7956C73.0005 70.7667 72.4149 70.9065 71.902 71.1987V79.1229C72.3642 79.3117 72.8622 79.397 73.3609 79.3727C75.4893 79.3727 76.3341 77.5894 76.3341 74.9793C76.3341 72.7156 75.5473 70.7984 73.5887 70.7984M73.3195 80.4673C72.242 80.5152 71.1725 80.2624 70.2305 79.7371V65.2124H71.8978V70.2753C72.5464 69.9324 73.2739 69.7667 74.0069 69.7949C76.3879 69.7949 78.0097 71.7922 78.0097 74.9172C78.0097 78.2298 76.3796 80.4618 73.3099 80.4618" fill="white"/>
<path d="M85.5993 74.4039C82.9906 74.7297 81.4392 75.2859 81.4392 77.3771C81.4392 78.8747 82.3598 79.4875 83.8947 79.4875C84.483 79.5076 85.0678 79.3894 85.6021 79.1425L85.5993 74.4039ZM83.7594 80.4661C81.0734 80.4661 79.8242 79.2957 79.8242 77.4157C79.8242 74.6745 82.3957 73.867 85.5993 73.5413V72.9077C85.5993 71.3163 84.6331 70.8552 83.3163 70.8552C82.446 70.8813 81.5928 71.104 80.8208 71.5067L80.4177 70.5088C81.3946 70.0021 82.4795 69.7388 83.58 69.7414C85.4999 69.7414 87.1866 70.5695 87.1866 73.0996V79.736C86.1198 80.2578 84.9408 80.5086 83.7539 80.4661" fill="white"/>
<path d="M90.023 69.9276H91.7111V80.2687H90.023V69.9276ZM90.8705 67.9304C90.688 67.9214 90.5122 67.8591 90.3649 67.751C90.2176 67.6429 90.1053 67.4939 90.042 67.3225C89.9788 67.1511 89.9673 66.9649 90.009 66.7871C90.0507 66.6092 90.1438 66.4475 90.2767 66.3221C90.4096 66.1968 90.5764 66.1132 90.7564 66.0819C90.9364 66.0506 91.1216 66.0729 91.289 66.146C91.4564 66.2191 91.5986 66.3399 91.698 66.4932C91.7973 66.6465 91.8494 66.8257 91.8477 67.0084C91.8363 67.2588 91.7279 67.495 91.5456 67.667C91.3632 67.8391 91.1212 67.9335 90.8705 67.9304Z" fill="white"/>
</g>
<defs>
<clipPath id="clip0_363_7331">
<rect width="215.324" height="107.662" fill="white"/>
</clipPath>
</defs>
</svg>
