<svg width="132" height="133" viewBox="0 0 132 133" fill="none" xmlns="http://www.w3.org/2000/svg">
<path d="M12.6495 94.2668L10.7481 94.2668C10.3001 94.2668 9.92993 94.2122 9.64162 94.107C9.3494 93.9979 9.11952 93.8342 8.95199 93.6082C8.78445 93.3822 8.66757 93.1016 8.60523 92.7626C8.54289 92.4235 8.51172 92.0221 8.51172 91.5545L8.51172 76.4302L15.7742 76.4302C18.0885 76.4302 19.8301 76.8861 21.0029 77.798C22.1756 78.7099 22.764 80.1167 22.764 82.0146C22.764 83.3747 22.4718 84.4775 21.8795 85.3154C21.2912 86.1571 20.4068 86.765 19.2301 87.1392L23.0367 94.2668C22.2302 94.3175 21.5445 94.337 20.9717 94.3214C20.399 94.3097 19.9042 94.2434 19.4912 94.1226C19.0782 94.0018 18.7275 93.8148 18.4392 93.5614C18.1548 93.3081 17.8937 92.9613 17.6639 92.521L15.0417 87.5951L12.6534 87.5951L12.6534 94.2668L12.6495 94.2668ZM12.6495 84.006L15.7703 84.006C16.7755 84.006 17.5002 83.8501 17.9483 83.5344C18.3963 83.2188 18.6184 82.7122 18.6184 82.0185C18.6184 81.3209 18.3963 80.8143 17.9483 80.5025C17.5002 80.1869 16.7755 80.031 15.7703 80.031L12.6495 80.031L12.6495 84.006Z" fill="#F5F5F5"/>
<path d="M27.0244 94.107C26.7361 93.9979 26.5062 93.8342 26.3348 93.6082C26.1634 93.3861 26.0504 93.1016 25.988 92.7626C25.9257 92.4235 25.8945 92.0221 25.8945 91.5545L25.8945 76.4302L39.126 76.4302C39.126 77.003 39.1182 77.5097 39.0948 77.9539C39.0753 78.3982 39.0091 78.7723 38.8961 79.0801C38.7831 79.388 38.6 79.6218 38.3506 79.7816C38.0974 79.9414 37.7428 80.0232 37.287 80.0232L30.0362 80.0232L30.0362 83.3708L38.4169 83.3708C38.4169 83.9436 38.4091 84.4502 38.3857 84.8945C38.3662 85.3388 38.3 85.7129 38.187 86.0207C38.074 86.3286 37.8948 86.5624 37.6415 86.7222C37.3883 86.882 37.0337 86.9638 36.5779 86.9638L30.0362 86.9638L30.0362 90.136C30.0362 90.3035 30.0557 90.4321 30.0907 90.5296C30.1258 90.627 30.2583 90.6738 30.4842 90.6738L39.126 90.6738C39.126 91.2466 39.1182 91.7532 39.0948 92.1975C39.0753 92.6418 39.0091 93.0159 38.8961 93.3237C38.7831 93.6316 38.6 93.8654 38.3506 94.0252C38.0974 94.185 37.7428 94.2668 37.287 94.2668L28.1348 94.2668C27.6868 94.2668 27.3166 94.2122 27.0244 94.107Z" fill="#F5F5F5"/>
<path d="M49.4936 94.2669C48.6832 94.2669 48.0053 94.0682 47.4676 93.6746C46.93 93.281 46.5014 92.6302 46.1858 91.7144L40.9883 76.4264C41.7753 76.3952 42.4493 76.3913 43.0026 76.4186C43.5598 76.4498 44.0273 76.5355 44.413 76.6797C44.7987 76.8239 45.1143 77.046 45.3598 77.3383C45.6053 77.6306 45.8118 78.0281 45.9754 78.5269L49.4936 89.2125L53.0119 78.5269C53.1755 78.0281 53.382 77.6345 53.6275 77.3383C53.873 77.0421 54.1886 76.8239 54.5743 76.6797C54.96 76.5355 55.4314 76.4498 55.9847 76.4186C56.538 76.3874 57.212 76.3913 57.999 76.4264L52.8015 91.7144C52.4859 92.6263 52.0612 93.281 51.5197 93.6746C50.982 94.0721 50.3079 94.2669 49.4936 94.2669Z" fill="#F5F5F5"/>
<path d="M61.2471 94.107C60.9588 93.9979 60.7289 93.8342 60.5575 93.6082C60.386 93.3861 60.273 93.1016 60.2107 92.7626C60.1484 92.4235 60.1172 92.0221 60.1172 91.5545L60.1172 76.4302L73.3486 76.4302C73.3486 77.003 73.3408 77.5097 73.3175 77.9539C73.298 78.3982 73.2318 78.7723 73.1188 79.0801C73.0058 79.388 72.8226 79.6218 72.5733 79.7816C72.32 79.9414 71.9655 80.0232 71.5096 80.0232L64.2588 80.0232L64.2588 83.3708L72.6395 83.3708C72.6395 83.9436 72.6317 84.4502 72.6084 84.8945C72.5889 85.3388 72.5226 85.7129 72.4097 86.0207C72.2967 86.3286 72.1174 86.5624 71.8642 86.7222C71.6109 86.882 71.2564 86.9638 70.8005 86.9638L64.2588 86.9638L64.2588 90.136C64.2588 90.3035 64.2783 90.4321 64.3134 90.5296C64.3523 90.6231 64.4809 90.6738 64.7069 90.6738L73.3486 90.6738C73.3486 91.2466 73.3408 91.7532 73.3175 92.1975C73.298 92.6418 73.2318 93.0159 73.1188 93.3237C73.0058 93.6316 72.8226 93.8654 72.5733 94.0252C72.32 94.185 71.9655 94.2668 71.5096 94.2668L62.3536 94.2668C61.9055 94.2668 61.5354 94.2122 61.2471 94.107Z" fill="#F5F5F5"/>
<path d="M80.4815 94.2668L78.5802 94.2668C78.1321 94.2668 77.762 94.2122 77.4737 94.107C77.1814 93.9979 76.9516 93.8342 76.784 93.6082C76.6126 93.3861 76.4996 93.1016 76.4373 92.7626C76.3749 92.4235 76.3437 92.0221 76.3437 91.5545L76.3438 76.4302L83.6062 76.4302C85.9206 76.4302 87.6622 76.8861 88.8349 77.798C90.0077 78.7099 90.596 80.1167 90.596 82.0146C90.596 83.3747 90.3038 84.4775 89.7116 85.3154C89.1232 86.1571 88.2388 86.765 87.0622 87.1392L90.8687 94.2668C90.0622 94.3175 89.3765 94.337 88.8038 94.3214C88.231 94.3097 87.7362 94.2434 87.3232 94.1226C86.9102 94.0018 86.5596 93.8148 86.2712 93.5614C85.9868 93.3081 85.7258 92.9613 85.4959 92.521L82.8738 87.5951L80.4854 87.5951L80.4854 94.2668L80.4815 94.2668ZM80.4815 84.006L83.6023 84.006C84.6076 84.006 85.3322 83.8501 85.7803 83.5344C86.2284 83.2188 86.4505 82.7122 86.4505 82.0185C86.4505 81.3209 86.2284 80.8143 85.7803 80.5025C85.3322 80.1869 84.6076 80.031 83.6023 80.031L80.4815 80.031L80.4815 84.006Z" fill="#F5F5F5"/>
<path d="M105.785 77.7979C105.793 78.3708 105.703 78.8423 105.512 79.2164C105.321 79.5905 105.076 79.8789 104.78 80.0816C104.48 80.2842 104.157 80.4089 103.802 80.4557C103.451 80.5024 103.12 80.4791 102.812 80.3855C102.649 80.3349 102.446 80.2764 102.208 80.2102C101.971 80.1439 101.714 80.0777 101.437 80.0114C101.16 79.9452 100.872 79.8906 100.572 79.8438C100.272 79.7971 99.9759 79.7737 99.6759 79.7737C98.9317 79.7737 98.3824 79.8945 98.0356 80.1361C97.6888 80.3777 97.5135 80.7635 97.5135 81.2935C97.5135 81.4923 97.5525 81.6715 97.6382 81.8274C97.72 81.9833 97.8603 82.1353 98.0551 82.2795C98.2499 82.4237 98.5109 82.5601 98.8382 82.6887C99.1655 82.8173 99.5746 82.9498 100.062 83.0823C101.215 83.3979 102.208 83.7253 103.038 84.0643C103.872 84.4033 104.554 84.8086 105.084 85.2724C105.614 85.7361 106.007 86.2895 106.26 86.9325C106.514 87.5755 106.638 88.3549 106.638 89.2785C106.638 90.0579 106.498 90.7711 106.221 91.4102C105.945 92.0532 105.524 92.6027 104.959 93.0625C104.394 93.5224 103.689 93.8809 102.843 94.1303C101.998 94.3836 101.012 94.5083 99.8824 94.5083C98.8226 94.5083 97.8642 94.4265 97.0148 94.2589C96.1654 94.0913 95.4407 93.9082 94.8446 93.6977C94.1472 93.4678 93.5277 93.195 92.9784 92.891C92.9628 92.3182 93.0485 91.8466 93.2472 91.4725C93.442 91.0984 93.6875 90.81 93.9875 90.6074C94.2875 90.4047 94.6109 90.2839 94.9654 90.2411C95.3161 90.1982 95.6472 90.2216 95.955 90.3034C96.255 90.3853 96.5511 90.4632 96.8434 90.5411C97.1395 90.6152 97.4434 90.6814 97.759 90.7321C98.0746 90.7866 98.4057 90.8295 98.7525 90.8646C99.0993 90.8997 99.4772 90.9153 99.8824 90.9153C100.369 90.9153 100.782 90.8724 101.121 90.7828C101.456 90.697 101.725 90.5684 101.928 90.4047C102.13 90.2372 102.275 90.0384 102.364 89.8085C102.45 89.5747 102.497 89.3136 102.497 89.0252C102.497 88.7758 102.45 88.5498 102.353 88.3471C102.259 88.1445 102.103 87.9574 101.885 87.7859C101.671 87.6145 101.386 87.4586 101.032 87.3183C100.677 87.178 100.249 87.0455 99.746 86.9208C98.6785 86.6636 97.7395 86.3597 96.9408 86.005C96.1421 85.6504 95.4758 85.2412 94.9459 84.7658C94.416 84.2942 94.0186 83.7564 93.7576 83.1563C93.4965 82.5562 93.3641 81.8742 93.3641 81.1104C93.3641 80.3894 93.5004 79.7269 93.7732 79.1268C94.0459 78.5266 94.4472 78.0045 94.981 77.5641C95.5109 77.1237 96.1693 76.7808 96.9525 76.5392C97.7356 76.2937 98.6434 76.1729 99.6681 76.1729C100.521 76.1729 101.316 76.2586 102.049 76.4262C102.781 76.5976 103.428 76.7808 103.981 76.9795C104.644 77.2289 105.24 77.4978 105.785 77.7979Z" fill="#F5F5F5"/>
<path d="M110.263 94.107C109.97 93.9979 109.741 93.8342 109.573 93.6082C109.406 93.3822 109.289 93.1016 109.226 92.7626C109.164 92.4235 109.133 92.0221 109.133 91.5545L109.133 76.4302L122.364 76.4302C122.364 77.003 122.353 77.5097 122.333 77.9539C122.314 78.3982 122.247 78.7723 122.134 79.0801C122.021 79.388 121.838 79.6218 121.589 79.7816C121.336 79.9414 120.981 80.0232 120.525 80.0232L113.274 80.0232L113.274 83.3708L121.655 83.3708C121.655 83.9436 121.643 84.4502 121.624 84.8945C121.604 85.3388 121.538 85.7129 121.425 86.0207C121.312 86.3286 121.129 86.5624 120.88 86.7222C120.627 86.882 120.272 86.9638 119.816 86.9638L113.274 86.9638L113.274 90.136C113.274 90.3035 113.294 90.4321 113.329 90.5296C113.368 90.6231 113.497 90.6738 113.723 90.6738L122.364 90.6738C122.364 91.2466 122.353 91.7532 122.333 92.1975C122.314 92.6418 122.247 93.0159 122.134 93.3237C122.021 93.6316 121.838 93.8654 121.589 94.0252C121.336 94.185 120.981 94.2668 120.525 94.2668L111.373 94.2668C110.925 94.2668 110.555 94.2122 110.263 94.107Z" fill="#F5F5F5"/>
<path d="M40.0838 109.071C40.0838 108.498 40.0955 107.992 40.115 107.547C40.1345 107.103 40.2007 106.729 40.3137 106.421C40.4267 106.113 40.6059 105.879 40.8553 105.72C41.1046 105.56 41.4592 105.478 41.9228 105.478L44.5956 105.478C45.0748 105.478 45.4683 105.533 45.7761 105.646C46.0839 105.759 46.3216 105.922 46.493 106.137C46.6645 106.351 46.7775 106.62 46.8398 106.939C46.9021 107.259 46.9333 107.621 46.9333 108.027L46.9333 112.255C46.9333 112.925 46.7658 113.529 46.4346 114.063C46.1034 114.597 45.6437 115.057 45.0553 115.439C44.467 115.821 43.7657 116.113 42.9553 116.316C42.141 116.518 41.2527 116.62 40.2825 116.62C38.8799 116.62 37.6448 116.401 36.5772 115.961C35.5097 115.521 34.6136 114.901 33.8928 114.094C33.172 113.292 32.6265 112.325 32.2564 111.195C31.8862 110.069 31.7031 108.818 31.7031 107.45C31.7031 106.082 31.8862 104.835 32.2564 103.705C32.6265 102.579 33.172 101.612 33.8928 100.806C34.6136 100.003 35.5097 99.3792 36.5772 98.9389C37.6448 98.4985 38.8799 98.2803 40.2825 98.2803C41.128 98.2803 41.9228 98.3621 42.6631 98.5297C43.4034 98.6972 44.054 98.8765 44.6073 99.0753C45.2541 99.3091 45.8541 99.5741 46.4112 99.8703C46.4268 100.509 46.345 101.016 46.1696 101.386C45.9904 101.76 45.7644 102.037 45.4917 102.22C45.219 102.403 44.9268 102.505 44.6151 102.524C44.3034 102.544 44.0229 102.524 43.7774 102.454C43.6138 102.411 43.4034 102.36 43.1501 102.294C42.8969 102.228 42.6202 102.162 42.3163 102.103C42.0124 102.041 41.689 101.986 41.3384 101.943C40.9916 101.897 40.6371 101.873 40.2825 101.873C38.8799 101.873 37.7929 102.325 37.0136 103.233C36.2344 104.141 35.8448 105.544 35.8448 107.446C35.8448 108.401 35.9461 109.223 36.1448 109.921C36.3435 110.618 36.6357 111.195 37.0136 111.655C37.3954 112.115 37.863 112.458 38.4124 112.68C38.9656 112.902 39.589 113.015 40.2825 113.015C41.2371 113.015 41.9345 112.855 42.3787 112.536C42.8228 112.216 43.0449 111.721 43.0449 111.051L43.0449 109.57C43.0449 109.356 43.0059 109.215 42.9319 109.153C42.8579 109.091 42.7215 109.059 42.5228 109.059L40.0838 109.059L40.0838 109.071Z" fill="#F5F5F5"/>
<path d="M50.9268 116.211C50.6385 116.102 50.4086 115.938 50.2371 115.712C50.0657 115.49 49.9527 115.205 49.8904 114.866C49.8281 114.527 49.7969 114.126 49.7969 113.658L49.7969 98.5339L63.0283 98.5339C63.0283 99.1068 63.0205 99.6134 62.9972 100.058C62.9777 100.502 62.9114 100.876 62.7985 101.184C62.6855 101.492 62.5023 101.726 62.253 101.885C61.9997 102.045 61.6452 102.127 61.1893 102.127L53.9385 102.127L53.9385 105.475L62.3192 105.475C62.3192 106.047 62.3114 106.554 62.2881 106.998C62.2686 107.443 62.2023 107.817 62.0893 108.124C61.9764 108.432 61.7971 108.666 61.5439 108.826C61.2906 108.986 60.9361 109.068 60.4802 109.068L53.9385 109.068L53.9385 112.24C53.9385 112.407 53.958 112.536 53.9931 112.633C54.032 112.727 54.1606 112.778 54.3866 112.778L63.0283 112.778C63.0283 113.35 63.0205 113.857 62.9972 114.301C62.9777 114.746 62.9114 115.12 62.7985 115.427C62.6855 115.735 62.5023 115.969 62.253 116.129C61.9997 116.289 61.6452 116.371 61.1893 116.371L52.0333 116.371C51.5891 116.371 51.219 116.316 50.9268 116.211Z" fill="#F5F5F5"/>
<path d="M73.5239 98.5339C73.898 98.5339 74.2447 98.5729 74.5681 98.647C74.8915 98.721 75.1876 98.8457 75.4564 99.0211C75.7253 99.1964 75.9668 99.4224 76.1772 99.7069C76.3876 99.9875 76.5707 100.338 76.7188 100.751L82.4033 116.374C81.6163 116.406 80.9462 116.406 80.3929 116.367C79.8436 116.328 79.3799 116.246 79.0059 116.117C78.6318 115.989 78.3318 115.805 78.1058 115.564C77.876 115.322 77.689 115.011 77.5409 114.632L76.6837 112.271L70.3641 112.271L69.507 114.632C69.3589 115.014 69.168 115.326 68.942 115.564C68.716 115.805 68.4121 115.989 68.042 116.117C67.668 116.246 67.2082 116.328 66.655 116.367C66.1017 116.406 65.4316 116.406 64.6445 116.374L70.3291 100.751C70.4771 100.338 70.6602 99.9875 70.8706 99.7069C71.081 99.4263 71.3226 99.1964 71.5914 99.0211C71.8603 98.8457 72.1564 98.721 72.4798 98.647C72.8031 98.5729 73.1499 98.5339 73.5239 98.5339ZM71.6733 108.67L75.3785 108.67L73.5239 103.581L71.6733 108.67Z" fill="#F5F5F5"/>
<path d="M88.4112 116.371L86.5098 116.371C86.0618 116.371 85.6916 116.316 85.4033 116.211C85.115 116.102 84.8851 115.938 84.7137 115.712C84.5423 115.49 84.4293 115.205 84.3669 114.866C84.3046 114.527 84.2734 114.126 84.2734 113.658L84.2734 98.5339L91.5359 98.5339C93.8503 98.5339 95.5919 98.9899 96.7646 99.9018C97.9374 100.814 98.5257 102.221 98.5257 104.118C98.5257 105.478 98.2296 106.581 97.6412 107.419C97.0529 108.261 96.1685 108.869 94.9918 109.243L98.7984 116.371C97.9958 116.421 97.3062 116.441 96.7334 116.425C96.1607 116.413 95.6659 116.347 95.2529 116.226C94.836 116.106 94.4892 115.919 94.2009 115.665C93.9165 115.412 93.6554 115.065 93.4256 114.625L90.8034 109.699L88.4151 109.699L88.4151 116.371L88.4112 116.371ZM88.4112 106.11L91.532 106.11C92.5334 106.11 93.2619 105.954 93.71 105.638C94.1581 105.323 94.3801 104.816 94.3801 104.122C94.3801 103.425 94.1581 102.918 93.71 102.606C93.2619 102.295 92.5372 102.135 91.532 102.135L88.4112 102.135L88.4112 106.11Z" fill="#F5F5F5"/>
<path d="M65.4258 19.0779L65.5193 19.1714L65.7686 19.2727C65.6557 19.2026 65.5388 19.1363 65.4258 19.0779ZM70.2648 23.1113C68.8739 21.4706 67.4284 20.2236 65.8505 19.3039L65.7725 19.2727C67.818 20.4496 69.2752 21.9578 70.2493 23.1035C70.7285 23.6725 71.1376 24.2765 71.4766 24.8883C71.1337 24.2414 70.7246 23.653 70.2648 23.1113Z" fill="#F5F5F5"/>
<path d="M65.7691 19.2688L65.5194 19.1674L65.4258 19.0737C65.5389 19.1362 65.656 19.2025 65.7691 19.2688Z" fill="#F5F5F5"/>
<path d="M71.4774 24.8846C71.1385 24.2728 70.7294 23.6688 70.2501 23.0998C69.2761 21.9541 67.8189 20.4459 65.7734 19.269L65.8514 19.3002C67.4332 20.2199 68.8748 21.467 70.2657 23.1076C70.7294 23.6532 71.1385 24.2416 71.4774 24.8846Z" fill="#F5F5F5"/>
<path d="M65.7691 19.2688L65.5194 19.1674L65.4258 19.0737C65.5389 19.1362 65.656 19.2025 65.7691 19.2688Z" fill="#F5F5F5"/>
<path d="M71.4774 24.8846C71.1385 24.2728 70.7294 23.6688 70.2501 23.0998C69.2761 21.9541 67.8189 20.4459 65.7734 19.269L65.8514 19.3002C67.4332 20.2199 68.8748 21.467 70.2657 23.1076C70.7294 23.6532 71.1385 24.2416 71.4774 24.8846Z" fill="#F5F5F5"/>
<path d="M97.1238 36.7001L97.1238 47.0895C97.0459 58.5156 87.7106 65.69 75.7961 65.69C74.1285 65.69 72.4766 65.4873 70.8791 65.1054C67.0843 64.1974 63.5777 62.2489 60.7452 59.4119C59.8763 58.5194 59.0932 57.5764 58.3958 56.5748C58.2126 56.2826 58.0178 55.9864 57.8152 55.6824C57.8152 55.6824 57.8074 55.6824 57.8074 55.6746C56.5607 53.6872 55.6645 51.5165 55.1308 49.229L45.3397 49.229L45.3397 65.6938C42.811 65.6938 40.5356 64.6689 38.8759 63.0166C37.2239 61.3643 36.1992 59.0806 36.1992 56.5515L36.1992 40.7335L53.6112 40.7335C53.8684 40.714 54.1879 40.714 54.5502 40.7062C55.1386 40.7062 55.8399 40.6789 56.623 40.5464C57.675 40.3788 58.8672 40.0281 60.1101 39.2838C61.0296 38.746 61.7348 38.0835 62.2491 37.3431C63.227 35.9557 63.5738 34.3151 63.5738 32.8459C63.5738 32.8459 63.6517 30.422 62.3621 28.4111C61.5556 27.1992 60.5075 26.3184 58.9802 25.5936C58.8049 25.5156 58.6217 25.4533 58.4386 25.3909C58.4308 25.3831 58.4308 25.3831 58.4191 25.3831C56.697 24.8103 54.7489 24.8726 52.8593 24.8726L44.4046 24.8726C39.8772 24.8726 36.1953 21.2016 36.1953 16.6616L53.1866 16.6616C56.884 16.6616 60.4296 16.989 63.492 18.197C64.1699 18.4426 64.7933 18.7348 65.3894 19.0583C65.3972 19.0661 65.4089 19.0661 65.4167 19.0778L65.4245 19.0817L65.518 19.1752L65.7673 19.2765C67.8128 20.4534 69.27 21.9616 70.2441 23.1073C70.7233 23.6763 71.1324 24.2803 71.4714 24.8921C71.5259 24.9856 71.5727 25.0753 71.6194 25.1688C71.6779 25.274 71.7246 25.3792 71.7792 25.4884L71.896 25.7495C71.9428 25.8508 71.9895 25.9482 72.0324 26.0495C72.0675 26.1275 72.1025 26.2171 72.1298 26.295C73.3065 29.1126 73.3065 31.7158 73.3065 31.7158C73.435 33.3642 73.2636 35.0477 72.8311 36.704L72.7649 36.9534C72.4999 37.9315 72.1493 38.8941 71.7012 39.8099C70.9921 41.2869 70.0765 42.6625 68.9544 43.8667C68.5258 44.3265 68.1051 44.724 67.6921 45.0786C66.6011 46.0022 65.5569 46.6102 64.653 47.0311C64.8362 47.7988 65.0894 48.5431 65.3699 49.229C65.5725 49.7434 65.7907 50.2188 66.0323 50.6592C66.0401 50.6865 66.0518 50.702 66.0673 50.7293C66.192 50.967 66.3245 51.2009 66.4648 51.4191C66.8466 52.0426 67.2635 52.5648 67.6648 52.9662C69.9986 55.2265 73.2207 56.4268 75.9559 56.5164C82.3144 56.832 87.7107 53.6911 88.0262 47.7364L88.0262 45.0825L71.222 45.0825C72.3012 43.8394 73.2129 42.4365 73.9415 40.9166C74.448 39.88 74.861 38.7733 75.1727 37.6198C75.2545 37.3158 75.3325 37.0118 75.4026 36.7079L97.1238 36.7079L97.1238 36.7001Z" fill="#F5F5F5"/>
<path d="M65.7691 19.2688L65.5194 19.1674L65.4258 19.0737C65.5389 19.1362 65.656 19.2025 65.7691 19.2688Z" fill="#F5F5F5"/>
<path d="M72.1584 21.4865C70.561 19.5964 68.8661 18.1467 66.9765 17.0712L66.9687 17.0634L66.9258 17.0439L66.9063 17.0244L66.8869 17.0166L66.9258 17.0556C68.8272 18.135 70.5415 19.5886 72.1467 21.4904C72.887 22.3633 73.5259 23.3493 74.0441 24.4287C73.5454 23.3493 72.9065 22.3555 72.1584 21.4865ZM65.4258 19.0781L65.5193 19.1716L65.7686 19.273C65.6557 19.2028 65.5388 19.1366 65.4258 19.0781Z" fill="#F5F5F5"/>
<path d="M72.1543 21.4865C70.5569 19.5964 68.8621 18.1467 66.9724 17.0712L66.9646 17.0634L66.9218 17.0439L66.9023 17.0244L66.8828 17.0166L66.9218 17.0556C68.8231 18.135 70.5374 19.5886 72.1427 21.4904C72.8829 22.3633 73.5219 23.3493 74.0401 24.4287C73.5414 23.3493 72.9024 22.3555 72.1543 21.4865Z" fill="#F5F5F5"/>
<path d="M72.1543 21.4865C70.5569 19.5964 68.8621 18.1467 66.9724 17.0712L66.9646 17.0634L66.9218 17.0439L66.9023 17.0244L66.8828 17.0166L66.9218 17.0556C68.8231 18.135 70.5374 19.5886 72.1427 21.4904C72.8829 22.3633 73.5219 23.3493 74.0401 24.4287C73.5414 23.3493 72.9024 22.3555 72.1543 21.4865Z" fill="#F5F5F5"/>
<path d="M97.1271 16.6538C97.1271 20.9483 93.6439 24.4245 89.3581 24.4244L74.0461 24.4244C73.5435 23.345 72.9046 22.3551 72.1565 21.4822C70.5591 19.5922 68.8642 18.1425 66.9746 17.0669L66.9668 17.0591L66.9239 17.0396L66.9044 17.0201L66.885 17.0123L66.6005 16.8642C66.4681 16.7941 66.3356 16.724 66.2031 16.6538L97.1271 16.6538Z" fill="#F5F5F5"/>
</svg>
