<svg width="138" height="133" viewBox="0 0 138 133" fill="none" xmlns="http://www.w3.org/2000/svg">
<path d="M93.2205 41.0054C93.2205 47.1689 88.3424 52.1854 82.3472 52.1854C81.8529 52.1869 81.3591 52.1514 80.8699 52.0791C79.4634 51.8862 78.1087 51.4055 76.8859 50.6654C76.5612 50.4719 76.2469 50.2603 75.9446 50.0315L75.7983 49.9213L71.4718 46.6343L70.9358 46.2198L72.2716 45.2035L75.4847 42.7597L76.8859 43.8234L78.9513 45.3958L79.2521 45.6235L79.2992 45.6571C80.198 46.2865 81.2608 46.6221 82.3483 46.6199C83.2022 46.6204 84.0443 46.4151 84.807 46.0203C85.5697 45.6256 86.2318 45.0524 86.74 44.347C87.2483 43.6415 87.5885 42.8233 87.7335 41.958C87.8784 41.0928 87.824 40.2047 87.5747 39.3651C87.3253 38.5254 86.8879 37.7575 86.2976 37.1232C85.7073 36.4888 84.9806 36.0056 84.1757 35.7123C83.3709 35.419 82.5104 35.3239 81.6633 35.4345C80.8162 35.5451 80.0061 35.8585 79.2982 36.3493L79.2521 36.3846C79.1486 36.4573 79.0505 36.529 78.9519 36.6133L73.1738 41.0054L71.4761 42.2973L68.626 44.4655L61.4515 49.9219L61.3057 50.0321C60.0059 51.0174 58.5051 51.6855 56.917 51.9859C56.7417 52.025 56.5638 52.0537 56.381 52.0796C55.8917 52.1519 55.3979 52.1875 54.9036 52.186C52.9837 52.1907 51.0974 51.6676 49.4402 50.6709C46.2078 48.7314 44.0261 45.1285 44.0293 41.0104C44.0293 34.843 48.9074 29.8309 54.9025 29.8309C55.3947 29.8277 55.8865 29.861 56.374 29.9306C58.1158 30.173 59.7735 30.8496 61.2027 31.9015L61.5319 32.1529L66.351 35.8119L64.991 36.8464L61.7967 39.2764L58.2957 36.6094C58.1971 36.5279 58.0979 36.4546 57.9945 36.3824L57.9473 36.3487C57.049 35.7181 55.986 35.3816 54.8982 35.3837C53.4491 35.3837 52.0593 35.9756 51.0346 37.0291C50.01 38.0827 49.4343 39.5116 49.4343 41.0015C49.4343 42.4915 50.01 43.9204 51.0346 44.974C52.0593 46.0275 53.4491 46.6194 54.8982 46.6194C55.9861 46.6227 57.0494 46.2875 57.9484 45.6576L57.9939 45.6229C58.0979 45.5502 58.1955 45.4785 58.2947 45.3942L64.0744 41.0054L65.7018 39.767L68.6238 37.5464L75.7136 32.1529L76.0422 31.9026C77.4652 30.8528 79.117 30.1781 80.8527 29.9378L80.8614 29.9323L80.8715 29.9328C81.3608 29.8605 81.8545 29.825 82.3488 29.8265C88.3419 29.8237 93.221 34.8353 93.2205 41.0054Z" fill="white"/>
<g clip-path="url(#clip0_290_9203)">
<path d="M86.2479 101.562C85.616 101.216 85.0926 100.705 84.7345 100.085C84.3694 99.4365 84.1777 98.7068 84.1777 97.9648C84.1777 97.2228 84.3694 96.493 84.7345 95.8444C85.0951 95.23 85.6183 94.724 86.2479 94.3805C86.8911 94.0355 87.6115 93.8547 88.3436 93.8547C89.0757 93.8547 89.7961 94.0355 90.4393 94.3805C91.0678 94.7234 91.5891 95.2297 91.9466 95.8444C92.308 96.4942 92.4975 97.2235 92.4975 97.9648C92.4975 98.706 92.308 99.4353 91.9466 100.085C91.5917 100.705 91.0701 101.216 90.4393 101.562C89.7958 101.906 89.0754 102.086 88.3436 102.086C87.6117 102.086 86.8914 101.906 86.2479 101.562ZM89.7836 100.579C90.2076 100.335 90.5516 99.9758 90.7746 99.5445C91.0225 99.0554 91.1454 98.5138 91.1323 97.967C91.1463 97.4266 91.0261 96.8911 90.782 96.4071C90.5601 95.9751 90.2159 95.6159 89.7911 95.3732C89.3478 95.1376 88.8523 95.0143 88.3488 95.0143C87.8454 95.0143 87.3498 95.1376 86.9065 95.3732C86.4811 95.6151 86.1367 95.9745 85.9156 96.4071C85.6657 96.8895 85.5402 97.4253 85.5503 97.967C85.538 98.5109 85.6609 99.0494 85.9081 99.5357C86.1305 99.9674 86.4746 100.327 86.8991 100.57C87.341 100.809 87.8371 100.935 88.3413 100.935C88.8456 100.935 89.3417 100.809 89.7836 100.57V100.579Z" fill="white"/>
<path d="M95.7215 100.827L97.5523 95.6318H98.9698L96.5074 102.009H94.9192L92.4688 95.6318H93.8983L95.7215 100.827Z" fill="white"/>
<path d="M105.274 99.3111H100.334C100.354 99.7791 100.561 100.22 100.909 100.539C101.255 100.848 101.709 101.013 102.176 101.001C102.894 101.001 103.402 100.705 103.7 100.115H105.153C104.963 100.694 104.591 101.198 104.092 101.555C103.536 101.942 102.866 102.14 102.186 102.116C101.606 102.126 101.034 101.984 100.528 101.706C100.041 101.435 99.6428 101.034 99.378 100.549C99.0915 100.016 98.9483 99.4204 98.9618 98.8177C98.9489 98.217 99.0878 97.6226 99.366 97.088C99.6234 96.6032 100.019 96.2033 100.504 95.9374C101.019 95.6606 101.599 95.5211 102.186 95.5326C102.751 95.5229 103.309 95.6567 103.806 95.9211C104.276 96.1769 104.663 96.5603 104.92 97.026C105.193 97.5291 105.331 98.0933 105.319 98.6641C105.322 98.8806 105.307 99.097 105.274 99.3111ZM103.927 98.2461C103.932 98.0251 103.887 97.8058 103.796 97.6039C103.705 97.4019 103.57 97.2223 103.4 97.0777C103.044 96.7793 102.589 96.6215 102.122 96.6346C101.686 96.6249 101.262 96.7797 100.938 97.0674C100.601 97.373 100.391 97.7918 100.351 98.2417L103.927 98.2461Z" fill="white"/>
<path d="M108.162 95.8004C108.517 95.6117 108.915 95.518 109.318 95.5286V96.8935H108.978C108.454 96.8935 108.055 97.0245 107.781 97.2864C107.506 97.5484 107.372 98.0038 107.377 98.6527V102.009H106.049V95.632H107.386V96.5582C107.572 96.242 107.84 95.9804 108.162 95.8004Z" fill="white"/>
<path d="M110.942 101.84C110.565 101.678 110.235 101.424 109.986 101.101C109.755 100.798 109.624 100.433 109.611 100.054H110.988C111.001 100.188 111.042 100.318 111.11 100.435C111.177 100.551 111.27 100.652 111.381 100.731C111.64 100.919 111.957 101.014 112.279 101.002C112.585 101.021 112.89 100.946 113.152 100.788C113.247 100.73 113.325 100.65 113.38 100.553C113.434 100.457 113.463 100.349 113.463 100.239C113.466 100.126 113.434 100.015 113.373 99.9205C113.311 99.8257 113.222 99.7513 113.117 99.707C112.764 99.5469 112.397 99.4188 112.02 99.3244C111.619 99.2193 111.225 99.0915 110.839 98.9418C110.533 98.8171 110.262 98.6227 110.047 98.3746C109.814 98.0906 109.695 97.7321 109.713 97.3672C109.71 97.0335 109.815 96.7073 110.012 96.4367C110.235 96.1391 110.537 95.9085 110.885 95.7705C111.3 95.6019 111.745 95.5194 112.194 95.5282C112.928 95.5282 113.52 95.7114 113.97 96.0777C114.193 96.2607 114.374 96.4895 114.498 96.7482C114.622 97.0069 114.688 97.2892 114.69 97.5755H113.354C113.347 97.4437 113.312 97.3148 113.252 97.1972C113.191 97.0796 113.106 96.976 113.002 96.8931C112.758 96.7138 112.459 96.6235 112.156 96.6375C111.872 96.6193 111.589 96.6879 111.346 96.834C111.259 96.8901 111.187 96.9673 111.138 97.0582C111.088 97.1491 111.063 97.2509 111.065 97.3539C111.063 97.4344 111.079 97.5142 111.112 97.588C111.144 97.6619 111.192 97.7281 111.252 97.7823C111.385 97.9022 111.54 97.9946 111.71 98.0541C111.89 98.1201 112.156 98.2033 112.508 98.3037C112.901 98.4018 113.287 98.5272 113.662 98.6789C113.962 98.8052 114.228 98.9972 114.442 99.2402C114.672 99.5167 114.793 99.8663 114.782 100.224C114.788 100.571 114.683 100.911 114.482 101.196C114.263 101.494 113.965 101.726 113.62 101.867C113.206 102.037 112.76 102.12 112.312 102.11C111.841 102.119 111.373 102.027 110.942 101.84Z" fill="white"/>
<path d="M121.517 99.3114H116.577C116.597 99.7794 116.803 100.221 117.152 100.539C117.498 100.848 117.951 101.014 118.418 101.001C119.137 101.001 119.645 100.706 119.942 100.115H121.385C121.195 100.694 120.823 101.198 120.324 101.555C119.768 101.942 119.098 102.14 118.418 102.116C117.838 102.126 117.265 101.984 116.758 101.706C116.273 101.435 115.875 101.034 115.61 100.549C115.323 100.017 115.179 99.4209 115.192 98.8181C115.179 98.2145 115.32 97.6173 115.601 97.081C115.858 96.5962 116.254 96.1962 116.739 95.9303C117.254 95.6535 117.834 95.514 118.421 95.5256C118.99 95.5154 119.551 95.6508 120.051 95.9185C120.521 96.1747 120.908 96.558 121.165 97.0234C121.437 97.5268 121.574 98.0908 121.563 98.6615C121.565 98.879 121.55 99.0963 121.517 99.3114ZM120.169 98.2464C120.174 98.0254 120.129 97.8061 120.038 97.6042C119.947 97.4022 119.812 97.2226 119.643 97.078C119.286 96.7797 118.831 96.6218 118.364 96.6349C117.928 96.6251 117.504 96.7799 117.179 97.0677C116.842 97.3734 116.633 97.7922 116.593 98.242L120.169 98.2464Z" fill="white"/>
<path d="M122.249 97.0899C122.501 96.6143 122.881 96.2168 123.348 95.9413C123.815 95.6658 124.35 95.5229 124.894 95.5285C125.355 95.5182 125.812 95.6196 126.224 95.824C126.579 96.0011 126.889 96.2533 127.133 96.5625V95.6364H128.48V102.013H127.133V101.063C126.887 101.381 126.57 101.639 126.207 101.815C125.757 102.032 125.26 102.135 124.761 102.114C124.261 102.093 123.775 101.948 123.346 101.694C122.878 101.406 122.499 100.997 122.249 100.512C121.973 99.9811 121.834 99.3911 121.845 98.7944C121.832 98.2018 121.971 97.6156 122.249 97.0899ZM126.859 97.6718C126.692 97.3652 126.442 97.1097 126.138 96.9333C125.917 96.8061 125.672 96.724 125.419 96.6916C125.165 96.6592 124.908 96.6773 124.661 96.7447C124.415 96.8122 124.184 96.9277 123.984 97.0844C123.784 97.2411 123.617 97.4358 123.494 97.6571C123.303 98.0069 123.208 98.4001 123.219 98.7974C123.209 99.1998 123.304 99.5979 123.494 99.954C123.66 100.269 123.912 100.531 124.222 100.712C124.51 100.883 124.84 100.973 125.177 100.973C125.514 100.975 125.846 100.886 126.138 100.718C126.443 100.54 126.693 100.281 126.859 99.9717C127.05 99.6173 127.144 99.2206 127.135 98.8196C127.145 98.4199 127.05 98.0243 126.859 97.6718Z" fill="white"/>
<path d="M130.63 101.84C130.252 101.678 129.923 101.424 129.673 101.102C129.443 100.799 129.312 100.433 129.299 100.054H130.682C130.694 100.188 130.736 100.318 130.803 100.435C130.871 100.552 130.963 100.653 131.074 100.731C131.334 100.919 131.65 101.015 131.972 101.003C132.279 101.021 132.583 100.946 132.845 100.788C132.94 100.731 133.019 100.65 133.073 100.554C133.128 100.458 133.156 100.349 133.156 100.239C133.159 100.126 133.128 100.015 133.066 99.9207C133.005 99.8259 132.916 99.7515 132.811 99.7072C132.457 99.5469 132.09 99.4188 131.713 99.3246C131.312 99.2201 130.916 99.0928 130.529 98.9435C130.224 98.8188 129.952 98.6244 129.737 98.3763C129.505 98.0923 129.386 97.7338 129.404 97.3689C129.4 97.0352 129.505 96.709 129.703 96.4384C129.926 96.1408 130.228 95.9102 130.576 95.7722C130.99 95.6036 131.436 95.5211 131.884 95.5299C132.618 95.5299 133.211 95.7131 133.661 96.0794C133.884 96.2624 134.064 96.4912 134.188 96.7499C134.313 97.0086 134.378 97.2909 134.381 97.5772H133.044C133.037 97.4454 133.003 97.3165 132.942 97.1989C132.881 97.0813 132.796 96.9777 132.692 96.8948C132.446 96.7141 132.144 96.6242 131.838 96.6407C131.554 96.6225 131.271 96.6911 131.028 96.8372C130.94 96.8933 130.868 96.9705 130.819 97.0614C130.77 97.1523 130.745 97.2541 130.746 97.3571C130.745 97.4375 130.761 97.5174 130.793 97.5912C130.825 97.6651 130.873 97.7313 130.933 97.7855C131.066 97.9054 131.222 97.9978 131.392 98.0573C131.571 98.1237 131.841 98.205 132.188 98.3069C132.582 98.4048 132.968 98.5302 133.343 98.6821C133.643 98.8084 133.91 99.0003 134.123 99.2434C134.354 99.5199 134.474 99.8694 134.463 100.227C134.469 100.574 134.364 100.914 134.164 101.199C133.945 101.497 133.646 101.729 133.302 101.87C132.888 102.04 132.442 102.123 131.993 102.113C131.524 102.121 131.059 102.027 130.63 101.84Z" fill="white"/>
<path d="M14.5373 91.9968L9.46278 83.1533H7.28927V91.9968H2.67578V69.3113H11.3085C13.0878 69.3113 14.6032 69.62 15.8546 70.2374C17.106 70.8549 18.0451 71.6894 18.6718 72.7411C19.3025 73.8114 19.6269 75.0305 19.6103 76.2685C19.6243 77.7224 19.1623 79.1418 18.2931 80.3158C17.4139 81.5201 16.1071 82.3493 14.3727 82.8032L19.8753 92.0042L14.5373 91.9968ZM7.28927 79.7368H11.1453C12.3967 79.7368 13.3303 79.4389 13.946 78.8431C14.5618 78.2473 14.8691 77.4182 14.8681 76.3556C14.8681 75.3157 14.5608 74.5083 13.946 73.9332C13.3313 73.3581 12.3977 73.072 11.1453 73.075H7.28927V79.7368Z" fill="white"/>
<path d="M102.605 84.3512H89.7318C89.8386 85.6038 90.2832 86.5856 91.0656 87.2965C91.8533 88.0114 92.8923 88.395 93.9621 88.366C95.6127 88.366 96.7878 87.6663 97.4873 86.267H102.277C101.784 87.9176 100.758 89.3641 99.3555 90.3867C97.9154 91.464 96.1481 92.0021 94.0534 92.0011C92.462 92.0265 90.8913 91.6433 89.4953 90.8889C88.1626 90.1589 87.0713 89.0656 86.3518 87.7397C85.6003 86.3817 85.2246 84.815 85.2246 83.0395C85.2246 81.2423 85.5953 79.6668 86.3368 78.3127C87.0411 76.9909 88.1225 75.9017 89.4474 75.1798C90.7826 74.4481 92.318 74.0823 94.0534 74.0823C95.6176 74.057 97.1628 74.424 98.5441 75.1488C99.8473 75.8393 100.918 76.8902 101.625 78.1724C102.355 79.4782 102.721 80.977 102.721 82.6687C102.729 83.2317 102.69 83.7944 102.605 84.3512ZM98.128 81.3969C98.107 80.2704 97.6944 79.3669 96.89 78.6864C96.0857 78.006 95.1012 77.6667 93.9366 77.6687C92.8389 77.6687 91.9128 77.9976 91.1584 78.6554C90.4039 79.3132 89.9434 80.2271 89.7767 81.3969H98.128Z" fill="white"/>
<path d="M110.017 69.3113V92.0588H105.393V69.3113H110.017Z" fill="white"/>
<path d="M117.308 69.2195V92.0483H112.684V69.2195H117.308Z" fill="white"/>
<path d="M123.778 91.2285C122.708 90.7736 121.773 90.0562 121.063 89.1443C120.41 88.3035 120.028 87.2878 119.969 86.2299H124.445C124.486 86.5602 124.596 86.8784 124.769 87.1645C124.941 87.4505 125.172 87.6981 125.446 87.8917C126.027 88.3308 126.752 88.55 127.621 88.549C128.467 88.549 129.129 88.3821 129.606 88.0482C129.825 87.911 130.006 87.7211 130.131 87.4964C130.255 87.2717 130.321 87.0194 130.32 86.7631C130.32 86.1989 130.029 85.7759 129.447 85.4943C128.865 85.2127 127.939 84.9044 126.667 84.5696C125.571 84.3226 124.494 83.9978 123.445 83.5977C122.61 83.2655 121.869 82.7389 121.285 82.063C120.686 81.3736 120.386 80.444 120.386 79.2742C120.381 78.3315 120.675 77.4108 121.228 76.642C121.789 75.8483 122.594 75.2215 123.641 74.7616C124.688 74.3017 125.921 74.0718 127.341 74.0718C129.437 74.0718 131.109 74.5888 132.359 75.6227C133.608 76.6567 134.296 78.0516 134.423 79.8074H130.161C130.141 79.4879 130.053 79.1761 129.902 78.8926C129.751 78.609 129.542 78.36 129.287 78.1619C128.769 77.7542 128.076 77.5504 127.208 77.5504C126.402 77.5504 125.783 77.6981 125.35 77.9935C125.145 78.1235 124.977 78.3036 124.863 78.5163C124.749 78.729 124.693 78.9671 124.699 79.2077C124.699 79.7985 124.995 80.2417 125.588 80.5371C126.181 80.8325 127.102 81.1427 128.351 81.4677C129.421 81.7188 130.471 82.0436 131.495 82.4396C132.326 82.7777 133.062 83.31 133.639 83.9906C134.237 84.6908 134.55 85.6149 134.576 86.7631C134.59 87.7258 134.298 88.6687 133.74 89.4589C133.18 90.2516 132.376 90.873 131.327 91.323C130.278 91.773 129.056 91.9975 127.66 91.9966C126.325 92.0195 125.001 91.7575 123.778 91.2285Z" fill="white"/>
<path d="M73.7676 74.0718C73.3588 74.071 72.9506 74.0996 72.5461 74.1575C72.5397 74.1558 72.533 74.1558 72.5266 74.1575C71.0597 74.3555 69.6668 74.9142 68.476 75.7823L68.3472 75.8753L62.4255 80.1989L60.0124 81.9596L58.6652 82.9419L53.9589 86.3717C53.8327 86.4778 53.7002 86.5764 53.5623 86.6671C52.8279 87.1434 51.9681 87.3966 51.0893 87.3954C49.9064 87.3741 48.7792 86.8955 47.9503 86.0625C47.1213 85.2294 46.6569 84.1086 46.6569 82.9411C46.6569 81.7736 47.1213 80.6528 47.9503 79.8198C48.7792 78.9868 49.9064 78.5081 51.0893 78.4869C51.9658 78.4843 52.8239 78.7349 53.5578 79.2077C53.6976 79.2978 53.8316 79.3964 53.9589 79.5031L56.7881 81.5711L59.4242 79.6509L60.5483 78.8325L56.5067 75.8783L56.357 75.7734C55.166 74.9112 53.7758 74.3558 52.3123 74.1575C51.9078 74.0996 51.4996 74.071 51.0908 74.0718C48.7098 74.0749 46.4272 75.0097 44.7435 76.6711C43.0598 78.3325 42.1125 80.5849 42.1094 82.9345V102.195H46.5807V90.6007C47.9493 91.3919 49.5076 91.8076 51.0938 91.8046C51.5025 91.8059 51.9108 91.7777 52.3153 91.7204C52.465 91.7012 52.6147 91.679 52.7644 91.648C54.0378 91.4166 55.2442 90.9123 56.2986 90.1709L56.598 89.9567L62.4449 85.6863L64.8011 83.967L64.8594 83.9256L66.2067 82.9433L70.886 79.5031C70.9998 79.4101 71.1165 79.3259 71.2363 79.2461L71.2632 79.2299C71.8943 78.8158 72.6209 78.5653 73.3759 78.5016C74.131 78.4378 74.8902 78.5628 75.5833 78.865C76.5297 79.2783 77.3034 79.9999 77.775 80.9089C78.2466 81.8179 78.3874 82.8592 78.1738 83.8584C77.9602 84.8577 77.4051 85.7541 76.6017 86.3977C75.7982 87.0414 74.795 87.393 73.7601 87.3939C72.8718 87.3987 72.0024 87.1415 71.2632 86.6553L71.2363 86.6406C71.1165 86.5608 70.9998 86.4751 70.886 86.3835L69.2529 85.1915L68.0943 84.3466L65.4432 86.2683L64.7816 86.7528V102.195H69.2529V90.6007C70.2642 91.1864 71.3838 91.5671 72.5461 91.7204C72.9506 91.7777 73.3589 91.8059 73.7676 91.8046C76.1496 91.8046 78.4341 90.8708 80.1184 89.2087C81.8028 87.5467 82.749 85.2924 82.749 82.9419C82.749 80.5913 81.8028 78.3371 80.1184 76.675C78.4341 75.0129 76.1496 74.0792 73.7676 74.0792V74.0718Z" fill="white"/>
<path d="M35.1865 74.0718V83.5681C35.1922 84.629 34.7762 85.6499 34.0279 86.4117C33.2796 87.1734 32.2586 87.6155 31.1838 87.6429C30.109 87.6704 29.0662 87.281 28.2789 86.5585C27.4917 85.8359 27.0228 84.8377 26.9729 83.7779V74.0718H22.5391V83.5681C22.5405 85.0778 22.9524 86.5594 23.7317 87.8584C24.5111 89.1575 25.6293 90.2264 26.9699 90.9537C28.2701 91.6569 29.7333 92.0139 31.2157 91.9897C32.6981 91.9655 34.1486 91.5609 35.4245 90.8157C36.7003 90.0705 37.7576 89.0103 38.4922 87.7395C39.2269 86.4688 39.6136 85.0312 39.6143 83.5681V74.0718H35.1865Z" fill="white"/>
</g>
<defs>
<clipPath id="clip0_290_9203">
<rect width="131.9" height="32.9751" fill="white" transform="translate(2.67578 69.2195)"/>
</clipPath>
</defs>
</svg>
