<svg xmlns="http://www.w3.org/2000/svg" width="147" height="39" viewBox="0 0 147 39" fill="none">
<mask id="path-1-outside-1_865_17214" maskUnits="userSpaceOnUse" x="-0.15625" y="-0.693359" width="147" height="40" fill="black">
<rect fill="white" x="-0.15625" y="-0.693359" width="147" height="40"/>
<path d="M13.9329 25.77L8.33317 15.8843H5.93471V25.77H0.84375V0.397665H10.3699C12.3334 0.397665 14.0056 0.743316 15.3865 1.43462C16.7674 2.12592 17.8037 3.0583 18.4953 4.23175C19.1912 5.42814 19.5492 6.79098 19.531 8.17482C19.5461 9.80051 19.0364 11.3877 18.0773 12.7008C17.1072 14.0448 15.6651 14.9712 13.7512 15.4797L19.8233 25.77H13.9329ZM5.93471 12.0651H10.1898C11.5708 12.0651 12.601 11.7321 13.2804 11.0661C13.9599 10.4001 14.299 9.47322 14.2979 8.28545C14.2979 7.12301 13.9588 6.2209 13.2804 5.57914C12.6021 4.93737 11.5719 4.61538 10.1898 4.61318H5.93471V12.0651Z"/>
<path d="M111.119 17.2222H96.913C97.0308 18.6224 97.5214 19.72 98.3848 20.5147C99.2531 21.3104 100.397 21.7373 101.574 21.7052C103.396 21.7052 104.693 20.9231 105.465 19.3589H110.75C110.206 21.2045 109.074 22.822 107.526 23.9657C105.945 25.1711 103.998 25.7738 101.687 25.7738C99.9307 25.8022 98.1974 25.3737 96.657 24.5304C95.1864 23.7144 93.9821 22.4923 93.1881 21.0101C92.3589 19.4921 91.9443 17.7407 91.9443 15.756C91.9443 13.7481 92.3534 11.9868 93.1716 10.4721C93.9483 8.99371 95.1418 7.77549 96.6041 6.96827C98.0776 6.15037 99.7718 5.74198 101.687 5.74308C103.413 5.71436 105.118 6.12398 106.642 6.93359C108.08 7.70555 109.262 8.88024 110.042 10.3136C110.848 11.7733 111.251 13.4487 111.251 15.3399C111.259 15.9699 111.214 16.5995 111.119 17.2222ZM106.178 13.9297C106.155 12.6682 105.7 11.6582 104.812 10.8998C103.925 10.1413 102.836 9.76045 101.546 9.75715C100.335 9.75715 99.3131 10.1254 98.4806 10.8618C97.6481 11.5982 97.1399 12.6198 96.956 13.9264L106.178 13.9297Z"/>
<path d="M119.292 0.397665V25.8262H114.189V0.397665H119.292Z"/>
<path d="M127.34 0.306641V25.826H122.238V0.306641H127.34Z"/>
<path d="M134.481 24.91C133.3 24.4022 132.268 23.6007 131.485 22.5818C130.764 21.6418 130.343 20.5065 130.277 19.324H135.216C135.262 19.693 135.384 20.0485 135.574 20.3679C135.764 20.6874 136.019 20.9639 136.321 21.1799C136.962 21.6709 137.762 21.9164 138.721 21.9164C139.655 21.9164 140.385 21.7292 140.912 21.355C141.154 21.2015 141.353 20.9893 141.491 20.7381C141.629 20.4869 141.7 20.2049 141.7 19.9184C141.7 19.2899 141.379 18.8171 140.737 18.5C140.095 18.183 139.072 17.8385 137.669 17.4664C136.459 17.1899 135.271 16.8274 134.113 16.3815C133.191 16.0095 132.374 15.4204 131.729 14.6643C131.068 13.8937 130.738 12.8546 130.738 11.5468C130.729 10.4926 131.051 9.46221 131.66 8.60108C132.28 7.72044 133.167 7.02088 134.323 6.5024C135.478 5.98393 136.839 5.72744 138.406 5.73294C140.718 5.73294 142.564 6.31087 143.943 7.46671C145.322 8.62255 146.081 10.1813 146.221 12.1429H141.525C141.502 11.7857 141.405 11.4372 141.239 11.1203C141.072 10.8033 140.841 10.5249 140.56 10.3035C139.988 9.84774 139.224 9.61987 138.266 9.61987C137.377 9.61987 136.694 9.78499 136.216 10.1152C135.988 10.2616 135.802 10.4645 135.676 10.7041C135.55 10.9437 135.488 11.2119 135.497 11.4824C135.497 12.1363 135.824 12.6317 136.478 12.9685C137.132 13.3054 138.149 13.6488 139.527 13.9989C140.708 14.2796 141.867 14.6427 142.996 15.0853C143.914 15.4633 144.725 16.0583 145.362 16.8191C146.023 17.6018 146.367 18.6349 146.396 19.9184C146.412 20.9946 146.089 22.0486 145.474 22.9319C144.856 23.8191 143.969 24.5137 142.811 25.0157C141.654 25.5176 140.302 25.7703 138.756 25.7736C137.286 25.7964 135.827 25.5019 134.481 24.91Z"/>
<path d="M79.2909 5.73291C78.8399 5.73144 78.3894 5.7629 77.943 5.82703C77.936 5.82513 77.9286 5.82513 77.9215 5.82703C76.3028 6.04838 74.7658 6.67296 73.4517 7.64335L73.3096 7.74737L66.775 12.5804L57.4322 19.4825C57.2929 19.601 57.1467 19.7113 56.9944 19.8127C56.1843 20.3457 55.2355 20.6293 54.2656 20.6284C52.9602 20.6046 51.7164 20.0696 50.8016 19.1384C49.8869 18.2072 49.3744 16.9543 49.3744 15.6492C49.3744 14.3441 49.8869 13.0912 50.8016 12.16C51.7164 11.2288 52.9602 10.6938 54.2656 10.67C55.2353 10.6686 56.1841 10.9516 56.9944 11.484C57.1465 11.5828 57.2927 11.6903 57.4322 11.806L60.5541 14.1177L63.463 11.9711L64.7036 11.058L60.2436 7.75563L60.0784 7.64004C58.7651 6.67321 57.2309 6.04997 55.6152 5.82703C55.1688 5.7629 54.7183 5.73144 54.2673 5.73291C51.6398 5.7364 49.1209 6.78131 47.263 8.63852C45.4051 10.4957 44.3598 13.0136 44.3563 15.6401V37.1668H49.2903V24.2082C50.8006 25.0927 52.5201 25.5573 54.2706 25.5539C54.7216 25.5554 55.1721 25.5239 55.6185 25.4598C55.7836 25.4383 55.9488 25.4136 56.114 25.3789C57.5192 25.1202 58.8504 24.5566 60.014 23.7277L60.3444 23.4883L69.3964 16.7943L69.4608 16.7464L70.9475 15.6484L76.1343 11.8093C76.2598 11.707 76.3886 11.6112 76.5208 11.522L76.5505 11.5039C77.2472 11.0417 78.049 10.7622 78.8821 10.6913C79.7153 10.6203 80.5528 10.76 81.3177 11.0977C82.362 11.5596 83.2159 12.3662 83.7363 13.3824C84.2566 14.3986 84.412 15.5626 84.1763 16.6796C83.9405 17.7966 83.3281 18.7987 82.4414 19.5182C81.5548 20.2376 80.4478 20.6307 79.3058 20.6317C78.3257 20.6363 77.3664 20.3489 76.5505 19.8061L76.5208 19.7879C76.3886 19.6988 76.2598 19.6047 76.1343 19.5006L74.3321 18.1665L73.0536 17.222L69.3981 19.925V37.1668H74.3321V24.2082C75.4478 24.8636 76.6834 25.2892 77.9661 25.4598C78.4125 25.5239 78.863 25.5554 79.314 25.5539C81.9426 25.5539 84.4635 24.5101 86.3222 22.6522C88.1809 20.7942 89.225 18.2743 89.225 15.6467C89.225 13.0192 88.1809 10.4992 86.3222 8.64126C84.4635 6.7833 81.9426 5.73951 79.314 5.73951L79.2909 5.73291Z"/>
<path d="M36.7223 5.73286V16.3468C36.7285 17.5327 36.2696 18.6739 35.4438 19.5254C34.6181 20.377 33.4913 20.8711 32.3053 20.9018C31.1193 20.9325 29.9685 20.4973 29.0998 19.6895C28.2311 18.8818 27.7137 17.7659 27.6586 16.5812V5.73286H22.7659V16.3468C22.7675 18.0343 23.222 19.6905 24.082 21.1427C24.942 22.5948 26.176 23.7897 27.6553 24.6028C29.0901 25.3883 30.7047 25.787 32.3403 25.7597C33.976 25.7324 35.5764 25.2801 36.9841 24.4471C38.3918 23.6142 39.5585 22.4293 40.3692 21.009C41.18 19.5888 41.6071 17.982 41.6084 16.3468V5.73286H36.7223Z"/>
<path d="M110.542 31.2896C110.294 30.7504 109.891 30.2973 109.384 29.9881C108.851 29.6725 108.24 29.5125 107.62 29.5261C106.985 29.5164 106.359 29.6758 105.806 29.9881C105.266 30.2991 104.826 30.7581 104.538 31.3109C104.234 31.9294 104.076 32.6093 104.076 33.2984C104.076 33.9876 104.234 34.6675 104.538 35.286C104.827 35.8358 105.267 36.292 105.806 36.6014C106.359 36.9136 106.985 37.073 107.62 37.0633C108.557 37.0633 109.329 36.7831 109.936 36.2227C110.543 35.6622 110.897 34.9044 110.999 33.9492H107.168V32.9293H112.336V33.8895C112.268 34.6628 112.011 35.4077 111.589 36.0594C111.173 36.7104 110.6 37.2461 109.922 37.617C109.217 38.0021 108.424 38.1991 107.62 38.1888C106.766 38.1986 105.924 37.9822 105.18 37.5615C104.451 37.1504 103.848 36.548 103.437 35.8194C103.016 35.0442 102.795 34.1762 102.795 33.2942C102.795 32.4122 103.016 31.5442 103.437 30.769C103.847 30.0374 104.45 29.4322 105.18 29.0194C105.924 28.5987 106.766 28.3823 107.62 28.3921C108.578 28.3751 109.519 28.6384 110.329 29.1495C111.116 29.6571 111.718 30.4055 112.045 31.2832L110.542 31.2896Z"/>
<path d="M118.389 38.2057L116.055 34.1997H114.508V38.2057H113.228V28.4089H116.391C117.132 28.4089 117.758 28.5355 118.268 28.7887C118.744 29.0094 119.143 29.3663 119.415 29.8139C119.695 30.3203 119.825 30.8962 119.79 31.474C119.754 32.0518 119.554 32.6073 119.213 33.0753C118.824 33.5909 118.24 33.933 117.463 34.1015L119.917 38.2057H118.389ZM114.508 33.1734H116.392C117.086 33.1734 117.606 33.0023 117.954 32.6602C118.301 32.3181 118.474 31.8615 118.473 31.2904C118.473 30.7094 118.302 30.2595 117.96 29.9409C117.618 29.6223 117.095 29.4629 116.392 29.4629H114.508V33.1734Z"/>
<path d="M122.91 37.5796C122.18 37.1685 121.577 36.5652 121.166 35.8353C120.745 35.059 120.524 34.1899 120.524 33.3069C120.524 32.4238 120.745 31.5548 121.166 30.7785C121.576 30.0469 122.179 29.4417 122.91 29.0289C123.659 28.6173 124.501 28.4016 125.356 28.4016C126.212 28.4016 127.053 28.6173 127.803 29.0289C128.531 29.4398 129.132 30.0429 129.539 30.7721C129.956 31.5522 130.173 32.4227 130.173 33.3069C130.173 34.191 129.956 35.0616 129.539 35.8417C129.132 36.5711 128.531 37.1743 127.803 37.5849C127.053 37.9964 126.212 38.2122 125.356 38.2122C124.501 38.2122 123.659 37.9964 122.91 37.5849V37.5796ZM127.162 36.6493C127.703 36.3339 128.143 35.8705 128.43 35.3136C128.734 34.6853 128.892 33.9963 128.892 33.2983C128.892 32.6003 128.734 31.9114 128.43 31.2831C128.143 30.7305 127.706 30.2698 127.169 29.9538C126.612 29.6459 125.986 29.4843 125.349 29.4843C124.713 29.4843 124.087 29.6459 123.53 29.9538C122.993 30.2698 122.556 30.7304 122.268 31.2831C121.964 31.9114 121.806 32.6003 121.806 33.2983C121.806 33.9963 121.964 34.6853 122.268 35.3136C122.556 35.87 122.995 36.3333 123.536 36.6493C124.091 36.9576 124.716 37.1193 125.351 37.1193C125.985 37.1193 126.61 36.9576 127.165 36.6493H127.162Z"/>
<path d="M132.359 28.4001V34.5878C132.359 35.4412 132.568 36.0749 132.985 36.4889C133.403 36.9028 133.984 37.1098 134.729 37.1098C135.464 37.1098 136.041 36.9028 136.459 36.4889C136.878 36.0749 137.087 35.4412 137.087 34.5878V28.4001H138.341V34.5707C138.341 35.3701 138.18 36.0429 137.858 36.5891C137.556 37.1173 137.102 37.5423 136.555 37.8085C135.978 38.0722 135.35 38.2086 134.715 38.2086C134.08 38.2086 133.453 38.0722 132.875 37.8085C132.329 37.5435 131.877 37.118 131.58 36.5891C131.262 36.0429 131.104 35.3701 131.104 34.5707V28.4001H132.359Z"/>
<path d="M145.354 33.3079C144.808 33.8371 143.974 34.1013 142.852 34.1006H141.005V38.1098H139.751V28.4016H142.852C143.937 28.4016 144.761 28.6633 145.326 29.1868C145.892 29.7106 146.18 30.4936 146.18 31.3204C146.189 31.691 146.12 32.0593 145.978 32.4016C145.835 32.744 145.623 33.0527 145.354 33.3079ZM144.394 32.6124C144.724 32.3094 144.89 31.8777 144.89 31.3172C144.89 30.1316 144.21 29.5392 142.849 29.5399H141.005V33.0668H142.852C143.55 33.0668 144.065 32.9154 144.397 32.6124H144.394Z"/>
</mask>
<path d="M13.9329 25.77L8.33317 15.8843H5.93471V25.77H0.84375V0.397665H10.3699C12.3334 0.397665 14.0056 0.743316 15.3865 1.43462C16.7674 2.12592 17.8037 3.0583 18.4953 4.23175C19.1912 5.42814 19.5492 6.79098 19.531 8.17482C19.5461 9.80051 19.0364 11.3877 18.0773 12.7008C17.1072 14.0448 15.6651 14.9712 13.7512 15.4797L19.8233 25.77H13.9329ZM5.93471 12.0651H10.1898C11.5708 12.0651 12.601 11.7321 13.2804 11.0661C13.9599 10.4001 14.299 9.47322 14.2979 8.28545C14.2979 7.12301 13.9588 6.2209 13.2804 5.57914C12.6021 4.93737 11.5719 4.61538 10.1898 4.61318H5.93471V12.0651Z" fill="#474747"/>
<path d="M111.119 17.2222H96.913C97.0308 18.6224 97.5214 19.72 98.3848 20.5147C99.2531 21.3104 100.397 21.7373 101.574 21.7052C103.396 21.7052 104.693 20.9231 105.465 19.3589H110.75C110.206 21.2045 109.074 22.822 107.526 23.9657C105.945 25.1711 103.998 25.7738 101.687 25.7738C99.9307 25.8022 98.1974 25.3737 96.657 24.5304C95.1864 23.7144 93.9821 22.4923 93.1881 21.0101C92.3589 19.4921 91.9443 17.7407 91.9443 15.756C91.9443 13.7481 92.3534 11.9868 93.1716 10.4721C93.9483 8.99371 95.1418 7.77549 96.6041 6.96827C98.0776 6.15037 99.7718 5.74198 101.687 5.74308C103.413 5.71436 105.118 6.12398 106.642 6.93359C108.08 7.70555 109.262 8.88024 110.042 10.3136C110.848 11.7733 111.251 13.4487 111.251 15.3399C111.259 15.9699 111.214 16.5995 111.119 17.2222ZM106.178 13.9297C106.155 12.6682 105.7 11.6582 104.812 10.8998C103.925 10.1413 102.836 9.76045 101.546 9.75715C100.335 9.75715 99.3131 10.1254 98.4806 10.8618C97.6481 11.5982 97.1399 12.6198 96.956 13.9264L106.178 13.9297Z" fill="#474747"/>
<path d="M119.292 0.397665V25.8262H114.189V0.397665H119.292Z" fill="#474747"/>
<path d="M127.34 0.306641V25.826H122.238V0.306641H127.34Z" fill="#474747"/>
<path d="M134.481 24.91C133.3 24.4022 132.268 23.6007 131.485 22.5818C130.764 21.6418 130.343 20.5065 130.277 19.324H135.216C135.262 19.693 135.384 20.0485 135.574 20.3679C135.764 20.6874 136.019 20.9639 136.321 21.1799C136.962 21.6709 137.762 21.9164 138.721 21.9164C139.655 21.9164 140.385 21.7292 140.912 21.355C141.154 21.2015 141.353 20.9893 141.491 20.7381C141.629 20.4869 141.7 20.2049 141.7 19.9184C141.7 19.2899 141.379 18.8171 140.737 18.5C140.095 18.183 139.072 17.8385 137.669 17.4664C136.459 17.1899 135.271 16.8274 134.113 16.3815C133.191 16.0095 132.374 15.4204 131.729 14.6643C131.068 13.8937 130.738 12.8546 130.738 11.5468C130.729 10.4926 131.051 9.46221 131.66 8.60108C132.28 7.72044 133.167 7.02088 134.323 6.5024C135.478 5.98393 136.839 5.72744 138.406 5.73294C140.718 5.73294 142.564 6.31087 143.943 7.46671C145.322 8.62255 146.081 10.1813 146.221 12.1429H141.525C141.502 11.7857 141.405 11.4372 141.239 11.1203C141.072 10.8033 140.841 10.5249 140.56 10.3035C139.988 9.84774 139.224 9.61987 138.266 9.61987C137.377 9.61987 136.694 9.78499 136.216 10.1152C135.988 10.2616 135.802 10.4645 135.676 10.7041C135.55 10.9437 135.488 11.2119 135.497 11.4824C135.497 12.1363 135.824 12.6317 136.478 12.9685C137.132 13.3054 138.149 13.6488 139.527 13.9989C140.708 14.2796 141.867 14.6427 142.996 15.0853C143.914 15.4633 144.725 16.0583 145.362 16.8191C146.023 17.6018 146.367 18.6349 146.396 19.9184C146.412 20.9946 146.089 22.0486 145.474 22.9319C144.856 23.8191 143.969 24.5137 142.811 25.0157C141.654 25.5176 140.302 25.7703 138.756 25.7736C137.286 25.7964 135.827 25.5019 134.481 24.91Z" fill="#474747"/>
<path d="M79.2909 5.73291C78.8399 5.73144 78.3894 5.7629 77.943 5.82703C77.936 5.82513 77.9286 5.82513 77.9215 5.82703C76.3028 6.04838 74.7658 6.67296 73.4517 7.64335L73.3096 7.74737L66.775 12.5804L57.4322 19.4825C57.2929 19.601 57.1467 19.7113 56.9944 19.8127C56.1843 20.3457 55.2355 20.6293 54.2656 20.6284C52.9602 20.6046 51.7164 20.0696 50.8016 19.1384C49.8869 18.2072 49.3744 16.9543 49.3744 15.6492C49.3744 14.3441 49.8869 13.0912 50.8016 12.16C51.7164 11.2288 52.9602 10.6938 54.2656 10.67C55.2353 10.6686 56.1841 10.9516 56.9944 11.484C57.1465 11.5828 57.2927 11.6903 57.4322 11.806L60.5541 14.1177L63.463 11.9711L64.7036 11.058L60.2436 7.75563L60.0784 7.64004C58.7651 6.67321 57.2309 6.04997 55.6152 5.82703C55.1688 5.7629 54.7183 5.73144 54.2673 5.73291C51.6398 5.7364 49.1209 6.78131 47.263 8.63852C45.4051 10.4957 44.3598 13.0136 44.3563 15.6401V37.1668H49.2903V24.2082C50.8006 25.0927 52.5201 25.5573 54.2706 25.5539C54.7216 25.5554 55.1721 25.5239 55.6185 25.4598C55.7836 25.4383 55.9488 25.4136 56.114 25.3789C57.5192 25.1202 58.8504 24.5566 60.014 23.7277L60.3444 23.4883L69.3964 16.7943L69.4608 16.7464L70.9475 15.6484L76.1343 11.8093C76.2598 11.707 76.3886 11.6112 76.5208 11.522L76.5505 11.5039C77.2472 11.0417 78.049 10.7622 78.8821 10.6913C79.7153 10.6203 80.5528 10.76 81.3177 11.0977C82.362 11.5596 83.2159 12.3662 83.7363 13.3824C84.2566 14.3986 84.412 15.5626 84.1763 16.6796C83.9405 17.7966 83.3281 18.7987 82.4414 19.5182C81.5548 20.2376 80.4478 20.6307 79.3058 20.6317C78.3257 20.6363 77.3664 20.3489 76.5505 19.8061L76.5208 19.7879C76.3886 19.6988 76.2598 19.6047 76.1343 19.5006L74.3321 18.1665L73.0536 17.222L69.3981 19.925V37.1668H74.3321V24.2082C75.4478 24.8636 76.6834 25.2892 77.9661 25.4598C78.4125 25.5239 78.863 25.5554 79.314 25.5539C81.9426 25.5539 84.4635 24.5101 86.3222 22.6522C88.1809 20.7942 89.225 18.2743 89.225 15.6467C89.225 13.0192 88.1809 10.4992 86.3222 8.64126C84.4635 6.7833 81.9426 5.73951 79.314 5.73951L79.2909 5.73291Z" fill="#474747"/>
<path d="M36.7223 5.73286V16.3468C36.7285 17.5327 36.2696 18.6739 35.4438 19.5254C34.6181 20.377 33.4913 20.8711 32.3053 20.9018C31.1193 20.9325 29.9685 20.4973 29.0998 19.6895C28.2311 18.8818 27.7137 17.7659 27.6586 16.5812V5.73286H22.7659V16.3468C22.7675 18.0343 23.222 19.6905 24.082 21.1427C24.942 22.5948 26.176 23.7897 27.6553 24.6028C29.0901 25.3883 30.7047 25.787 32.3403 25.7597C33.976 25.7324 35.5764 25.2801 36.9841 24.4471C38.3918 23.6142 39.5585 22.4293 40.3692 21.009C41.18 19.5888 41.6071 17.982 41.6084 16.3468V5.73286H36.7223Z" fill="#474747"/>
<path d="M110.542 31.2896C110.294 30.7504 109.891 30.2973 109.384 29.9881C108.851 29.6725 108.24 29.5125 107.62 29.5261C106.985 29.5164 106.359 29.6758 105.806 29.9881C105.266 30.2991 104.826 30.7581 104.538 31.3109C104.234 31.9294 104.076 32.6093 104.076 33.2984C104.076 33.9876 104.234 34.6675 104.538 35.286C104.827 35.8358 105.267 36.292 105.806 36.6014C106.359 36.9136 106.985 37.073 107.62 37.0633C108.557 37.0633 109.329 36.7831 109.936 36.2227C110.543 35.6622 110.897 34.9044 110.999 33.9492H107.168V32.9293H112.336V33.8895C112.268 34.6628 112.011 35.4077 111.589 36.0594C111.173 36.7104 110.6 37.2461 109.922 37.617C109.217 38.0021 108.424 38.1991 107.62 38.1888C106.766 38.1986 105.924 37.9822 105.18 37.5615C104.451 37.1504 103.848 36.548 103.437 35.8194C103.016 35.0442 102.795 34.1762 102.795 33.2942C102.795 32.4122 103.016 31.5442 103.437 30.769C103.847 30.0374 104.45 29.4322 105.18 29.0194C105.924 28.5987 106.766 28.3823 107.62 28.3921C108.578 28.3751 109.519 28.6384 110.329 29.1495C111.116 29.6571 111.718 30.4055 112.045 31.2832L110.542 31.2896Z" fill="#474747"/>
<path d="M118.389 38.2057L116.055 34.1997H114.508V38.2057H113.228V28.4089H116.391C117.132 28.4089 117.758 28.5355 118.268 28.7887C118.744 29.0094 119.143 29.3663 119.415 29.8139C119.695 30.3203 119.825 30.8962 119.79 31.474C119.754 32.0518 119.554 32.6073 119.213 33.0753C118.824 33.5909 118.24 33.933 117.463 34.1015L119.917 38.2057H118.389ZM114.508 33.1734H116.392C117.086 33.1734 117.606 33.0023 117.954 32.6602C118.301 32.3181 118.474 31.8615 118.473 31.2904C118.473 30.7094 118.302 30.2595 117.96 29.9409C117.618 29.6223 117.095 29.4629 116.392 29.4629H114.508V33.1734Z" fill="#474747"/>
<path d="M122.91 37.5796C122.18 37.1685 121.577 36.5652 121.166 35.8353C120.745 35.059 120.524 34.1899 120.524 33.3069C120.524 32.4238 120.745 31.5548 121.166 30.7785C121.576 30.0469 122.179 29.4417 122.91 29.0289C123.659 28.6173 124.501 28.4016 125.356 28.4016C126.212 28.4016 127.053 28.6173 127.803 29.0289C128.531 29.4398 129.132 30.0429 129.539 30.7721C129.956 31.5522 130.173 32.4227 130.173 33.3069C130.173 34.191 129.956 35.0616 129.539 35.8417C129.132 36.5711 128.531 37.1743 127.803 37.5849C127.053 37.9964 126.212 38.2122 125.356 38.2122C124.501 38.2122 123.659 37.9964 122.91 37.5849V37.5796ZM127.162 36.6493C127.703 36.3339 128.143 35.8705 128.43 35.3136C128.734 34.6853 128.892 33.9963 128.892 33.2983C128.892 32.6003 128.734 31.9114 128.43 31.2831C128.143 30.7305 127.706 30.2698 127.169 29.9538C126.612 29.6459 125.986 29.4843 125.349 29.4843C124.713 29.4843 124.087 29.6459 123.53 29.9538C122.993 30.2698 122.556 30.7304 122.268 31.2831C121.964 31.9114 121.806 32.6003 121.806 33.2983C121.806 33.9963 121.964 34.6853 122.268 35.3136C122.556 35.87 122.995 36.3333 123.536 36.6493C124.091 36.9576 124.716 37.1193 125.351 37.1193C125.985 37.1193 126.61 36.9576 127.165 36.6493H127.162Z" fill="#474747"/>
<path d="M132.359 28.4001V34.5878C132.359 35.4412 132.568 36.0749 132.985 36.4889C133.403 36.9028 133.984 37.1098 134.729 37.1098C135.464 37.1098 136.041 36.9028 136.459 36.4889C136.878 36.0749 137.087 35.4412 137.087 34.5878V28.4001H138.341V34.5707C138.341 35.3701 138.18 36.0429 137.858 36.5891C137.556 37.1173 137.102 37.5423 136.555 37.8085C135.978 38.0722 135.35 38.2086 134.715 38.2086C134.08 38.2086 133.453 38.0722 132.875 37.8085C132.329 37.5435 131.877 37.118 131.58 36.5891C131.262 36.0429 131.104 35.3701 131.104 34.5707V28.4001H132.359Z" fill="#474747"/>
<path d="M145.354 33.3079C144.808 33.8371 143.974 34.1013 142.852 34.1006H141.005V38.1098H139.751V28.4016H142.852C143.937 28.4016 144.761 28.6633 145.326 29.1868C145.892 29.7106 146.18 30.4936 146.18 31.3204C146.189 31.691 146.12 32.0593 145.978 32.4016C145.835 32.744 145.623 33.0527 145.354 33.3079ZM144.394 32.6124C144.724 32.3094 144.89 31.8777 144.89 31.3172C144.89 30.1316 144.21 29.5392 142.849 29.5399H141.005V33.0668H142.852C143.55 33.0668 144.065 32.9154 144.397 32.6124H144.394Z" fill="#474747"/>
<path d="M13.9329 25.77L8.33317 15.8843H5.93471V25.77H0.84375V0.397665H10.3699C12.3334 0.397665 14.0056 0.743316 15.3865 1.43462C16.7674 2.12592 17.8037 3.0583 18.4953 4.23175C19.1912 5.42814 19.5492 6.79098 19.531 8.17482C19.5461 9.80051 19.0364 11.3877 18.0773 12.7008C17.1072 14.0448 15.6651 14.9712 13.7512 15.4797L19.8233 25.77H13.9329ZM5.93471 12.0651H10.1898C11.5708 12.0651 12.601 11.7321 13.2804 11.0661C13.9599 10.4001 14.299 9.47322 14.2979 8.28545C14.2979 7.12301 13.9588 6.2209 13.2804 5.57914C12.6021 4.93737 11.5719 4.61538 10.1898 4.61318H5.93471V12.0651Z" stroke="#474747" stroke-width="0.2" mask="url(#path-1-outside-1_865_17214)"/>
<path d="M111.119 17.2222H96.913C97.0308 18.6224 97.5214 19.72 98.3848 20.5147C99.2531 21.3104 100.397 21.7373 101.574 21.7052C103.396 21.7052 104.693 20.9231 105.465 19.3589H110.75C110.206 21.2045 109.074 22.822 107.526 23.9657C105.945 25.1711 103.998 25.7738 101.687 25.7738C99.9307 25.8022 98.1974 25.3737 96.657 24.5304C95.1864 23.7144 93.9821 22.4923 93.1881 21.0101C92.3589 19.4921 91.9443 17.7407 91.9443 15.756C91.9443 13.7481 92.3534 11.9868 93.1716 10.4721C93.9483 8.99371 95.1418 7.77549 96.6041 6.96827C98.0776 6.15037 99.7718 5.74198 101.687 5.74308C103.413 5.71436 105.118 6.12398 106.642 6.93359C108.08 7.70555 109.262 8.88024 110.042 10.3136C110.848 11.7733 111.251 13.4487 111.251 15.3399C111.259 15.9699 111.214 16.5995 111.119 17.2222ZM106.178 13.9297C106.155 12.6682 105.7 11.6582 104.812 10.8998C103.925 10.1413 102.836 9.76045 101.546 9.75715C100.335 9.75715 99.3131 10.1254 98.4806 10.8618C97.6481 11.5982 97.1399 12.6198 96.956 13.9264L106.178 13.9297Z" stroke="#474747" stroke-width="0.2" mask="url(#path-1-outside-1_865_17214)"/>
<path d="M119.292 0.397665V25.8262H114.189V0.397665H119.292Z" stroke="#474747" stroke-width="0.2" mask="url(#path-1-outside-1_865_17214)"/>
<path d="M127.34 0.306641V25.826H122.238V0.306641H127.34Z" stroke="#474747" stroke-width="0.2" mask="url(#path-1-outside-1_865_17214)"/>
<path d="M134.481 24.91C133.3 24.4022 132.268 23.6007 131.485 22.5818C130.764 21.6418 130.343 20.5065 130.277 19.324H135.216C135.262 19.693 135.384 20.0485 135.574 20.3679C135.764 20.6874 136.019 20.9639 136.321 21.1799C136.962 21.6709 137.762 21.9164 138.721 21.9164C139.655 21.9164 140.385 21.7292 140.912 21.355C141.154 21.2015 141.353 20.9893 141.491 20.7381C141.629 20.4869 141.7 20.2049 141.7 19.9184C141.7 19.2899 141.379 18.8171 140.737 18.5C140.095 18.183 139.072 17.8385 137.669 17.4664C136.459 17.1899 135.271 16.8274 134.113 16.3815C133.191 16.0095 132.374 15.4204 131.729 14.6643C131.068 13.8937 130.738 12.8546 130.738 11.5468C130.729 10.4926 131.051 9.46221 131.66 8.60108C132.28 7.72044 133.167 7.02088 134.323 6.5024C135.478 5.98393 136.839 5.72744 138.406 5.73294C140.718 5.73294 142.564 6.31087 143.943 7.46671C145.322 8.62255 146.081 10.1813 146.221 12.1429H141.525C141.502 11.7857 141.405 11.4372 141.239 11.1203C141.072 10.8033 140.841 10.5249 140.56 10.3035C139.988 9.84774 139.224 9.61987 138.266 9.61987C137.377 9.61987 136.694 9.78499 136.216 10.1152C135.988 10.2616 135.802 10.4645 135.676 10.7041C135.55 10.9437 135.488 11.2119 135.497 11.4824C135.497 12.1363 135.824 12.6317 136.478 12.9685C137.132 13.3054 138.149 13.6488 139.527 13.9989C140.708 14.2796 141.867 14.6427 142.996 15.0853C143.914 15.4633 144.725 16.0583 145.362 16.8191C146.023 17.6018 146.367 18.6349 146.396 19.9184C146.412 20.9946 146.089 22.0486 145.474 22.9319C144.856 23.8191 143.969 24.5137 142.811 25.0157C141.654 25.5176 140.302 25.7703 138.756 25.7736C137.286 25.7964 135.827 25.5019 134.481 24.91Z" stroke="#474747" stroke-width="0.2" mask="url(#path-1-outside-1_865_17214)"/>
<path d="M79.2909 5.73291C78.8399 5.73144 78.3894 5.7629 77.943 5.82703C77.936 5.82513 77.9286 5.82513 77.9215 5.82703C76.3028 6.04838 74.7658 6.67296 73.4517 7.64335L73.3096 7.74737L66.775 12.5804L57.4322 19.4825C57.2929 19.601 57.1467 19.7113 56.9944 19.8127C56.1843 20.3457 55.2355 20.6293 54.2656 20.6284C52.9602 20.6046 51.7164 20.0696 50.8016 19.1384C49.8869 18.2072 49.3744 16.9543 49.3744 15.6492C49.3744 14.3441 49.8869 13.0912 50.8016 12.16C51.7164 11.2288 52.9602 10.6938 54.2656 10.67C55.2353 10.6686 56.1841 10.9516 56.9944 11.484C57.1465 11.5828 57.2927 11.6903 57.4322 11.806L60.5541 14.1177L63.463 11.9711L64.7036 11.058L60.2436 7.75563L60.0784 7.64004C58.7651 6.67321 57.2309 6.04997 55.6152 5.82703C55.1688 5.7629 54.7183 5.73144 54.2673 5.73291C51.6398 5.7364 49.1209 6.78131 47.263 8.63852C45.4051 10.4957 44.3598 13.0136 44.3563 15.6401V37.1668H49.2903V24.2082C50.8006 25.0927 52.5201 25.5573 54.2706 25.5539C54.7216 25.5554 55.1721 25.5239 55.6185 25.4598C55.7836 25.4383 55.9488 25.4136 56.114 25.3789C57.5192 25.1202 58.8504 24.5566 60.014 23.7277L60.3444 23.4883L69.3964 16.7943L69.4608 16.7464L70.9475 15.6484L76.1343 11.8093C76.2598 11.707 76.3886 11.6112 76.5208 11.522L76.5505 11.5039C77.2472 11.0417 78.049 10.7622 78.8821 10.6913C79.7153 10.6203 80.5528 10.76 81.3177 11.0977C82.362 11.5596 83.2159 12.3662 83.7363 13.3824C84.2566 14.3986 84.412 15.5626 84.1763 16.6796C83.9405 17.7966 83.3281 18.7987 82.4414 19.5182C81.5548 20.2376 80.4478 20.6307 79.3058 20.6317C78.3257 20.6363 77.3664 20.3489 76.5505 19.8061L76.5208 19.7879C76.3886 19.6988 76.2598 19.6047 76.1343 19.5006L74.3321 18.1665L73.0536 17.222L69.3981 19.925V37.1668H74.3321V24.2082C75.4478 24.8636 76.6834 25.2892 77.9661 25.4598C78.4125 25.5239 78.863 25.5554 79.314 25.5539C81.9426 25.5539 84.4635 24.5101 86.3222 22.6522C88.1809 20.7942 89.225 18.2743 89.225 15.6467C89.225 13.0192 88.1809 10.4992 86.3222 8.64126C84.4635 6.7833 81.9426 5.73951 79.314 5.73951L79.2909 5.73291Z" stroke="#474747" stroke-width="0.2" mask="url(#path-1-outside-1_865_17214)"/>
<path d="M36.7223 5.73286V16.3468C36.7285 17.5327 36.2696 18.6739 35.4438 19.5254C34.6181 20.377 33.4913 20.8711 32.3053 20.9018C31.1193 20.9325 29.9685 20.4973 29.0998 19.6895C28.2311 18.8818 27.7137 17.7659 27.6586 16.5812V5.73286H22.7659V16.3468C22.7675 18.0343 23.222 19.6905 24.082 21.1427C24.942 22.5948 26.176 23.7897 27.6553 24.6028C29.0901 25.3883 30.7047 25.787 32.3403 25.7597C33.976 25.7324 35.5764 25.2801 36.9841 24.4471C38.3918 23.6142 39.5585 22.4293 40.3692 21.009C41.18 19.5888 41.6071 17.982 41.6084 16.3468V5.73286H36.7223Z" stroke="#474747" stroke-width="0.2" mask="url(#path-1-outside-1_865_17214)"/>
<path d="M110.542 31.2896C110.294 30.7504 109.891 30.2973 109.384 29.9881C108.851 29.6725 108.24 29.5125 107.62 29.5261C106.985 29.5164 106.359 29.6758 105.806 29.9881C105.266 30.2991 104.826 30.7581 104.538 31.3109C104.234 31.9294 104.076 32.6093 104.076 33.2984C104.076 33.9876 104.234 34.6675 104.538 35.286C104.827 35.8358 105.267 36.292 105.806 36.6014C106.359 36.9136 106.985 37.073 107.62 37.0633C108.557 37.0633 109.329 36.7831 109.936 36.2227C110.543 35.6622 110.897 34.9044 110.999 33.9492H107.168V32.9293H112.336V33.8895C112.268 34.6628 112.011 35.4077 111.589 36.0594C111.173 36.7104 110.6 37.2461 109.922 37.617C109.217 38.0021 108.424 38.1991 107.62 38.1888C106.766 38.1986 105.924 37.9822 105.18 37.5615C104.451 37.1504 103.848 36.548 103.437 35.8194C103.016 35.0442 102.795 34.1762 102.795 33.2942C102.795 32.4122 103.016 31.5442 103.437 30.769C103.847 30.0374 104.45 29.4322 105.18 29.0194C105.924 28.5987 106.766 28.3823 107.62 28.3921C108.578 28.3751 109.519 28.6384 110.329 29.1495C111.116 29.6571 111.718 30.4055 112.045 31.2832L110.542 31.2896Z" stroke="#474747" stroke-width="0.2" mask="url(#path-1-outside-1_865_17214)"/>
<path d="M118.389 38.2057L116.055 34.1997H114.508V38.2057H113.228V28.4089H116.391C117.132 28.4089 117.758 28.5355 118.268 28.7887C118.744 29.0094 119.143 29.3663 119.415 29.8139C119.695 30.3203 119.825 30.8962 119.79 31.474C119.754 32.0518 119.554 32.6073 119.213 33.0753C118.824 33.5909 118.24 33.933 117.463 34.1015L119.917 38.2057H118.389ZM114.508 33.1734H116.392C117.086 33.1734 117.606 33.0023 117.954 32.6602C118.301 32.3181 118.474 31.8615 118.473 31.2904C118.473 30.7094 118.302 30.2595 117.96 29.9409C117.618 29.6223 117.095 29.4629 116.392 29.4629H114.508V33.1734Z" stroke="#474747" stroke-width="0.2" mask="url(#path-1-outside-1_865_17214)"/>
<path d="M122.91 37.5796C122.18 37.1685 121.577 36.5652 121.166 35.8353C120.745 35.059 120.524 34.1899 120.524 33.3069C120.524 32.4238 120.745 31.5548 121.166 30.7785C121.576 30.0469 122.179 29.4417 122.91 29.0289C123.659 28.6173 124.501 28.4016 125.356 28.4016C126.212 28.4016 127.053 28.6173 127.803 29.0289C128.531 29.4398 129.132 30.0429 129.539 30.7721C129.956 31.5522 130.173 32.4227 130.173 33.3069C130.173 34.191 129.956 35.0616 129.539 35.8417C129.132 36.5711 128.531 37.1743 127.803 37.5849C127.053 37.9964 126.212 38.2122 125.356 38.2122C124.501 38.2122 123.659 37.9964 122.91 37.5849V37.5796ZM127.162 36.6493C127.703 36.3339 128.143 35.8705 128.43 35.3136C128.734 34.6853 128.892 33.9963 128.892 33.2983C128.892 32.6003 128.734 31.9114 128.43 31.2831C128.143 30.7305 127.706 30.2698 127.169 29.9538C126.612 29.6459 125.986 29.4843 125.349 29.4843C124.713 29.4843 124.087 29.6459 123.53 29.9538C122.993 30.2698 122.556 30.7304 122.268 31.2831C121.964 31.9114 121.806 32.6003 121.806 33.2983C121.806 33.9963 121.964 34.6853 122.268 35.3136C122.556 35.87 122.995 36.3333 123.536 36.6493C124.091 36.9576 124.716 37.1193 125.351 37.1193C125.985 37.1193 126.61 36.9576 127.165 36.6493H127.162Z" stroke="#474747" stroke-width="0.2" mask="url(#path-1-outside-1_865_17214)"/>
<path d="M132.359 28.4001V34.5878C132.359 35.4412 132.568 36.0749 132.985 36.4889C133.403 36.9028 133.984 37.1098 134.729 37.1098C135.464 37.1098 136.041 36.9028 136.459 36.4889C136.878 36.0749 137.087 35.4412 137.087 34.5878V28.4001H138.341V34.5707C138.341 35.3701 138.18 36.0429 137.858 36.5891C137.556 37.1173 137.102 37.5423 136.555 37.8085C135.978 38.0722 135.35 38.2086 134.715 38.2086C134.08 38.2086 133.453 38.0722 132.875 37.8085C132.329 37.5435 131.877 37.118 131.58 36.5891C131.262 36.0429 131.104 35.3701 131.104 34.5707V28.4001H132.359Z" stroke="#474747" stroke-width="0.2" mask="url(#path-1-outside-1_865_17214)"/>
<path d="M145.354 33.3079C144.808 33.8371 143.974 34.1013 142.852 34.1006H141.005V38.1098H139.751V28.4016H142.852C143.937 28.4016 144.761 28.6633 145.326 29.1868C145.892 29.7106 146.18 30.4936 146.18 31.3204C146.189 31.691 146.12 32.0593 145.978 32.4016C145.835 32.744 145.623 33.0527 145.354 33.3079ZM144.394 32.6124C144.724 32.3094 144.89 31.8777 144.89 31.3172C144.89 30.1316 144.21 29.5392 142.849 29.5399H141.005V33.0668H142.852C143.55 33.0668 144.065 32.9154 144.397 32.6124H144.394Z" stroke="#474747" stroke-width="0.2" mask="url(#path-1-outside-1_865_17214)"/>
</svg>