<svg width="148" height="40" viewBox="0 0 148 40" fill="none" xmlns="http://www.w3.org/2000/svg">
<path d="M14.2298 26.6028L8.63004 16.7171H6.23158V26.6028H1.14062V1.23047H10.6668C12.6302 1.23047 14.3024 1.57612 15.6834 2.26742C17.0643 2.95873 18.1006 3.8911 18.7921 5.06456C19.4881 6.26095 19.8461 7.62378 19.8278 9.00763C19.843 10.6333 19.3332 12.2205 18.3742 13.5336C17.404 14.8777 15.962 15.804 14.0481 16.3125L20.1202 26.6028H14.2298ZM6.23158 12.8979H10.4867C11.8676 12.8979 12.8978 12.5649 13.5773 11.8989C14.2567 11.2329 14.5959 10.306 14.5948 9.11826C14.5948 7.95581 14.2556 7.05371 13.5773 6.41194C12.8989 5.77017 11.8687 5.44819 10.4867 5.44599H6.23158V12.8979Z" fill="#474747"/>
<path d="M111.413 18.0548H97.207C97.3248 19.455 97.8154 20.5525 98.6788 21.3473C99.5471 22.1429 100.691 22.5699 101.868 22.5378C103.69 22.5378 104.987 21.7557 105.759 20.1914H111.044C110.5 22.0371 109.368 23.6546 107.82 24.7983C106.239 26.0037 104.292 26.6064 101.981 26.6064C100.225 26.6347 98.4914 26.2063 96.951 25.363C95.4804 24.547 94.2761 23.3248 93.4821 21.8426C92.6529 20.3246 92.2383 18.5733 92.2383 16.5885C92.2383 14.5807 92.6474 12.8194 93.4656 11.3047C94.2423 9.82627 95.4357 8.60804 96.8981 7.80082C98.3715 6.98293 100.066 6.57453 101.981 6.57563C103.707 6.54691 105.412 6.95653 106.936 7.76615C108.374 8.5381 109.556 9.71279 110.336 11.1462C111.142 12.6058 111.545 14.2812 111.545 16.1724C111.553 16.8024 111.508 17.432 111.413 18.0548ZM106.472 14.7623C106.449 13.5008 105.994 12.4908 105.106 11.7323C104.218 10.9739 103.13 10.593 101.84 10.5897C100.629 10.5897 99.6071 10.9579 98.7746 11.6944C97.9421 12.4308 97.4339 13.4523 97.25 14.759L106.472 14.7623Z" fill="#474747"/>
<path d="M119.587 1.23047V26.659H114.484V1.23047H119.587Z" fill="#474747"/>
<path d="M127.638 1.13867V26.658H122.535V1.13867H127.638Z" fill="#474747"/>
<path d="M134.778 25.7436C133.597 25.2357 132.565 24.4342 131.782 23.4153C131.061 22.4754 130.64 21.3401 130.574 20.1575H135.513C135.559 20.5265 135.681 20.882 135.871 21.2015C136.061 21.521 136.316 21.7975 136.618 22.0135C137.259 22.5044 138.059 22.7499 139.018 22.7499C139.952 22.7499 140.682 22.5628 141.209 22.1885C141.451 22.0351 141.65 21.8229 141.788 21.5717C141.926 21.3205 141.997 21.0384 141.997 20.752C141.997 20.1234 141.676 19.6506 141.034 19.3336C140.392 19.0166 139.369 18.672 137.966 18.2999C136.756 18.0235 135.568 17.661 134.41 17.2151C133.488 16.8431 132.671 16.2539 132.026 15.4978C131.365 14.7273 131.035 13.6881 131.035 12.3804C131.026 11.3262 131.348 10.2958 131.957 9.43463C132.577 8.55399 133.464 7.85443 134.62 7.33595C135.775 6.81748 137.136 6.56099 138.703 6.56649C141.015 6.56649 142.861 7.14441 144.24 8.30025C145.619 9.4561 146.378 11.0148 146.518 12.9765H141.822C141.799 12.6193 141.702 12.2708 141.536 11.9538C141.369 11.6368 141.138 11.3585 140.857 11.137C140.285 10.6813 139.521 10.4534 138.562 10.4534C137.674 10.4534 136.99 10.6185 136.513 10.9488C136.285 11.0951 136.099 11.298 135.973 11.5376C135.847 11.7773 135.785 12.0454 135.794 12.316C135.794 12.9699 136.121 13.4652 136.775 13.8021C137.429 14.1389 138.446 14.4824 139.824 14.8324C141.005 15.1131 142.164 15.4762 143.293 15.9189C144.211 16.2968 145.022 16.8918 145.659 17.6527C146.32 18.4353 146.664 19.4684 146.693 20.752C146.709 21.8281 146.386 22.8822 145.771 23.7654C145.153 24.6526 144.266 25.3473 143.108 25.8492C141.951 26.3512 140.599 26.6038 139.053 26.6071C137.583 26.63 136.124 26.3354 134.778 25.7436Z" fill="#474747"/>
<path d="M79.587 6.56645C79.136 6.56499 78.6855 6.59645 78.2391 6.66057C78.2321 6.65868 78.2247 6.65868 78.2176 6.66057C76.5989 6.88193 75.0619 7.50651 73.7478 8.4769L73.6057 8.58092L67.0711 13.414L64.4083 15.3789L62.9216 16.477L57.7283 20.316C57.589 20.4346 57.4428 20.5449 57.2905 20.6463C56.4804 21.1792 55.5316 21.4628 54.5617 21.4619C53.2563 21.4382 52.0125 20.9031 51.0977 19.9719C50.183 19.0408 49.6705 17.7878 49.6705 16.4827C49.6705 15.1777 50.183 13.9247 51.0977 12.9935C52.0125 12.0623 53.2563 11.5273 54.5617 11.5035C55.5314 11.5022 56.4802 11.7852 57.2905 12.3176C57.4426 12.4163 57.5887 12.5238 57.7283 12.6396L60.8502 14.9513L63.7591 12.8047L64.9996 11.8916L60.5397 8.58918L60.3745 8.47359C59.0612 7.50676 57.5269 6.88352 55.9113 6.66057C55.4648 6.59645 55.0143 6.56499 54.5634 6.56645C51.9359 6.56995 49.417 7.61486 47.5591 9.47207C45.7012 11.3293 44.6558 13.8472 44.6523 16.4737V38.0004H49.5864V25.0417C51.0967 25.9262 52.8162 26.3908 54.5667 26.3875C55.0176 26.3889 55.4681 26.3575 55.9146 26.2934C56.0797 26.2719 56.2449 26.2471 56.4101 26.2124C57.8153 25.9538 59.1465 25.3901 60.3101 24.5612L60.6405 24.3218L67.0925 19.5482L69.6925 17.6279L69.7569 17.58L71.2436 16.4819L76.4303 12.6429C76.5559 12.5405 76.6847 12.4447 76.8169 12.3556L76.8466 12.3374C77.5433 11.8752 78.3451 11.5958 79.1782 11.5248C80.0113 11.4538 80.8489 11.5936 81.6138 11.9312C82.6581 12.3932 83.512 13.1998 84.0323 14.2159C84.5527 15.2321 84.7081 16.3961 84.4724 17.5131C84.2366 18.6301 83.6242 19.6322 82.7375 20.3517C81.8509 21.0712 80.7439 21.4643 79.6019 21.4652C78.6218 21.4699 77.6625 21.1825 76.8466 20.6396L76.8169 20.6215C76.6847 20.5323 76.5559 20.4382 76.4303 20.3342L74.6282 19L73.3497 18.0555L70.4243 20.2186L69.6942 20.7585V38.0004H74.6282V25.0417C75.7439 25.6972 76.9795 26.1227 78.2622 26.2934C78.7086 26.3575 79.1591 26.3889 79.6101 26.3875C82.2387 26.3875 84.7596 25.3437 86.6183 23.4857C88.477 21.6278 89.5211 19.1078 89.5211 16.4803C89.5211 13.8527 88.477 11.3328 86.6183 9.47481C84.7596 7.61685 82.2387 6.57306 79.6101 6.57306L79.587 6.56645Z" fill="#474747"/>
<path d="M37.0189 6.56641V17.1803C37.0251 18.3663 36.5662 19.5074 35.7404 20.359C34.9147 21.2105 33.7879 21.7047 32.6019 21.7353C31.4159 21.766 30.2651 21.3308 29.3964 20.5231C28.5277 19.7154 28.0103 18.5995 27.9552 17.4148V6.56641H23.0625V17.1803C23.0641 18.8679 23.5186 20.5241 24.3786 21.9762C25.2386 23.4284 26.4726 24.6233 27.9519 25.4363C29.3867 26.2219 31.0013 26.6206 32.6369 26.5933C34.2726 26.566 35.873 26.1136 37.2807 25.2807C38.6884 24.4477 39.8551 23.2629 40.6658 21.8426C41.4766 20.4223 41.9037 18.8156 41.905 17.1803V6.56641H37.0189Z" fill="#474747"/>
<path d="M110.792 32.1438L110.805 32.1731L110.837 32.1729L112.34 32.1665L112.411 32.1662L112.386 32.0991C112.056 31.2113 111.447 30.4542 110.651 29.9408L110.65 29.9406C109.832 29.4243 108.882 29.1584 107.915 29.1754C107.052 29.1656 106.202 29.3843 105.45 29.8092C104.712 30.2265 104.102 30.8383 103.688 31.5778L103.688 31.5778L103.687 31.5784C103.262 32.3609 103.04 33.2372 103.04 34.1275C103.04 35.0178 103.262 35.8941 103.687 36.6766L103.687 36.6766L103.688 36.6773C104.104 37.4139 104.713 38.0228 105.451 38.4384C106.202 38.8633 107.052 39.0819 107.915 39.0722C108.727 39.0824 109.528 38.8834 110.241 38.4942L110.241 38.4942C110.926 38.1193 111.505 37.5778 111.926 36.9199C112.352 36.2614 112.612 35.5087 112.681 34.7272L112.681 34.7272V34.7228V33.7626V33.7126H112.631H107.462H107.412V33.7626V34.7825V34.8325H107.462H111.238C111.13 35.7516 110.782 36.4791 110.197 37.0192C109.6 37.57 108.841 37.8466 107.915 37.8466L107.914 37.8467C107.288 37.8562 106.671 37.699 106.125 37.3913C105.595 37.0868 105.162 36.6377 104.877 36.0966C104.577 35.4852 104.42 34.813 104.42 34.1318C104.42 33.4505 104.577 32.7783 104.877 32.1668C105.161 31.6228 105.594 31.171 106.125 30.8648C106.671 30.557 107.288 30.3999 107.914 30.4095L107.916 30.4094C108.526 30.396 109.128 30.5536 109.653 30.8642C110.151 31.1683 110.548 31.6137 110.792 32.1438Z" fill="#474747" stroke="#474747" stroke-width="0.1"/>
<path d="M118.656 39.089L118.641 39.0641L116.322 35.083H114.854V39.039V39.089H114.804H113.523H113.473V39.039V29.2422V29.1922H113.523H116.687C117.433 29.1922 118.066 29.3196 118.586 29.5769M118.656 39.089L118.564 29.622M118.656 39.089H118.685H120.213H120.301L120.256 39.0133L117.837 34.9685M118.656 39.089L117.785 34.9801M118.586 29.5769C118.586 29.577 118.586 29.5771 118.586 29.5772L118.564 29.622M118.586 29.5769C118.585 29.5768 118.585 29.5767 118.585 29.5766L118.564 29.622M118.586 29.5769C119.07 29.8018 119.476 30.1653 119.753 30.6212L119.754 30.623L119.754 30.623C120.039 31.1376 120.172 31.7231 120.135 32.3104C120.099 32.8977 119.896 33.4623 119.549 33.938L119.548 33.9387C119.162 34.4507 118.59 34.793 117.837 34.9685M118.564 29.622C119.039 29.8427 119.438 30.1995 119.71 30.6472C119.991 31.1536 120.121 31.7295 120.085 32.3073C120.05 32.8851 119.849 33.4406 119.509 33.9085C119.128 34.4127 118.562 34.751 117.81 34.9234L117.837 34.9685M117.837 34.9685C117.82 34.9724 117.803 34.9763 117.785 34.9801M120.213 39.039L120.17 39.0646L120.155 39.039H120.213ZM120.213 39.039V38.989H120.183L120.213 39.039ZM117.785 34.9801L117.758 34.9348L117.785 34.9801ZM118.719 32.1237V32.1238C118.72 32.684 118.55 33.1268 118.214 33.4579C117.88 33.7875 117.374 33.9567 116.688 33.9567H114.854V30.3462H116.688C117.384 30.3462 117.892 30.5042 118.222 30.8108C118.551 31.1177 118.719 31.5529 118.719 32.1237Z" fill="#474747" stroke="#474747" stroke-width="0.1"/>
<path d="M121.418 36.6919L121.418 36.6919L121.418 36.6926C121.829 37.422 122.429 38.0264 123.156 38.4415V38.4473L123.182 38.4615C123.939 38.8771 124.789 39.095 125.652 39.095C126.516 39.095 127.366 38.8771 128.123 38.4616L128.124 38.4613C128.86 38.0461 129.467 37.4364 129.879 36.6989L129.88 36.698C130.3 35.9107 130.519 35.032 130.519 34.1397C130.519 33.2473 130.3 32.3687 129.88 31.5813L129.88 31.5813L129.879 31.5805C129.467 30.8432 128.859 30.2336 128.124 29.8181L128.123 29.8178C127.366 29.4023 126.516 29.1844 125.652 29.1844C124.789 29.1844 123.939 29.4023 123.182 29.8178L123.182 29.8178L123.181 29.8181C122.443 30.2355 121.833 30.8473 121.418 31.5868L121.418 31.5868L121.418 31.5875C120.993 32.3711 120.77 33.2483 120.77 34.1397C120.77 35.0311 120.993 35.9083 121.418 36.6919ZM127.432 37.4389L127.386 37.4658C126.851 37.7521 126.254 37.9021 125.646 37.9021C125.02 37.9021 124.404 37.7426 123.857 37.4387C123.325 37.1276 122.892 36.6716 122.609 36.124C122.308 35.5027 122.152 34.8214 122.152 34.1312C122.152 33.4409 122.308 32.7597 122.609 32.1383C122.892 31.5945 123.322 31.1411 123.851 30.8301C124.4 30.5264 125.018 30.3671 125.645 30.3671C126.273 30.3671 126.891 30.5264 127.44 30.8301C127.968 31.1411 128.398 31.5945 128.681 32.1383C128.981 32.7597 129.138 33.4409 129.138 34.1312C129.138 34.8214 128.981 35.5027 128.681 36.1241C128.398 36.6722 127.965 37.1284 127.432 37.4389Z" fill="#474747" stroke="#474747" stroke-width="0.1"/>
<path d="M132.704 29.2344V29.1844H132.654H131.398H131.348V29.2344V35.405C131.348 36.2108 131.508 36.8927 131.831 37.4482C132.134 37.9859 132.593 38.4183 133.148 38.6878L133.149 38.6883C133.733 38.9549 134.368 39.0929 135.01 39.0929C135.652 39.0929 136.287 38.9549 136.871 38.6883L136.871 38.6883L136.872 38.6878C137.428 38.4171 137.889 37.9853 138.196 37.4485C138.523 36.8929 138.685 36.2109 138.685 35.405V29.2344V29.1844H138.635H137.381H137.331V29.2344V35.422C137.331 36.2682 137.124 36.8866 136.719 37.2876C136.312 37.6901 135.749 37.894 135.024 37.894C134.288 37.894 133.721 37.69 133.315 37.2876C132.911 36.8866 132.704 36.2682 132.704 35.422V29.2344Z" fill="#474747" stroke="#474747" stroke-width="0.1"/>
<path d="M141.351 38.9926H141.301H140.047H139.997V38.9426V29.2344V29.1844H140.047H143.148C144.24 29.1844 145.079 29.4479 145.656 29.9829C146.234 30.5179 146.526 31.3151 146.526 32.1527C146.535 32.53 146.465 32.9051 146.32 33.2536C146.175 33.6023 145.958 33.9168 145.685 34.1769C145.125 34.7184 144.276 34.9841 143.148 34.9834M141.351 38.9926L143.148 34.9334M141.351 38.9926V38.9426V34.9834M141.351 38.9926L141.301 34.9834M143.148 34.9834L143.148 34.9334M143.148 34.9834H143.148V34.9334M143.148 34.9834H141.351M143.148 34.9334H141.351V34.9834M141.351 34.9834H141.301M141.301 34.9834V38.8926V38.9426V34.9834ZM144.656 33.4083L144.604 33.4553C144.285 33.7154 143.802 33.8497 143.148 33.8497H141.351V30.4227H143.145H143.145C143.819 30.4223 144.315 30.5691 144.643 30.8542C144.969 31.1382 145.136 31.5669 145.136 32.15C145.136 32.7002 144.974 33.1171 144.656 33.4083Z" fill="#474747" stroke="#474747" stroke-width="0.1"/>
</svg>
