<svg width="152" height="40" viewBox="0 0 152 40" fill="none" xmlns="http://www.w3.org/2000/svg">
<mask id="mask0_788_14823" style="mask-type:luminance" maskUnits="userSpaceOnUse" x="0" y="0" width="152" height="40">
<path d="M151.562 0.792969H0.816406V39.3168H151.562V0.792969Z" fill="white"/>
</mask>
<g mask="url(#mask0_788_14823)">
<path d="M14.4077 27.4076L8.60818 17.0758H6.12418V27.4076H0.851562V0.904297H10.7176C12.7511 0.904297 14.483 1.26543 15.9132 1.98647C17.3434 2.70812 18.4164 3.68306 19.1331 4.91128C19.8535 6.1617 20.2245 7.58651 20.2054 9.03228C20.2214 10.7307 19.6933 12.3891 18.6999 13.7609C17.6953 15.1679 16.2017 16.1366 14.2196 16.6666L20.5086 27.4162L14.4077 27.4076ZM6.12418 13.0843H10.5311C11.9613 13.0843 13.0283 12.7361 13.732 12.0403C14.4357 11.3445 14.787 10.3757 14.7858 9.13458C14.7858 7.9193 14.4345 6.97579 13.732 6.30405C13.0294 5.63232 11.9625 5.2983 10.5311 5.30138H6.12418V13.0843Z" fill="#474747"/>
<path d="M115.075 18.4749H100.362C100.484 19.9379 100.992 21.0854 101.886 21.9156C102.786 22.7506 103.974 23.1993 105.196 23.1654C107.083 23.1654 108.426 22.3476 109.226 20.7132H114.7C114.136 22.6415 112.963 24.3313 111.36 25.5257C109.715 26.7847 107.695 27.4133 105.301 27.4121C103.482 27.4417 101.687 26.9936 100.091 26.1124C98.5684 25.2601 97.321 23.9825 96.4989 22.4332C95.6399 20.8469 95.2109 19.0166 95.2109 16.9423C95.2109 14.8426 95.6343 13.0024 96.4817 11.4205C97.2865 9.8761 98.5228 8.60351 100.037 7.76045C101.563 6.90507 103.317 6.478 105.301 6.478C107.088 6.44841 108.855 6.87733 110.433 7.72409C111.922 8.53078 113.146 9.7584 113.954 11.2566C114.789 12.7818 115.206 14.5326 115.206 16.509C115.216 17.1672 115.171 17.8241 115.075 18.4749ZM109.958 15.0232C109.934 13.7075 109.462 12.6518 108.543 11.8568C107.623 11.0618 106.499 10.6655 105.167 10.668C103.913 10.668 102.855 11.0519 101.992 11.8204C101.13 12.5889 100.603 13.6569 100.413 15.0232H109.958Z" fill="#474747"/>
<path d="M123.529 0.794922V27.4652H118.246V0.794922H123.529Z" fill="#474747"/>
<path d="M131.851 0.794922V27.4652H126.566V0.794922H131.851Z" fill="#474747"/>
<path d="M139.264 26.5123C138.041 25.9811 136.973 25.143 136.161 24.0774C135.414 23.0951 134.979 21.9088 134.91 20.6725H140.026C140.073 21.0583 140.199 21.4299 140.396 21.7646C140.593 22.0986 140.857 22.3876 141.17 22.6138C141.834 23.1271 142.662 23.3829 143.656 23.3817C144.623 23.3817 145.379 23.1869 145.924 22.7968C146.175 22.6366 146.381 22.4147 146.524 22.1522C146.667 21.8897 146.741 21.5951 146.741 21.2956C146.741 20.6362 146.408 20.1419 145.743 19.8135C145.078 19.4844 144.019 19.1239 142.566 18.7331C141.313 18.4441 140.082 18.0651 138.883 17.5974C137.929 17.2091 137.082 16.5941 136.414 15.8046C135.73 14.9992 135.388 13.9133 135.388 12.5464C135.381 11.4451 135.717 10.3697 136.349 9.47122C136.991 8.54374 137.911 7.81161 139.107 7.27422C140.303 6.73745 141.713 6.46875 143.336 6.46875C145.731 6.46875 147.642 7.0727 149.071 8.28059C150.499 9.48847 151.285 11.1179 151.43 13.1695H146.559C146.536 12.796 146.435 12.4318 146.263 12.1008C146.091 11.7693 145.851 11.4784 145.56 11.2467C144.968 10.7709 144.176 10.5324 143.184 10.5324C142.263 10.5324 141.555 10.705 141.061 11.0501C140.826 11.2023 140.635 11.4125 140.504 11.6608C140.373 11.9092 140.309 12.1877 140.317 12.4688C140.317 13.159 140.655 13.6766 141.333 14.0218C142.01 14.3669 143.063 14.7292 144.491 15.1089C145.713 15.4022 146.914 15.7818 148.084 16.2446C149.033 16.6397 149.874 17.2615 150.533 18.0565C151.217 18.8743 151.575 19.954 151.604 21.2956C151.62 22.4203 151.286 23.5216 150.65 24.4447C150.01 25.371 149.091 26.097 147.892 26.6226C146.693 27.1483 145.296 27.4108 143.701 27.4096C142.175 27.4361 140.662 27.1304 139.264 26.5123Z" fill="#474747"/>
<path d="M82.0914 6.46878C81.6242 6.46755 81.1577 6.50145 80.6955 6.56862C80.6881 6.56677 80.6807 6.56677 80.6733 6.56862C78.9971 6.80034 77.4053 7.45297 76.0439 8.46673L75.8966 8.57581L69.1288 13.6268L66.3716 15.6839L64.8315 16.8314L59.4527 20.8384C59.3085 20.9622 59.1575 21.0775 58.9997 21.1835C58.1604 21.74 57.1774 22.0358 56.1735 22.0339C54.8214 22.0093 53.5334 21.4503 52.5856 20.4772C51.6384 19.5035 51.1078 18.1946 51.1078 16.8301C51.1078 15.4663 51.6384 14.1567 52.5856 13.1837C53.5334 12.2106 54.8214 11.6516 56.1735 11.627C57.175 11.6239 58.1554 11.9166 58.9942 12.4688C59.1544 12.5742 59.3073 12.6894 59.4527 12.8139L62.6863 15.2297L65.6992 12.9865L66.9835 12.0306L62.3646 8.57889L62.1939 8.45687C60.8325 7.44927 59.2438 6.80034 57.5712 6.56862C57.109 6.50145 56.6419 6.46755 56.1754 6.46878C53.4539 6.47248 50.8453 7.56451 48.9206 9.50515C46.9966 11.4464 45.9139 14.0779 45.9102 16.8227V39.3234H51.0203V25.779C52.585 26.7034 54.3654 27.189 56.1785 27.1853C56.6456 27.1865 57.1121 27.1539 57.5743 27.0867C57.7456 27.0645 57.9163 27.0386 58.0877 27.0023C59.5433 26.7317 60.9219 26.1432 62.1267 25.2767L62.4687 25.0265L69.1516 20.0378L71.844 18.0288L71.9106 17.9807L73.4507 16.8332L78.7986 12.8139C78.9287 12.7054 79.0618 12.6068 79.1986 12.5138L79.2294 12.4947C79.9505 12.0109 80.7812 11.7182 81.644 11.6436C82.5067 11.569 83.3745 11.7151 84.167 12.0682C85.2485 12.5514 86.1329 13.3944 86.6715 14.4563C87.2107 15.5181 87.3716 16.7346 87.1275 17.9018C86.8835 19.0697 86.2487 20.1167 85.3305 20.8685C84.4123 21.6204 83.266 22.0315 82.0827 22.0327C81.0677 22.0382 80.0743 21.7375 79.2294 21.1699L79.1986 21.1526C79.0618 21.059 78.9287 20.9591 78.7986 20.8519L76.932 19.4598L75.6076 18.4725L72.578 20.7176L71.8219 21.2833V39.3234H76.932V25.779C78.0875 26.463 79.3675 26.908 80.6955 27.0867C81.1577 27.1539 81.6242 27.1865 82.0914 27.1853C84.8141 27.1853 87.4246 26.0945 89.3498 24.1527C91.275 22.2108 92.356 19.5775 92.356 16.8314C92.356 14.0853 91.275 11.4519 89.3498 9.51007C87.4246 7.56821 84.8141 6.47741 82.0914 6.47741V6.46878Z" fill="#474747"/>
<path d="M38.0165 6.46875V17.5628C38.0233 18.8022 37.5481 19.9946 36.6927 20.8852C35.8374 21.7751 34.6708 22.2915 33.4419 22.3235C32.2137 22.3556 31.0218 21.9008 30.1221 21.0565C29.2223 20.2122 28.6868 19.0462 28.6295 17.8081V6.46875H23.5625V17.5628C23.5637 19.3266 24.0346 21.0577 24.9257 22.575C25.8162 24.0928 27.0943 25.3414 28.6264 26.1912C30.1122 27.0127 31.7848 27.4299 33.4789 27.4016C35.173 27.3732 36.8308 26.9006 38.2889 26.0298C39.747 25.1596 40.9549 23.9209 41.7949 22.4363C42.6342 20.9517 43.0761 19.2724 43.0773 17.5628V6.46875H38.0165Z" fill="#474747"/>
<path d="M98.0209 38.7999C97.5495 38.602 97.1409 38.2773 96.8401 37.8607C96.5511 37.4453 96.4008 36.948 96.4106 36.4408H98.0462C98.0721 36.8235 98.2422 37.1815 98.522 37.4416C98.8535 37.7202 99.2787 37.86 99.7095 37.8335C100.153 37.86 100.59 37.7232 100.941 37.4484C101.084 37.327 101.198 37.1748 101.275 37.0028C101.352 36.8309 101.389 36.6429 101.384 36.4543C101.396 36.1709 101.297 35.8941 101.108 35.6834C100.918 35.48 100.684 35.3229 100.424 35.2243C100.054 35.0868 99.6756 34.9716 99.2917 34.8792C98.7863 34.7516 98.2915 34.5864 97.8102 34.3855C97.4256 34.2154 97.0904 33.948 96.8383 33.609C96.5524 33.1986 96.4106 32.7037 96.4365 32.2027C96.4254 31.6998 96.5659 31.205 96.8383 30.784C97.1162 30.3693 97.5076 30.0451 97.9642 29.8504C98.4936 29.6255 99.0643 29.5145 99.6393 29.5262C100.542 29.5262 101.283 29.7561 101.863 30.2164C102.147 30.4402 102.38 30.723 102.546 31.0466C102.711 31.3695 102.805 31.7251 102.821 32.0887H101.132C101.118 31.9161 101.067 31.7485 100.984 31.5969C100.901 31.4453 100.787 31.3128 100.65 31.2086C100.316 30.9523 99.9024 30.8235 99.4833 30.8444C99.0975 30.829 98.7185 30.9517 98.4122 31.1895C98.2724 31.3079 98.162 31.457 98.0899 31.6265C98.0172 31.7953 97.9858 31.979 97.9969 32.1626C97.992 32.2927 98.0123 32.4221 98.0573 32.5435C98.1023 32.6655 98.1707 32.7771 98.2582 32.872C98.4449 33.0655 98.6711 33.2152 98.9207 33.312C99.2806 33.4469 99.6479 33.5622 100.021 33.6571C100.534 33.7951 101.038 33.9683 101.527 34.1748C101.919 34.3492 102.261 34.6209 102.52 34.9654C102.811 35.3814 102.954 35.8843 102.929 36.3921C102.929 36.8703 102.796 37.3381 102.546 37.7436C102.277 38.1824 101.892 38.5361 101.434 38.7654C100.9 39.0328 100.309 39.1653 99.7126 39.1499C99.1308 39.1536 98.554 39.0347 98.0209 38.7999Z" fill="#474747"/>
<path d="M105.403 38.6745C104.844 38.359 104.385 37.8906 104.077 37.323C103.746 36.703 103.58 36.0066 103.595 35.3023C103.581 34.5985 103.752 33.9039 104.091 33.2883C104.406 32.7176 104.875 32.248 105.444 31.9356C106.036 31.625 106.693 31.4629 107.36 31.4629C108.027 31.4629 108.684 31.625 109.277 31.9356C109.845 32.248 110.314 32.7176 110.629 33.2883C110.968 33.9039 111.14 34.5985 111.126 35.3023C111.14 36.006 110.966 36.7006 110.623 37.3125C110.295 37.8869 109.815 38.3577 109.235 38.6708C108.641 38.9943 107.974 39.1601 107.299 39.1521C106.636 39.1644 105.982 38.9993 105.403 38.6745ZM108.399 37.5338C108.752 37.3341 109.042 37.0389 109.237 36.6815C109.462 36.2575 109.573 35.7811 109.559 35.3004C109.575 34.8216 109.469 34.3464 109.251 33.92C109.063 33.5656 108.779 33.2723 108.433 33.0744C108.097 32.8865 107.717 32.7891 107.333 32.7916C106.951 32.7879 106.574 32.8859 106.242 33.0744C105.9 33.2716 105.622 33.5656 105.444 33.92C105.235 34.3489 105.133 34.8228 105.148 35.3004C105.148 36.1059 105.352 36.7252 105.759 37.1591C105.954 37.3735 106.192 37.543 106.458 37.6564C106.724 37.7692 107.011 37.8234 107.299 37.8148C107.683 37.816 108.061 37.7193 108.399 37.5338Z" fill="#474747"/>
<path d="M113.485 29.5215V39.0385H111.957V29.5215H113.485Z" fill="#474747"/>
<path d="M121.522 31.5898V39.043H119.995V38.1642C119.743 38.4785 119.418 38.7269 119.05 38.8877C118.659 39.0627 118.234 39.1509 117.805 39.1466C117.263 39.1552 116.727 39.0295 116.245 38.7805C115.784 38.5371 115.406 38.1599 115.159 37.6983C114.883 37.1671 114.746 36.5724 114.763 35.9728V31.5898H116.277V35.7398C116.277 36.406 116.442 36.9175 116.773 37.2737C116.948 37.4549 117.16 37.5954 117.393 37.6872C117.626 37.7797 117.876 37.8203 118.127 37.8074C118.379 37.821 118.632 37.7809 118.868 37.6891C119.103 37.5972 119.317 37.4555 119.495 37.2737C119.831 36.9163 119.998 36.4048 119.998 35.7398V31.5898H121.522Z" fill="#474747"/>
<path d="M124.646 32.8429V36.9688C124.636 37.0773 124.648 37.187 124.681 37.2905C124.714 37.394 124.768 37.4895 124.84 37.5715C125.031 37.7126 125.268 37.778 125.504 37.7539H126.441V39.0401H125.235C124.551 39.0401 124.024 38.8774 123.654 38.5532C123.284 38.2285 123.102 37.7009 123.107 36.9688V32.8429H122.234V31.5869H123.107V29.5156H124.646V31.5869H126.441V32.8429H124.646Z" fill="#474747"/>
<path d="M131.333 38.6745C130.774 38.359 130.314 37.8906 130.006 37.323C129.675 36.703 129.509 36.0066 129.524 35.3023C129.51 34.5991 129.681 33.9045 130.019 33.2883C130.334 32.717 130.804 32.248 131.373 31.9356C131.965 31.625 132.622 31.4629 133.29 31.4629C133.957 31.4629 134.614 31.625 135.206 31.9356C135.775 32.248 136.244 32.7176 136.559 33.2883C136.898 33.9039 137.069 34.5985 137.055 35.3023C137.067 36.0079 136.889 36.7037 136.542 37.3162C136.214 37.8906 135.733 38.3608 135.154 38.6745C134.559 38.9974 133.893 39.1632 133.218 39.1558C132.558 39.1644 131.908 38.9986 131.333 38.6745ZM134.328 37.5338C134.681 37.3341 134.972 37.0389 135.166 36.6815C135.391 36.2575 135.502 35.7811 135.488 35.3004C135.504 34.8216 135.398 34.3464 135.18 33.92C134.993 33.5656 134.708 33.2723 134.362 33.0744C134.026 32.8865 133.647 32.7885 133.262 32.7916C132.88 32.7879 132.504 32.8859 132.171 33.0744C131.829 33.2716 131.551 33.5656 131.373 33.92C131.164 34.3489 131.062 34.8228 131.077 35.3004C131.077 36.1059 131.281 36.7252 131.688 37.1591C131.883 37.3735 132.121 37.543 132.387 37.6564C132.653 37.7692 132.94 37.8234 133.228 37.8148C133.612 37.816 133.991 37.7193 134.328 37.5338Z" fill="#474747"/>
<path d="M143.213 31.8289C143.672 32.0718 144.048 32.4483 144.293 32.9093C144.564 33.4423 144.697 34.0364 144.681 34.6348V39.0393H143.167V34.8696C143.167 34.2034 142.995 33.6913 142.671 33.3357C142.496 33.1552 142.284 33.014 142.051 32.9222C141.818 32.8304 141.568 32.7897 141.317 32.8027C141.065 32.7885 140.812 32.8285 140.576 32.9204C140.34 33.0122 140.126 33.1539 139.949 33.3357C139.607 33.6913 139.446 34.1985 139.446 34.8696V39.0393H137.918V31.5861H139.446V32.4366C139.704 32.1241 140.032 31.8789 140.404 31.7205C140.795 31.5492 141.217 31.4616 141.644 31.4635C142.189 31.453 142.728 31.5787 143.213 31.8289Z" fill="#474747"/>
<path d="M147.056 38.84C146.625 38.6527 146.248 38.355 145.965 37.9772C145.701 37.6235 145.551 37.1964 145.535 36.7533H147.118C147.131 36.9105 147.178 37.0621 147.255 37.1989C147.333 37.3351 147.439 37.4528 147.566 37.544C147.863 37.7646 148.225 37.8768 148.592 37.8632C148.943 37.8836 149.291 37.7961 149.591 37.613C149.701 37.5459 149.791 37.4516 149.854 37.3388C149.917 37.2266 149.95 37.1003 149.951 36.9709C149.954 36.8396 149.918 36.7102 149.848 36.5993C149.777 36.489 149.676 36.4021 149.556 36.3497C149.152 36.1642 148.733 36.015 148.303 35.9047C147.844 35.7833 147.392 35.6336 146.95 35.4579C146.6 35.3131 146.289 35.0863 146.045 34.7948C145.779 34.4645 145.642 34.0454 145.664 33.6196C145.66 33.2295 145.78 32.848 146.006 32.5306C146.261 32.1837 146.607 31.915 147.005 31.7542C147.478 31.5569 147.987 31.4596 148.499 31.4694C149.339 31.4694 150.016 31.6839 150.529 32.1116C150.784 32.326 150.99 32.5941 151.132 32.8967C151.274 33.1999 151.349 33.5296 151.352 33.8649H149.824C149.816 33.7108 149.777 33.5598 149.707 33.4224C149.638 33.2843 149.541 33.1629 149.423 33.0656C149.14 32.8554 148.794 32.7507 148.444 32.7691C148.119 32.7494 147.796 32.8289 147.518 32.9984C147.418 33.0643 147.336 33.1549 147.28 33.2615C147.223 33.3682 147.195 33.4871 147.197 33.6079C147.195 33.7016 147.213 33.7952 147.251 33.8815C147.288 33.9678 147.343 34.0448 147.412 34.1083C147.563 34.2482 147.741 34.356 147.934 34.4257C148.14 34.5015 148.443 34.5982 148.846 34.7153C149.296 34.8312 149.737 34.9785 150.166 35.1553C150.509 35.3039 150.814 35.5276 151.058 35.8117C151.321 36.1346 151.459 36.5426 151.446 36.9604C151.453 37.3659 151.334 37.7634 151.104 38.0962C150.853 38.4438 150.512 38.7149 150.118 38.8795C149.646 39.0791 149.137 39.1759 148.625 39.1642C148.085 39.1728 147.55 39.0619 147.056 38.84Z" fill="#474747"/>
<path d="M127.16 31.5898V39.043H128.688V31.5898H127.16Z" fill="#474747"/>
<path d="M128.68 30.2864C128.683 30.3869 128.664 30.4873 128.627 30.5804C128.589 30.674 128.533 30.7591 128.463 30.8299C128.394 30.9008 128.312 30.9575 128.221 30.9951C128.13 31.0333 128.032 31.0524 127.934 31.0506C127.733 31.0506 127.54 30.9698 127.398 30.8269C127.256 30.6833 127.176 30.4892 127.176 30.2864C127.176 30.0837 127.256 29.8889 127.398 29.7453C127.54 29.6023 127.733 29.5216 127.934 29.5216C128.032 29.5198 128.13 29.5389 128.221 29.5771C128.312 29.6147 128.394 29.6714 128.463 29.7422C128.534 29.8131 128.59 29.8982 128.627 29.9912C128.665 30.0849 128.683 30.1853 128.68 30.2864Z" fill="#474747"/>
</g>
</svg>
