<svg xmlns="http://www.w3.org/2000/svg" id="Secondary" width="881.15" height="223.24" viewBox="0 0 881.15 223.24"><defs><style>.cls-1{fill:#fff;}</style></defs><g id="Solutions"><path class="cls-1" d="M178.66,582.58l-33.9-59.87H130.24v59.87H99.42V429h57.67q17.83,0,30.37,6.27t18.82,16.95a46.29,46.29,0,0,1,6.27,23.88,45.71,45.71,0,0,1-8.8,27.4q-8.81,12.23-26.19,16.84l36.76,62.29Zm-48.42-83H156q12.54,0,18.71-6.05t6.16-16.84q0-10.56-6.16-16.4T156,454.48H130.24Z" transform="translate(-99.42 -428.38)"/><path class="cls-1" d="M767,530.82H681q1.07,12.72,8.91,19.94A27.47,27.47,0,0,0,709.26,558q16.54,0,23.55-14.21h32a53.49,53.49,0,0,1-19.52,27.89q-14.43,10.94-35.42,10.93a61.33,61.33,0,0,1-30.45-7.53,53,53,0,0,1-21-21.32q-7.53-13.79-7.53-31.82,0-18.25,7.43-32a51.73,51.73,0,0,1,20.78-21.21q13.38-7.43,30.77-7.43a61.75,61.75,0,0,1,30,7.22,50.77,50.77,0,0,1,20.58,20.47q7.32,13.26,7.32,30.44A69.74,69.74,0,0,1,767,530.82Zm-29.91-20q-.21-11.44-8.27-18.35t-19.73-6.89q-11,0-18.56,6.68t-9.23,18.56Z" transform="translate(-99.42 -428.38)"/><path class="cls-1" d="M816.49,428.38V582.93H785.61V428.38Z" transform="translate(-99.42 -428.38)"/><path class="cls-1" d="M865.19,428.38V582.93H834.3V428.38Z" transform="translate(-99.42 -428.38)"/><path class="cls-1" d="M908.45,577.38a45.64,45.64,0,0,1-18.14-14.11A35.67,35.67,0,0,1,883,543.54H912.9a16.28,16.28,0,0,0,6.69,11.25q5.82,4.46,14.53,4.45,8.48,0,13.26-3.39a10.27,10.27,0,0,0,4.77-8.7q0-5.73-5.83-8.59t-18.57-6.26a156.1,156.1,0,0,1-21.53-6.58,37.29,37.29,0,0,1-14.43-10.39q-6-7-6-18.88a30.47,30.47,0,0,1,5.62-17.82q5.63-8.06,16.12-12.73t24.72-4.67q21,0,33.52,10.5t13.79,28.33H951.09a15.4,15.4,0,0,0-5.84-11.14q-5.19-4.14-13.89-4.14-8.07,0-12.41,3A9.47,9.47,0,0,0,914.6,496q0,6,5.94,9T939,511.3a157.25,157.25,0,0,1,21,6.58,37.09,37.09,0,0,1,14.32,10.5q6,7.11,6.26,18.77A31.15,31.15,0,0,1,975,565.4q-5.61,8.05-16.12,12.62t-24.5,4.56A61.89,61.89,0,0,1,908.45,577.38Z" transform="translate(-99.42 -428.38)"/><path class="cls-1" d="M574.33,461.23a56.09,56.09,0,0,0-8.16.58.25.25,0,0,0-.13,0,59,59,0,0,0-27.06,11l-.86.63-39.56,29.27-16.12,11.92-9,6.65L442,544.5l0,0a28.22,28.22,0,0,1-2.65,2,30,30,0,0,1-16.52,4.93,30.16,30.16,0,0,1,0-60.31A30,30,0,0,1,439.32,496,26.55,26.55,0,0,1,442,498l0,0,18.9,14,17.61-13,7.51-5.54-27-20-1-.71A59.32,59.32,0,0,0,431,461.81a56.09,56.09,0,0,0-8.16-.58,60.08,60.08,0,0,0-60,60V651.62h29.87V573.13a59.42,59.42,0,0,0,30.15,8.15,56.09,56.09,0,0,0,8.16-.57c1-.13,2-.28,3-.49a59.14,59.14,0,0,0,23.61-10l2-1.45,39.06-28.91,15.74-11.64.39-.28,9-6.65L555.08,498l0,0c.76-.63,1.54-1.2,2.34-1.74l.18-.11a30.13,30.13,0,0,1,28.86-2.47,30.16,30.16,0,0,1-12.18,57.74,29.78,29.78,0,0,1-16.68-5l-.18-.1q-1.2-.81-2.34-1.74l0,0-10.91-8.07-7.74-5.72L518.72,543.8l-4.42,3.28V651.62h29.87V573.13a58.87,58.87,0,0,0,22,7.58,56.09,56.09,0,0,0,8.16.57,60,60,0,0,0,0-120Z" transform="translate(-99.42 -428.38)"/><path class="cls-1" d="M316.61,461.23v64.29a27.45,27.45,0,0,1-54.87,1.42V461.23H232.12v64.29a57.12,57.12,0,0,0,29.6,50,0,0,0,0,1,0,0,57.05,57.05,0,0,0,84.47-50V461.23Z" transform="translate(-99.42 -428.38)"/><path class="cls-1" d="M667.49,648.6a16.25,16.25,0,0,1-6.9-5.44,13.86,13.86,0,0,1-2.51-8.23h9.56a8.67,8.67,0,0,0,2.78,5.8,9.9,9.9,0,0,0,6.94,2.27,10.7,10.7,0,0,0,7.2-2.23,7.25,7.25,0,0,0,2.59-5.76,6.3,6.3,0,0,0-1.61-4.47,10.76,10.76,0,0,0-4-2.66,59.69,59.69,0,0,0-6.62-2,61.65,61.65,0,0,1-8.66-2.86,14.23,14.23,0,0,1-5.68-4.5,13,13,0,0,1-2.35-8.15,14.45,14.45,0,0,1,2.35-8.22,15,15,0,0,1,6.58-5.41,24,24,0,0,1,9.79-1.88q7.92,0,13,4a14.58,14.58,0,0,1,5.6,10.85h-9.87a7.18,7.18,0,0,0-2.82-5.1,10.43,10.43,0,0,0-6.82-2.11,9.63,9.63,0,0,0-6.26,2,6.81,6.81,0,0,0-2.43,5.64,5.71,5.71,0,0,0,1.53,4.11,10.8,10.8,0,0,0,3.87,2.55,61.86,61.86,0,0,0,6.43,2,68.56,68.56,0,0,1,8.81,3,14.74,14.74,0,0,1,5.8,4.58,13.21,13.21,0,0,1,2.39,8.27,14.82,14.82,0,0,1-2.24,7.83,16,16,0,0,1-6.5,5.92,21.39,21.39,0,0,1-10.06,2.23A24.34,24.34,0,0,1,667.49,648.6Z" transform="translate(-99.42 -428.38)"/><path class="cls-1" d="M710.49,647.89a19.92,19.92,0,0,1-7.75-7.83,23.63,23.63,0,0,1-2.82-11.71,23.07,23.07,0,0,1,2.9-11.67,20,20,0,0,1,7.91-7.84,24.26,24.26,0,0,1,22.4,0,20,20,0,0,1,7.91,7.84,23.07,23.07,0,0,1,2.9,11.67A22.71,22.71,0,0,1,741,640a20.59,20.59,0,0,1-8.11,7.87,23.32,23.32,0,0,1-11.32,2.79A22,22,0,0,1,710.49,647.89ZM728,641.28a12.65,12.65,0,0,0,4.9-4.94,15.9,15.9,0,0,0,1.88-8,16.22,16.22,0,0,0-1.8-8,12.27,12.27,0,0,0-4.78-4.9,13.06,13.06,0,0,0-6.43-1.64,12.79,12.79,0,0,0-6.38,1.64,11.75,11.75,0,0,0-4.66,4.9,16.8,16.8,0,0,0-1.73,8q0,7,3.57,10.77a11.74,11.74,0,0,0,9,3.8A13.34,13.34,0,0,0,728,641.28Z" transform="translate(-99.42 -428.38)"/><path class="cls-1" d="M757.81,594.85V650h-8.93V594.85Z" transform="translate(-99.42 -428.38)"/><path class="cls-1" d="M804.73,606.81V650H795.8v-5.09a14.53,14.53,0,0,1-5.52,4.19A17.5,17.5,0,0,1,783,650.6a19.35,19.35,0,0,1-9.12-2.12,15.28,15.28,0,0,1-6.35-6.27,20.31,20.31,0,0,1-2.31-10V606.81h8.85v24.05q0,5.79,2.9,8.89a10.32,10.32,0,0,0,7.91,3.09,10.44,10.44,0,0,0,8-3.09q2.94-3.11,2.94-8.89V606.81Z" transform="translate(-99.42 -428.38)"/><path class="cls-1" d="M823,614.09V638a4.58,4.58,0,0,0,1.13,3.49,5.63,5.63,0,0,0,3.88,1.06h5.48V650h-7.05q-6,0-9.24-2.82T814,638V614.09h-5.1v-7.28H814v-12h9v12h10.49v7.28Z" transform="translate(-99.42 -428.38)"/><path class="cls-1" d="M862.23,647.89a19.92,19.92,0,0,1-7.75-7.83,23.63,23.63,0,0,1-2.82-11.71,23.17,23.17,0,0,1,2.89-11.67,20,20,0,0,1,7.92-7.84,24.26,24.26,0,0,1,22.4,0,20,20,0,0,1,7.91,7.84,23.07,23.07,0,0,1,2.9,11.67,22.71,22.71,0,0,1-3,11.67,20.59,20.59,0,0,1-8.11,7.87,23.32,23.32,0,0,1-11.32,2.79A22,22,0,0,1,862.23,647.89Zm17.51-6.61a12.65,12.65,0,0,0,4.9-4.94,15.9,15.9,0,0,0,1.88-8,16.22,16.22,0,0,0-1.8-8,12.27,12.27,0,0,0-4.78-4.9,13.06,13.06,0,0,0-6.43-1.64,12.79,12.79,0,0,0-6.38,1.64,11.75,11.75,0,0,0-4.66,4.9,16.8,16.8,0,0,0-1.73,8q0,7,3.57,10.77a11.74,11.74,0,0,0,9,3.8A13.34,13.34,0,0,0,879.74,641.28Z" transform="translate(-99.42 -428.38)"/><path class="cls-1" d="M931.52,608.22a15.11,15.11,0,0,1,6.31,6.26,20.67,20.67,0,0,1,2.27,10V650h-8.85V625.84c0-3.86-1-6.83-2.9-8.89a10.32,10.32,0,0,0-7.91-3.09,10.42,10.42,0,0,0-8,3.09c-2,2.06-2.94,5-2.94,8.89V650h-8.93V606.81h8.93v4.93a14.81,14.81,0,0,1,5.6-4.15,18,18,0,0,1,7.25-1.49A19.35,19.35,0,0,1,931.52,608.22Z" transform="translate(-99.42 -428.38)"/><path class="cls-1" d="M954.08,648.83a15.85,15.85,0,0,1-6.38-5,12.51,12.51,0,0,1-2.51-7.09h9.25a6.26,6.26,0,0,0,2.62,4.58,9.51,9.51,0,0,0,6,1.85,10.16,10.16,0,0,0,5.84-1.45A4.39,4.39,0,0,0,971,638a3.82,3.82,0,0,0-2.31-3.6,43.68,43.68,0,0,0-7.32-2.58,69.48,69.48,0,0,1-7.91-2.59,13.74,13.74,0,0,1-5.29-3.84,10,10,0,0,1-2.23-6.81,10.62,10.62,0,0,1,2-6.31,13.52,13.52,0,0,1,5.84-4.5,21.72,21.72,0,0,1,8.73-1.65q7.37,0,11.87,3.72A13.39,13.39,0,0,1,979.19,620h-8.93a6.38,6.38,0,0,0-2.35-4.63,8.85,8.85,0,0,0-5.72-1.72,9.37,9.37,0,0,0-5.41,1.33,4.14,4.14,0,0,0-1.88,3.53,3.82,3.82,0,0,0,1.26,2.9,9,9,0,0,0,3.05,1.84q1.8.66,5.33,1.68a59,59,0,0,1,7.72,2.55,14.43,14.43,0,0,1,5.21,3.8,10,10,0,0,1,2.27,6.66,11.16,11.16,0,0,1-2,6.58,13.56,13.56,0,0,1-5.76,4.54,21.38,21.38,0,0,1-8.73,1.65A21.71,21.71,0,0,1,954.08,648.83Z" transform="translate(-99.42 -428.38)"/><path class="cls-1" d="M837.79,606.81V650h8.93V606.81Z" transform="translate(-99.42 -428.38)"/><path class="cls-1" d="M846.69,599.28a4.28,4.28,0,0,1-1.27,3.15,4.21,4.21,0,0,1-3.09,1.28,4.43,4.43,0,1,1,0-8.86,4.21,4.21,0,0,1,3.09,1.28A4.26,4.26,0,0,1,846.69,599.28Z" transform="translate(-99.42 -428.38)"/></g></svg>