<svg width="222" height="41" viewBox="0 0 222 41" fill="none" xmlns="http://www.w3.org/2000/svg">
<path d="M0.707321 6.00297V1.18823H23.3937V6.00297H14.6619V31.0151H9.43914V6.00297H0.707321ZM36.8698 10.7769V15.3876H35.0337C31.443 15.3876 29.1989 17.3054 29.1989 21.2224V31.0151H24.2209V10.8993H28.9133L29.1989 13.8371C30.0557 11.8378 31.9735 10.4913 34.6665 10.4913C35.3601 10.4913 36.0538 10.5729 36.8698 10.7769ZM42.7282 6.81903C41.0145 6.81903 39.668 5.47253 39.668 3.79962C39.668 2.1267 41.0145 0.821008 42.7282 0.821008C44.3603 0.821008 45.7068 2.1267 45.7068 3.79962C45.7068 5.47253 44.3603 6.81903 42.7282 6.81903ZM40.2393 31.0151V10.8585H45.2172V31.0151H40.2393ZM55.3382 31.0151H50.3603V10.8585H54.971L55.379 13.4699C56.6439 11.4298 59.0921 10.2465 61.8259 10.2465C66.8854 10.2465 69.4968 13.3883 69.4968 18.6111V31.0151H64.5189V19.7943C64.5189 16.4077 62.846 14.7756 60.2754 14.7756C57.2152 14.7756 55.3382 16.8973 55.3382 20.1616V31.0151ZM76.8767 6.81903C75.163 6.81903 73.8165 5.47253 73.8165 3.79962C73.8165 2.1267 75.163 0.821008 76.8767 0.821008C78.5088 0.821008 79.8553 2.1267 79.8553 3.79962C79.8553 5.47253 78.5088 6.81903 76.8767 6.81903ZM74.3878 31.0151V10.8585H79.3657V31.0151H74.3878ZM91.3637 31.0151H86.3857V15.0204H82.5094V10.8585H86.3857V4.57487H91.3637V10.8585H95.2807V15.0204H91.3637V31.0151ZM96.6209 40.359V36.1971H99.5995C101.558 36.1971 102.782 35.7483 103.639 33.3817L104.21 31.872L96.0904 10.8585H101.354L106.536 25.5476L112.004 10.8585H117.145L107.27 35.5035C105.761 39.2573 103.639 40.8078 100.334 40.8078C98.9466 40.8078 97.7225 40.6446 96.6209 40.359Z" fill="white"/>
<path d="M147.002 18.1622H135.046V31.0151H132.109V1.80028H149.327V4.49327H135.046V15.51H147.002V18.1622ZM163.025 11.2665H165.84V31.0151H163.392L163.025 27.6693C161.923 29.9543 159.189 31.5048 156.088 31.5048C151.437 31.5048 148.907 28.3221 148.907 23.5074V11.2257H151.763V22.6097C151.763 27.3021 153.844 28.975 156.986 28.975C160.781 28.975 163.025 26.4452 163.025 21.7529V11.2665ZM171.256 31.0151H168.441V11.2665H170.889L171.297 14.694C172.603 12.1642 175.214 10.7361 178.07 10.7361C183.497 10.7361 185.741 13.9595 185.741 18.9375V31.0151H182.926V19.5495C182.926 14.9388 180.845 13.3067 177.58 13.3067C173.541 13.3067 171.256 16.2445 171.256 20.692V31.0151ZM195.841 31.5048C190.087 31.5048 186.701 27.0981 186.701 21.1816C186.701 15.2244 190.087 10.7361 195.963 10.7361C199.227 10.7361 201.839 12.1642 203.226 15.0204V1.26984H206.041V31.0151H203.593L203.308 26.9757C201.92 30.0359 199.146 31.5048 195.841 31.5048ZM196.33 28.9342C200.655 28.9342 203.185 25.67 203.185 21.1C203.185 16.5709 200.655 13.2659 196.33 13.2659C192.046 13.2659 189.557 16.5709 189.557 21.1C189.557 25.67 192.046 28.9342 196.33 28.9342ZM206.979 25.4659H209.672C209.672 27.7509 211.386 29.179 214.161 29.179C217.221 29.179 219.016 27.8733 219.016 25.7516C219.016 24.1195 218.2 23.181 215.874 22.6097L212.488 21.7529C209.06 20.896 207.387 19.1007 207.387 16.4077C207.387 12.9395 210.284 10.7361 214.528 10.7361C218.69 10.7361 221.383 13.0211 221.505 16.6933H218.771C218.69 14.4084 217.098 13.0619 214.446 13.0619C211.672 13.0619 210.121 14.2452 210.121 16.3669C210.121 17.8766 211.182 18.9375 213.344 19.4679L216.731 20.3248C220.159 21.1816 221.709 22.773 221.709 25.6292C221.709 29.179 218.69 31.5048 214.201 31.5048C209.754 31.5048 206.979 29.1382 206.979 25.4659Z" fill="#9852F1"/>
</svg>
