<svg width="99" height="46" viewBox="0 0 99 46" fill="none" xmlns="http://www.w3.org/2000/svg">
<path d="M98.123 22.9193C98.123 35.11 88.4751 45.0321 76.617 45.0321C75.639 45.0351 74.6624 44.965 73.6948 44.8219C70.9133 44.4405 68.2339 43.4897 65.8153 42.0258C65.1724 41.6431 64.5512 41.2245 63.953 40.7721L63.664 40.5541L55.1066 34.0527L54.0466 33.2329L56.6888 31.2227L63.0435 26.3892L65.8153 28.4931L69.9003 31.6032L70.4947 32.0534L70.5886 32.1199C72.3659 33.3648 74.468 34.0287 76.6193 34.0243C78.3079 34.0253 79.9735 33.6191 81.482 32.8383C82.9904 32.0576 84.2999 30.924 85.3055 29.5286C86.3104 28.1332 86.9838 26.5149 87.2706 24.8036C87.5573 23.0923 87.4493 21.3358 86.9562 19.675C86.4631 18.0142 85.5983 16.4955 84.4303 15.2407C83.263 13.986 81.8254 13.0302 80.2335 12.4502C78.6417 11.8701 76.9396 11.682 75.2643 11.9007C73.589 12.1196 71.9867 12.7393 70.5863 13.7101L70.4947 13.7799C70.2906 13.9238 70.0962 14.0655 69.901 14.2323L58.4728 22.9193L55.1148 25.4746L49.4782 29.7631L35.2871 40.5552L34.9988 40.7732C32.4282 42.7219 29.4598 44.0435 26.3185 44.6376C25.9722 44.715 25.6198 44.7717 25.2585 44.8229C24.2909 44.9658 23.3144 45.0366 22.3363 45.0336C18.5388 45.0425 14.8084 44.008 11.5308 42.0366C5.13736 38.2006 0.822172 31.0745 0.828131 22.9292C0.828131 10.7309 10.4768 0.8174 22.3341 0.8174C23.3077 0.811143 24.2805 0.877066 25.2451 1.01472C28.6895 1.49399 31.9686 2.83227 34.7955 4.91292L35.4465 5.40999L44.9782 12.6473L42.2884 14.6934L35.9702 19.4997L29.0456 14.2247C28.8504 14.0633 28.6545 13.9184 28.4497 13.7755L28.3566 13.7091C26.58 12.4616 24.4772 11.7962 22.3259 11.8003C19.4595 11.8003 16.7108 12.9709 14.684 15.0547C12.6571 17.1386 11.5189 19.9648 11.5189 22.9117C11.5189 25.8587 12.6571 28.6849 14.684 30.7688C16.7108 32.8526 19.4595 34.0232 22.3259 34.0232C24.4772 34.0299 26.5807 33.3667 28.3588 32.121L28.4489 32.0523C28.6545 31.9084 28.8475 31.7667 29.0434 31.5999L40.4753 22.9193L43.694 20.4699L49.4737 16.0778L63.4964 5.40999L64.1459 4.91509C66.9609 2.83868 70.228 1.5042 73.6613 1.02888L73.6784 1.01808L73.6978 1.01905C74.6661 0.876025 75.6427 0.805705 76.62 0.808685C88.4736 0.803247 98.1237 10.7156 98.123 22.9193Z" fill="white"/>
</svg>
