<svg width="184" height="48" viewBox="0 0 184 48" fill="none" xmlns="http://www.w3.org/2000/svg">
<mask id="mask0_1325_14997" style="mask-type:luminance" maskUnits="userSpaceOnUse" x="0" y="0" width="184" height="48">
<path d="M183.107 0.515625H0.898438V47.0801H183.107V0.515625Z" fill="white"/>
</mask>
<g mask="url(#mask0_1325_14997)">
<path d="M17.3192 32.6874L10.3092 20.1992H7.30671V32.6874H0.933594V0.652344H12.8589C15.3168 0.652344 17.4102 1.08885 19.1389 1.96038C20.8677 2.83266 22.1645 4.01109 23.0308 5.49567C23.9016 7.00707 24.3501 8.72927 24.327 10.4768C24.3463 12.5297 23.708 14.5343 22.5072 16.1924C21.293 17.893 19.4877 19.064 17.0918 19.7046L24.6935 32.6978L17.3192 32.6874ZM7.30671 15.3745H12.6335C14.3622 15.3745 15.6518 14.9536 16.5024 14.1126C17.353 13.2717 17.7776 12.1007 17.7762 10.6005C17.7762 9.13151 17.3516 7.99107 16.5024 7.17913C15.6532 6.3672 14.3636 5.96346 12.6335 5.96719H7.30671V15.3745Z" fill="white"/>
<path d="M138.998 21.8855H121.214C121.362 23.6539 121.976 25.0409 123.057 26.0442C124.145 27.0536 125.58 27.5959 127.058 27.5549C129.338 27.5549 130.961 26.5664 131.928 24.5909H138.545C137.863 26.9217 136.446 28.9642 134.508 30.4078C132.519 31.9297 130.078 32.6895 127.184 32.688C124.986 32.7237 122.816 32.1822 120.887 31.117C119.046 30.0868 117.539 28.5426 116.545 26.67C115.507 24.7526 114.988 22.5402 114.988 20.0329C114.988 17.495 115.5 15.2708 116.524 13.3586C117.497 11.4919 118.991 9.95369 120.822 8.93467C122.666 7.90075 124.787 7.38454 127.184 7.38454C129.345 7.34879 131.48 7.86723 133.387 8.89072C135.188 9.86579 136.667 11.3496 137.644 13.1605C138.652 15.0041 139.157 17.1204 139.157 19.5092C139.168 20.3048 139.115 21.0989 138.998 21.8855ZM132.813 17.7133C132.784 16.1229 132.214 14.8469 131.103 13.886C129.991 12.9251 128.632 12.4461 127.023 12.4491C125.506 12.4491 124.227 12.9132 123.185 13.8421C122.143 14.7709 121.506 16.0619 121.276 17.7133H132.813Z" fill="white"/>
<path d="M149.218 0.519531V32.7565H142.832V0.519531H149.218Z" fill="white"/>
<path d="M159.278 0.519531V32.7565H152.891V0.519531H159.278Z" fill="white"/>
<path d="M168.235 31.6021C166.757 30.96 165.466 29.9469 164.485 28.659C163.582 27.4716 163.055 26.0377 162.973 24.5434H169.156C169.213 25.0097 169.365 25.4589 169.604 25.8634C169.841 26.2671 170.16 26.6165 170.539 26.8898C171.342 27.5103 172.343 27.8195 173.543 27.818C174.713 27.818 175.627 27.5826 176.285 27.1111C176.589 26.9174 176.838 26.6492 177.01 26.3319C177.183 26.0146 177.273 25.6585 177.272 25.2965C177.272 24.4995 176.87 23.9021 176.066 23.505C175.263 23.1073 173.983 22.6715 172.227 22.1992C170.711 21.8499 169.224 21.3917 167.774 20.8264C166.621 20.3571 165.598 19.6137 164.791 18.6595C163.963 17.6859 163.55 16.3734 163.55 14.7212C163.542 13.3901 163.948 12.0902 164.712 11.0041C165.488 9.88308 166.6 8.99814 168.045 8.34859C169.491 7.69978 171.196 7.375 173.157 7.375C176.052 7.375 178.362 8.105 180.089 9.565C181.815 11.025 182.765 12.9945 182.94 15.4743H177.053C177.025 15.0229 176.903 14.5826 176.695 14.1826C176.487 13.7819 176.198 13.4303 175.845 13.1502C175.13 12.5751 174.172 12.2869 172.973 12.2869C171.861 12.2869 171.005 12.4954 170.407 12.9126C170.124 13.0966 169.892 13.3506 169.734 13.6508C169.576 13.951 169.499 14.2877 169.508 14.6273C169.508 15.4616 169.917 16.0873 170.736 16.5045C171.555 16.9216 172.827 17.3596 174.553 17.8185C176.031 18.173 177.482 18.6319 178.896 19.1913C180.043 19.6688 181.06 20.4204 181.857 21.3813C182.683 22.3698 183.115 23.6749 183.151 25.2965C183.171 26.6559 182.767 27.9871 181.997 29.1029C181.224 30.2225 180.113 31.1 178.664 31.7354C177.215 32.3708 175.526 32.6881 173.598 32.6866C171.753 32.7187 169.925 32.3492 168.235 31.6021Z" fill="white"/>
<path d="M99.1275 7.37504C98.5629 7.37355 97.999 7.41452 97.4403 7.49571C97.4314 7.49348 97.4224 7.49348 97.4135 7.49571C95.3874 7.7758 93.4633 8.56464 91.8178 9.79L91.6398 9.92185L83.4593 16.027L80.1266 18.5135L78.2651 19.9005L71.7637 24.7438C71.5894 24.8936 71.4069 25.0328 71.2162 25.161C70.2016 25.8336 69.0135 26.1912 67.8001 26.1889C66.1658 26.1591 64.6089 25.4835 63.4633 24.3073C62.3184 23.1304 61.677 21.5482 61.677 19.899C61.677 18.2506 62.3184 16.6676 63.4633 15.4914C64.6089 14.3153 66.1658 13.6396 67.8001 13.6098C69.0105 13.6061 70.1957 13.9599 71.2095 14.6274C71.4031 14.7547 71.5879 14.894 71.7637 15.0445L75.6721 17.9645L79.314 15.2531L80.8663 14.0978L75.2833 9.92557L75.077 9.77808C73.4315 8.56017 71.5112 7.7758 69.4895 7.49571C68.9308 7.41452 68.3662 7.37355 67.8023 7.37504C64.5128 7.37951 61.3597 8.69947 59.0334 11.0452C56.7078 13.3916 55.399 16.5723 55.3945 19.8901V47.087H61.5712V30.7157C63.4625 31.833 65.6145 32.42 67.806 32.4155C68.3707 32.417 68.9345 32.3775 69.4932 32.2964C69.7003 32.2695 69.9066 32.2382 70.1137 32.1943C71.8732 31.8673 73.5395 31.1559 74.9958 30.1086L75.4092 29.8062L83.4869 23.7762L86.7413 21.3478L86.8218 21.2897L88.6833 19.9027L95.1475 15.0445C95.3047 14.9134 95.4656 14.7942 95.6309 14.6817L95.6682 14.6587C96.5397 14.0739 97.5438 13.7201 98.5867 13.6299C99.6296 13.5398 100.678 13.7164 101.636 14.1432C102.944 14.7272 104.013 15.7462 104.664 17.0297C105.315 18.3131 105.51 19.7836 105.215 21.1944C104.92 22.606 104.153 23.8715 103.043 24.7803C101.933 25.6891 100.547 26.186 99.1171 26.1874C97.8902 26.1941 96.6894 25.8306 95.6682 25.1446L95.6309 25.1237C95.4656 25.0105 95.3047 24.8898 95.1475 24.7602L92.8912 23.0775L91.2904 21.8842L87.6285 24.5978L86.7145 25.2816V47.087H92.8912V30.7157C94.2879 31.5425 95.835 32.0803 97.4403 32.2964C97.999 32.3775 98.5629 32.417 99.1275 32.4155C102.418 32.4155 105.574 31.0971 107.901 28.7499C110.228 26.4027 111.535 23.2198 111.535 19.9005C111.535 16.5812 110.228 13.3983 107.901 11.0511C105.574 8.70394 102.418 7.38547 99.1275 7.38547V7.37504Z" fill="white"/>
<path d="M45.8537 7.375V20.7847C45.8618 22.2826 45.2875 23.724 44.2536 24.8004C43.2197 25.876 41.8096 26.5003 40.3243 26.539C38.8397 26.5777 37.3991 26.028 36.3115 25.0075C35.224 23.987 34.5766 22.5776 34.5074 21.0811V7.375H28.3828V20.7847C28.3843 22.9165 28.9534 25.009 30.0305 26.8429C31.1069 28.6776 32.6518 30.1868 34.5036 31.214C36.2996 32.2069 38.3212 32.7112 40.369 32.6769C42.4167 32.6427 44.4205 32.0713 46.1829 31.0188C47.9453 29.967 49.4053 28.4698 50.4206 26.6753C51.4352 24.8808 51.9693 22.851 51.9707 20.7847V7.375H45.8537Z" fill="white"/>
<path d="M118.384 46.4524C117.815 46.2133 117.321 45.8208 116.957 45.3172C116.608 44.8151 116.426 44.214 116.438 43.601H118.415C118.446 44.0635 118.652 44.4963 118.99 44.8107C119.391 45.1474 119.905 45.3165 120.425 45.2844C120.961 45.3165 121.49 45.1511 121.914 44.8189C122.087 44.6721 122.225 44.4881 122.318 44.2803C122.411 44.0725 122.456 43.8453 122.449 43.6173C122.464 43.2747 122.344 42.9402 122.116 42.6855C121.886 42.4397 121.603 42.2497 121.29 42.1305C120.842 41.9644 120.385 41.8251 119.92 41.7134C119.31 41.5592 118.711 41.3596 118.13 41.1167C117.665 40.9111 117.26 40.5878 116.955 40.1782C116.609 39.682 116.438 39.0839 116.469 38.4783C116.456 37.8705 116.626 37.2723 116.955 36.7635C117.291 36.2622 117.764 35.8704 118.316 35.635C118.956 35.3631 119.646 35.229 120.341 35.2432C121.432 35.2432 122.328 35.521 123.029 36.0775C123.372 36.3479 123.654 36.6898 123.853 37.0809C124.054 37.4712 124.167 37.901 124.186 38.3405H122.145C122.128 38.1319 122.066 37.9293 121.966 37.7461C121.865 37.5628 121.728 37.4027 121.562 37.2768C121.158 36.9669 120.659 36.8112 120.152 36.8365C119.686 36.8179 119.228 36.9662 118.857 37.2537C118.688 37.3967 118.555 37.577 118.468 37.7818C118.38 37.9859 118.342 38.2079 118.355 38.4299C118.349 38.587 118.374 38.7435 118.428 38.8902C118.483 39.0377 118.565 39.1725 118.671 39.2873C118.897 39.5212 119.17 39.7022 119.472 39.8191C119.907 39.9822 120.351 40.1215 120.802 40.2363C121.422 40.4031 122.031 40.6124 122.623 40.862C123.097 41.0728 123.509 41.4013 123.823 41.8177C124.174 42.3205 124.347 42.9283 124.317 43.5421C124.317 44.1202 124.156 44.6855 123.853 45.1757C123.529 45.706 123.063 46.1336 122.51 46.4107C121.864 46.734 121.15 46.8941 120.429 46.8755C119.726 46.88 119.029 46.7362 118.384 46.4524Z" fill="white"/>
<path d="M127.305 46.3027C126.629 45.9213 126.073 45.3552 125.702 44.6692C125.302 43.9198 125.1 43.0781 125.118 42.2266C125.102 41.376 125.309 40.5365 125.719 39.7923C126.099 39.1025 126.666 38.5349 127.354 38.1573C128.07 37.7818 128.864 37.5859 129.67 37.5859C130.476 37.5859 131.27 37.7818 131.986 38.1573C132.674 38.5349 133.241 39.1025 133.621 39.7923C134.031 40.5365 134.238 41.376 134.222 42.2266C134.239 43.0773 134.029 43.9168 133.613 44.6565C133.217 45.3507 132.637 45.9199 131.936 46.2983C131.218 46.6893 130.412 46.8897 129.596 46.88C128.794 46.8949 128.004 46.6953 127.305 46.3027ZM130.926 44.9239C131.352 44.6826 131.702 44.3258 131.939 43.8937C132.21 43.3812 132.345 42.8054 132.327 42.2244C132.347 41.6456 132.219 41.0713 131.955 40.5558C131.729 40.1275 131.385 39.773 130.966 39.5338C130.56 39.3066 130.102 39.189 129.637 39.1919C129.175 39.1875 128.72 39.3059 128.318 39.5338C127.904 39.7722 127.569 40.1275 127.354 40.5558C127.1 41.0743 126.978 41.6471 126.996 42.2244C126.996 43.198 127.242 43.9466 127.734 44.471C127.97 44.7303 128.258 44.9351 128.579 45.0722C128.901 45.2085 129.247 45.274 129.596 45.2636C130.06 45.2651 130.517 45.1481 130.926 44.9239Z" fill="white"/>
<path d="M137.077 35.2422V46.7457H135.23V35.2422H137.077Z" fill="white"/>
<path d="M146.793 37.7422V46.751H144.946V45.6888C144.642 46.0687 144.25 46.3688 143.805 46.5633C143.331 46.7748 142.818 46.8813 142.3 46.8761C141.645 46.8866 140.997 46.7346 140.413 46.4337C139.857 46.1394 139.4 45.6835 139.101 45.1256C138.767 44.4835 138.603 43.7647 138.623 43.0399V37.7422H140.453V42.7583C140.453 43.5636 140.653 44.1818 141.053 44.6124C141.264 44.8314 141.52 45.0012 141.802 45.1122C142.084 45.2239 142.386 45.2731 142.688 45.2575C142.994 45.2739 143.299 45.2254 143.584 45.1144C143.869 45.0035 144.128 44.8321 144.343 44.6124C144.748 44.1803 144.951 43.5621 144.951 42.7583V37.7422H146.793Z" fill="white"/>
<path d="M150.572 39.2561V44.2432C150.559 44.3743 150.573 44.5069 150.613 44.632C150.654 44.7572 150.719 44.8726 150.806 44.9717C151.037 45.1423 151.323 45.2212 151.608 45.1922H152.741V46.7468H151.283C150.456 46.7468 149.819 46.5501 149.372 46.1583C148.926 45.7657 148.705 45.1281 148.711 44.2432V39.2561H147.656V37.738H148.711V35.2344H150.572V37.738H152.741V39.2561H150.572Z" fill="white"/>
<path d="M158.655 46.3027C157.98 45.9213 157.424 45.3552 157.052 44.6692C156.652 43.9198 156.451 43.0781 156.47 42.2266C156.453 41.3767 156.659 40.5372 157.067 39.7923C157.449 39.1018 158.016 38.5349 158.705 38.1573C159.42 37.7818 160.215 37.5859 161.021 37.5859C161.827 37.5859 162.621 37.7818 163.337 38.1573C164.025 38.5349 164.592 39.1025 164.973 39.7923C165.383 40.5365 165.589 41.376 165.573 42.2266C165.587 43.0796 165.372 43.9205 164.952 44.661C164.556 45.3552 163.975 45.9236 163.275 46.3027C162.556 46.6931 161.751 46.8934 160.934 46.8845C160.137 46.8949 159.351 46.6945 158.655 46.3027ZM162.276 44.9239C162.703 44.6826 163.054 44.3258 163.289 43.8937C163.561 43.3812 163.695 42.8054 163.678 42.2244C163.698 41.6456 163.57 41.0713 163.306 40.5558C163.079 40.1275 162.736 39.773 162.317 39.5338C161.911 39.3066 161.453 39.1882 160.988 39.1919C160.526 39.1875 160.072 39.3059 159.669 39.5338C159.255 39.7722 158.92 40.1275 158.705 40.5558C158.451 41.0743 158.328 41.6471 158.347 42.2244C158.347 43.198 158.593 43.9466 159.085 44.471C159.321 44.7303 159.609 44.9351 159.93 45.0722C160.252 45.2085 160.598 45.274 160.947 45.2636C161.411 45.2651 161.868 45.1481 162.276 44.9239Z" fill="white"/>
<path d="M173.01 38.0284C173.564 38.3219 174.019 38.777 174.315 39.3342C174.642 39.9785 174.803 40.6966 174.784 41.4199V46.7437H172.954V41.7037C172.954 40.8985 172.747 40.2795 172.354 39.8497C172.142 39.6314 171.887 39.4608 171.605 39.3498C171.323 39.2389 171.021 39.1897 170.718 39.2053C170.413 39.1882 170.107 39.2366 169.822 39.3476C169.537 39.4586 169.278 39.6299 169.064 39.8497C168.65 40.2795 168.456 40.8925 168.456 41.7037V46.7437H166.609V37.7349H168.456V38.7629C168.768 38.3852 169.165 38.0887 169.614 37.8973C170.087 37.6902 170.598 37.5844 171.113 37.5867C171.772 37.574 172.423 37.726 173.01 38.0284Z" fill="white"/>
<path d="M177.659 46.4996C177.137 46.2732 176.682 45.9134 176.339 45.4568C176.021 45.0292 175.839 44.513 175.82 43.9774H177.733C177.75 44.1674 177.806 44.3506 177.899 44.516C177.993 44.6806 178.121 44.8229 178.275 44.9331C178.634 45.1998 179.071 45.3354 179.516 45.319C179.94 45.3436 180.36 45.2378 180.723 45.0165C180.855 44.9354 180.965 44.8214 181.041 44.6851C181.117 44.5495 181.157 44.3968 181.158 44.2404C181.161 44.0817 181.118 43.9253 181.033 43.7912C180.947 43.6579 180.825 43.5528 180.68 43.4895C180.192 43.2653 179.686 43.085 179.166 42.9517C178.611 42.8049 178.065 42.6239 177.531 42.4116C177.107 42.2366 176.732 41.9625 176.437 41.6101C176.115 41.2109 175.95 40.7043 175.976 40.1896C175.971 39.7181 176.116 39.257 176.389 38.8734C176.698 38.454 177.116 38.1292 177.597 37.9348C178.169 37.6964 178.784 37.5787 179.403 37.5907C180.418 37.5907 181.236 37.8499 181.857 38.3668C182.165 38.6261 182.413 38.9501 182.585 39.3158C182.757 39.6823 182.848 40.0809 182.851 40.4861H181.005C180.995 40.2999 180.947 40.1174 180.863 39.9512C180.78 39.7844 180.662 39.6376 180.519 39.5199C180.178 39.2659 179.759 39.1393 179.336 39.1617C178.944 39.1378 178.553 39.2339 178.217 39.4388C178.096 39.5185 177.997 39.628 177.929 39.7568C177.861 39.8857 177.826 40.0295 177.829 40.1755C177.826 40.2887 177.849 40.4019 177.894 40.5062C177.939 40.6105 178.005 40.7036 178.089 40.7803C178.272 40.9494 178.486 41.0798 178.719 41.1639C178.968 41.2556 179.335 41.3725 179.822 41.514C180.366 41.6541 180.899 41.8321 181.418 42.0459C181.832 42.2254 182.2 42.4958 182.495 42.8392C182.814 43.2295 182.98 43.7227 182.965 44.2277C182.974 44.7179 182.829 45.1983 182.551 45.6006C182.248 46.0207 181.836 46.3484 181.36 46.5473C180.79 46.7887 180.174 46.9056 179.555 46.8915C178.903 46.9019 178.255 46.7678 177.659 46.4996Z" fill="white"/>
<path d="M153.609 37.7422V46.751H155.456V37.7422H153.609Z" fill="white"/>
<path d="M155.447 36.1668C155.45 36.2882 155.428 36.4096 155.383 36.5221C155.338 36.6353 155.27 36.7381 155.184 36.8238C155.102 36.9094 155.002 36.978 154.892 37.0234C154.782 37.0696 154.664 37.0927 154.545 37.0904C154.302 37.0904 154.069 36.9929 153.898 36.82C153.726 36.6465 153.629 36.4118 153.629 36.1668C153.629 35.9217 153.726 35.6863 153.898 35.5127C154.069 35.3399 154.302 35.2423 154.545 35.2423C154.664 35.2401 154.782 35.2632 154.892 35.3094C155.002 35.3548 155.102 35.4233 155.184 35.509C155.271 35.5947 155.338 35.6975 155.383 35.81C155.429 35.9232 155.45 36.0446 155.447 36.1668Z" fill="white"/>
</g>
</svg>
