<svg width="36" height="34" viewBox="0 0 36 34" fill="none" xmlns="http://www.w3.org/2000/svg">
<g clip-path="url(#clip0_336_7690)">
<path d="M5.5841 11.7876C4.3619 11.7876 3.37109 12.708 3.37109 13.8434V23.4372C3.37109 24.5726 4.3619 25.493 5.5841 25.493C6.8063 25.493 7.7971 24.5726 7.7971 23.4372V13.8434C7.7971 12.708 6.8063 11.7876 5.5841 11.7876Z" fill="#BFBFBF"/>
<path d="M30.6661 11.7876C29.4439 11.7876 28.4531 12.708 28.4531 13.8434V23.4372C28.4531 24.5726 29.4439 25.493 30.6661 25.493C31.8883 25.493 32.8791 24.5726 32.8791 23.4372V13.8434C32.8791 12.708 31.8884 11.7876 30.6661 11.7876Z" fill="#BFBFBF"/>
<path d="M26.2398 11.7876H10.0111C9.60373 11.7876 9.27344 12.0944 9.27344 12.4729V23.4372C9.27309 25.0657 10.5066 26.4694 12.2241 26.7951V31.6605C12.2241 32.7959 13.2149 33.7163 14.4371 33.7163C15.6593 33.7163 16.6501 32.7959 16.6501 31.6605V26.8636H19.6008V31.6605C19.6008 32.7959 20.5916 33.7163 21.8138 33.7163C23.036 33.7163 24.0268 32.7959 24.0268 31.6605V26.7951C25.7444 26.4694 26.9779 25.0657 26.9775 23.4372V12.4729C26.9775 12.0944 26.6472 11.7876 26.2398 11.7876Z" fill="#BFBFBF"/>
<path d="M23.4884 3.66245L25.2868 1.99312C25.5798 1.73017 25.5879 1.29639 25.3049 1.02412C25.0219 0.751917 24.5549 0.744401 24.2619 1.00729C24.2557 1.01281 24.2497 1.0184 24.2437 1.02412L22.1488 2.97034C19.583 1.93491 16.6696 1.93491 14.1038 2.97034L12.0088 1.02277C11.7158 0.759819 11.2488 0.7674 10.9657 1.0396C10.6897 1.30519 10.6897 1.72618 10.9657 1.99171L12.7627 3.66238C10.572 5.00894 9.25999 7.29097 9.27354 9.73116C9.27354 10.1096 9.60383 10.4165 10.0112 10.4165H26.2399C26.6473 10.4165 26.9776 10.1096 26.9776 9.73116C26.9911 7.29103 25.6791 5.00901 23.4884 3.66245Z" fill="#BFBFBF"/>
</g>
<defs>
<clipPath id="clip0_336_7690">
<rect width="35.4163" height="32.9014" fill="white" transform="translate(0.417969 0.814941)"/>
</clipPath>
</defs>
</svg>
