<svg xmlns="http://www.w3.org/2000/svg" width="1920" height="444" viewBox="0 0 1920 444" fill="none">
  <path d="M1402.43 453.561C1396.01 449.23 1389.74 444.577 1383.64 439.604M1402.43 453.561L1472.69 729.425C1410.34 721.101 1350.29 700.429 1296.04 668.621M1402.43 453.561L1403.88 454.363M1402.43 453.561L411.558 725.494C479.864 712.927 544.579 685.545 601.141 645.278M1383.64 439.604L1296.04 374.869L1233.89 328.985M1383.64 439.604L1383.33 439.991L1295.74 375.271L1233.89 329.606M1383.64 439.604L1383.34 440.006L1383.33 439.998C1389.45 444.978 1395.72 449.638 1402.15 453.976L1402.17 453.988L1402.19 453.998L1403.6 454.779L1403.88 454.363M1233.89 328.985L1091.68 433.347M1233.89 328.985L1233.59 329.387L1233.89 329.606M1233.89 328.985L1234.18 329.388L1233.89 329.606M1091.68 433.347L1056.6 459.353L1056.98 459.689M1091.68 433.347L1091.97 433.75L1056.98 459.689M1091.68 433.347L1091.98 433.748L1233.89 329.606M1056.98 459.689L1056.57 459.994L1296.04 668.621M1056.98 459.689L1296.33 668.214M1296.04 668.621L1296.36 668.244L1296.33 668.214M1296.04 668.621L1296.29 668.19C1296.3 668.198 1296.32 668.206 1296.33 668.214M1296.33 668.214C1350.51 699.974 1410.49 720.616 1472.76 728.93L1472.76 728.93C1494.44 732.042 1516.31 733.569 1538.21 733.498C1665.86 733.498 1788.28 682.842 1878.53 592.675C1968.79 502.508 2019.5 380.215 2019.5 252.7C2019.5 125.185 1968.79 2.89174 1878.53 -87.2754C1788.28 -177.443 1665.86 -228.098 1538.21 -228.098H1537.71V-228.5C1515.98 -228.52 1494.27 -226.966 1472.76 -223.852L1472.66 -223.837L1472.56 -223.864C1472.3 -223.933 1472.03 -223.933 1471.78 -223.864L1471.75 -223.856L1471.71 -223.851C1393.11 -213.109 1318.47 -182.799 1254.66 -135.706L1254.66 -135.705L1247.75 -130.653L1247.46 -131.055M1403.88 454.363L1403.63 454.8L1403.62 454.79C1443.34 481.24 1490.07 495.232 1537.82 494.971M1403.88 454.363C1443.52 480.765 1490.16 494.731 1537.81 494.471M1537.82 494.971C1593.44 494.924 1647.37 475.787 1690.56 440.763C1733.75 405.739 1763.58 356.954 1775.06 302.578C1786.54 248.202 1778.98 191.536 1753.63 142.068C1728.28 92.6005 1686.69 53.3346 1635.82 30.8453L1635.62 31.3026M1537.82 494.971L1537.81 494.471M1537.82 494.971C1537.81 494.971 1537.81 494.971 1537.81 494.971L1537.81 494.471M1635.62 31.3026L1635.82 30.8452C1598.56 14.399 1557.75 7.59683 1517.16 11.0669C1476.58 14.5367 1437.53 28.165 1403.61 50.6935L1403.62 50.6893L1403.88 51.1161M1635.62 31.3026C1598.43 14.8903 1557.71 8.10216 1517.21 11.5651C1476.7 15.028 1437.73 28.6304 1403.88 51.1161M1635.62 31.3026C1686.38 53.7456 1727.89 92.9306 1753.18 142.296C1778.48 191.662 1786.03 248.211 1774.57 302.475C1763.11 356.739 1733.34 405.423 1690.24 440.375C1647.14 475.327 1593.33 494.425 1537.81 494.471M1403.88 51.1161L1403.6 50.6996L1402.17 51.5718L1402.16 51.5777L1402.15 51.584C1395.72 55.9201 1389.45 60.4993 1383.33 65.5621L1383.34 65.5551L1383.64 65.9561M1403.88 51.1161L1402.43 51.9986C1396.01 56.3303 1389.74 60.9025 1383.64 65.9561M1383.64 65.9561L1383.32 65.571L1132.33 252.377L1132.63 252.78M1383.64 65.9561L1132.63 252.78M1132.63 252.78L1132.33 252.379L1060.07 305.717L1060.36 306.124M1132.63 252.78L1060.36 306.124M1060.36 306.124L1060.07 305.721L1056.94 307.963L1056.93 307.967L930.546 401.339L616.907 633.242L617.201 633.647M1060.36 306.124L1057.23 308.37L930.843 401.741L617.201 633.647M617.201 633.647L616.903 633.245L600.851 644.871L601.141 645.278M617.201 633.647L601.141 645.278M601.141 645.278L600.848 644.873L600.851 644.871C544.349 685.095 479.702 712.449 411.468 725.002L411.456 725.005C403.444 726.686 395.429 727.887 387.405 728.929L387.398 728.93C365.722 732.042 343.847 733.569 321.948 733.498H321.945C236.943 733.661 153.444 711.113 80.1015 668.19L80.0978 668.188L79.8489 668.621M79.8489 668.621C80.0978 668.188 80.097 668.187 80.0954 668.186L80.0876 668.182L80.0556 668.163L79.9269 668.088C79.8126 668.022 79.6416 667.922 79.4158 667.788C78.964 667.52 78.2927 667.118 77.4165 666.581C75.664 665.508 73.092 663.896 69.8174 661.745C63.2682 657.444 53.9092 650.986 42.6769 642.366C20.2119 625.124 -9.74304 599.234 -39.6976 564.643C-99.6062 495.461 -159.5 391.493 -159.5 252.299C-159.33 124.835 -108.569 2.64131 -18.347 -87.4891C71.8748 -177.62 194.193 -228.329 321.786 -228.499L321.787 -228.499C343.688 -228.543 365.562 -226.99 387.237 -223.852L387.241 -223.851C465.661 -213.094 540.155 -182.963 603.977 -136.187L603.983 -136.182L612.005 -130.493L612.302 -130.895M79.8489 668.621C153.269 711.589 236.855 734.161 321.946 733.998L79.8489 668.621ZM612.302 -130.895L612.013 -130.487L828.264 29.537M612.302 -130.895L828.685 29.2267L828.264 29.537M612.302 -130.895L604.273 -136.59C540.384 -183.415 465.811 -213.578 387.309 -224.347C365.61 -227.489 343.711 -229.044 321.786 -228.999C194.06 -228.829 71.6151 -178.067 -18.7004 -87.8428C-109.016 2.38123 -159.83 124.702 -160 252.298L627.398 178.259M828.264 29.537L768.506 73.5753L768.803 73.9778M828.264 29.537L828.685 29.8482L768.803 73.9778M768.803 73.9778L768.506 73.5753L627.399 177.637M768.803 73.9778L627.398 178.259M627.399 177.637L475.947 65.5641M627.399 177.637L627.102 177.857L627.398 178.259M627.399 177.637L627.696 177.857L627.398 178.259M475.947 65.5641C469.106 59.7605 461.906 54.3932 454.389 49.4941C414.94 23.7636 368.816 10.1276 321.704 10.2672L321.696 10.2674C258.11 11.4242 197.519 37.4703 152.961 82.8017C108.402 128.133 83.4373 189.127 83.4373 252.66C83.4373 316.192 108.402 377.186 152.961 422.518C197.519 467.849 258.11 493.895 321.696 495.052H321.705C368.94 495.119 415.158 481.341 454.632 455.423L454.634 455.421C462.048 450.488 469.164 445.123 475.947 439.354M475.947 65.5641L475.933 65.5542L475.636 65.9561M475.947 65.5641C475.951 65.5677 475.955 65.5713 475.959 65.5749L475.636 65.9561M475.947 439.354L728.389 253.102L800.656 199.758L800.359 199.356M475.947 439.354C475.951 439.35 475.956 439.346 475.96 439.343L475.636 438.962M475.947 439.354L475.933 439.364L475.636 438.962M800.359 199.356L800.657 199.758L930.096 104.14L929.799 103.738M800.359 199.356L929.799 103.738M800.359 199.356L728.092 252.7L475.636 438.962M929.799 103.738L930.096 104.14L1247.75 -130.652L1247.46 -131.055M929.799 103.738L1247.46 -131.055M1247.46 -131.055L1254.36 -136.109L475.636 438.962M475.636 65.9561L627.398 178.259M475.636 65.9561C468.807 60.162 461.62 54.8036 454.116 49.9129L627.398 178.259" stroke="#383838"/>
</svg>