<svg width="30" height="34" viewBox="0 0 30 34" fill="none" xmlns="http://www.w3.org/2000/svg">
<path d="M21.6893 0.814941C21.7717 0.814941 21.8542 0.814941 21.9412 0.814941C22.1434 3.13518 21.1901 4.86885 20.0315 6.12432C18.8946 7.37113 17.3379 8.58037 14.82 8.39688C14.6521 6.10988 15.607 4.50478 16.764 3.2522C17.8371 2.08486 19.8044 1.0461 21.6893 0.814941Z" fill="#BFBFBF"/>
<path d="M29.3112 24.9654C29.3112 24.9885 29.3112 25.0087 29.3112 25.0304C28.6035 27.0212 27.5942 28.7275 26.3625 30.3109C25.2381 31.7484 23.8602 33.6829 21.3999 33.6829C19.274 33.6829 17.8618 32.413 15.683 32.3783C13.3782 32.3436 12.1108 33.4402 10.0035 33.7161C9.76242 33.7161 9.52136 33.7161 9.28497 33.7161C7.73756 33.5081 6.48874 32.3696 5.57896 31.3439C2.89625 28.3128 0.823187 24.3976 0.4375 19.3873C0.4375 18.8961 0.4375 18.4063 0.4375 17.9151C0.600795 14.3293 2.47635 11.4138 4.96932 10.0009C6.28501 9.24963 8.0937 8.60961 10.1077 8.89567C10.9708 9.01991 11.8526 9.29441 12.6255 9.56602C13.358 9.82752 14.274 10.2913 15.1418 10.2667C15.7297 10.2508 16.3144 9.96621 16.907 9.76539C18.6426 9.18317 20.3439 8.5157 22.5865 8.82921C25.2817 9.20773 27.1945 10.3202 28.3765 12.0365C26.0966 13.3844 24.2941 15.4157 24.602 18.8845C24.8758 22.0355 26.8477 23.879 29.3112 24.9654Z" fill="#BFBFBF"/>
</svg>
