<svg width="78" height="100" viewBox="0 0 78 100" fill="none" xmlns="http://www.w3.org/2000/svg">
<g clip-path="url(#clip0_871_17217)">
<path fill-rule="evenodd" clip-rule="evenodd" d="M38.8571 99.8658C49.7857 92.2857 77.7143 60.3173 77.7143 38.8571C77.7143 17.3969 60.3174 0 38.8571 0C17.3969 0 0 17.3969 0 38.8571C0 60.3173 29.1429 92.2857 38.8571 99.8658ZM38.87 14.1427C25.2135 14.1427 14.1427 25.2135 14.1427 38.87C14.1427 52.5265 25.2135 63.5973 38.87 63.5973C52.5265 63.5973 63.5973 52.5265 63.5973 38.87C63.5973 25.2135 52.5265 14.1427 38.87 14.1427Z" fill="url(#paint0_linear_871_17217)"/>
<path d="M58.8052 39.3597C58.8109 44.3214 54.849 48.3644 49.9739 48.37C49.572 48.3717 49.1705 48.3435 48.7725 48.2857C47.6287 48.1318 46.5267 47.7461 45.5317 47.1514C45.2674 46.996 45.0117 46.8259 44.7657 46.642L44.6466 46.5534L41.1255 43.9113L40.6892 43.5782L41.7745 42.7588L44.385 40.7885L45.5254 41.6435L47.2063 42.9074L47.451 43.0903L47.4894 43.1174C48.2209 43.6232 49.0854 43.8924 49.9697 43.8896C50.664 43.8893 51.3486 43.7231 51.9684 43.4046C52.5883 43.0862 53.1261 42.6242 53.5387 42.0557C53.9514 41.4873 54.2273 40.8283 54.3444 40.1317C54.4614 39.435 54.4164 38.7202 54.2128 38.0444C54.0093 37.3687 53.6529 36.751 53.1723 36.2408C52.6917 35.7307 52.1003 35.3424 51.4456 35.107C50.7909 34.8717 50.091 34.7959 49.4023 34.8858C48.7136 34.9756 48.0552 35.2286 47.48 35.6244L47.4425 35.6528C47.3585 35.7115 47.2787 35.7693 47.1986 35.8372L42.5042 39.3784L41.1249 40.42L38.8093 42.1681L32.9804 46.5673L32.8619 46.6561C31.806 47.4505 30.5862 47.9898 29.2951 48.2331C29.1526 48.2648 29.0079 48.288 28.8593 48.309C28.4615 48.3677 28.06 48.3968 27.6581 48.396C26.0969 48.4016 24.5626 47.9823 23.2141 47.1815C20.5839 45.6231 18.8065 42.7248 18.8053 39.4096C18.7996 34.4447 22.7615 30.4053 27.6365 30.3997C28.0368 30.3967 28.4367 30.4231 28.8332 30.4786C30.2497 30.6721 31.5983 31.2152 32.7615 32.0607L33.0294 32.2627L36.9514 35.2039L35.8465 36.038L33.2513 37.9971L30.402 35.8534C30.3217 35.7878 30.241 35.7289 30.1568 35.6709L30.1184 35.6439C29.3874 35.137 28.5227 34.8672 27.6382 34.8698C26.4598 34.8712 25.3303 35.349 24.498 36.198C23.6657 37.0471 23.199 38.198 23.2003 39.3974C23.2017 40.5969 23.6711 41.7466 24.5053 42.5938C25.3396 43.441 26.4702 43.9162 27.6486 43.9148C28.5331 43.9165 29.3975 43.6456 30.1279 43.1377L30.1649 43.1097C30.2494 43.0511 30.3287 42.9933 30.4092 42.9253L35.105 39.3869L36.4272 38.3884L38.8012 36.598L44.5613 32.2495L44.8283 32.0478C45.9844 31.2013 47.3269 30.6566 48.7381 30.4615L48.7451 30.4571L48.7534 30.4575C49.1512 30.3988 49.5526 30.3698 49.9546 30.3705C54.8278 30.3627 58.8 34.3926 58.8052 39.3597Z" fill="url(#paint1_linear_871_17217)"/>
<path d="M58.8052 39.3597C58.8109 44.3214 54.849 48.3644 49.9739 48.37C49.572 48.3717 49.1705 48.3435 48.7725 48.2857C47.6287 48.1318 46.5267 47.7461 45.5317 47.1514C45.2674 46.996 45.0117 46.8259 44.7657 46.642L44.6466 46.5534L41.1255 43.9113L40.6892 43.5782L41.7745 42.7588L44.385 40.7885L45.5254 41.6435L47.2063 42.9074L47.451 43.0903L47.4894 43.1174C48.2209 43.6232 49.0854 43.8924 49.9697 43.8896C50.664 43.8893 51.3486 43.7231 51.9684 43.4046C52.5883 43.0862 53.1261 42.6242 53.5387 42.0557C53.9514 41.4873 54.2273 40.8283 54.3444 40.1317C54.4614 39.435 54.4164 38.7202 54.2128 38.0444C54.0093 37.3687 53.6529 36.751 53.1723 36.2408C52.6917 35.7307 52.1003 35.3424 51.4456 35.107C50.7909 34.8717 50.091 34.7959 49.4023 34.8858C48.7136 34.9756 48.0552 35.2286 47.48 35.6244L47.4425 35.6528C47.3585 35.7115 47.2787 35.7693 47.1986 35.8372L42.5042 39.3784L41.1249 40.42L38.8093 42.1681L32.9804 46.5673L32.8619 46.6561C31.806 47.4505 30.5862 47.9898 29.2951 48.2331C29.1526 48.2648 29.0079 48.288 28.8593 48.309C28.4615 48.3677 28.06 48.3968 27.6581 48.396C26.0969 48.4016 24.5626 47.9823 23.2141 47.1815C20.5839 45.6231 18.8065 42.7248 18.8053 39.4096C18.7996 34.4447 22.7615 30.4053 27.6365 30.3997C28.0368 30.3967 28.4367 30.4231 28.8332 30.4786C30.2497 30.6721 31.5983 31.2152 32.7615 32.0607L33.0294 32.2627L36.9514 35.2039L35.8465 36.038L33.2513 37.9971L30.402 35.8534C30.3217 35.7878 30.241 35.7289 30.1568 35.6709L30.1184 35.6439C29.3874 35.137 28.5227 34.8672 27.6382 34.8698C26.4598 34.8712 25.3303 35.349 24.498 36.198C23.6657 37.0471 23.199 38.198 23.2003 39.3974C23.2017 40.5969 23.6711 41.7466 24.5053 42.5938C25.3396 43.441 26.4702 43.9162 27.6486 43.9148C28.5331 43.9165 29.3975 43.6456 30.1279 43.1377L30.1649 43.1097C30.2494 43.0511 30.3287 42.9933 30.4092 42.9253L35.105 39.3869L36.4272 38.3884L38.8012 36.598L44.5613 32.2495L44.8283 32.0478C45.9844 31.2013 47.3269 30.6566 48.7381 30.4615L48.7451 30.4571L48.7534 30.4575C49.1512 30.3988 49.5526 30.3698 49.9546 30.3705C54.8278 30.3627 58.8 34.3926 58.8052 39.3597Z" fill="black" fill-opacity="0.2"/>
</g>
<defs>
<linearGradient id="paint0_linear_871_17217" x1="99.7917" y1="2.39865" x2="48.9839" y2="147.974" gradientUnits="userSpaceOnUse">
<stop stop-color="#C759DA"/>
<stop offset="1" stop-color="#36B2EA"/>
</linearGradient>
<linearGradient id="paint1_linear_871_17217" x1="18.7949" y1="30.4062" x2="55.6838" y2="54.6232" gradientUnits="userSpaceOnUse">
<stop stop-color="#CE4FE3"/>
<stop offset="1" stop-color="#36B2EA"/>
</linearGradient>
<clipPath id="clip0_871_17217">
<rect width="77.7143" height="99.8658" fill="white"/>
</clipPath>
</defs>
</svg>
