<svg width="32" height="33" viewBox="0 0 32 33" fill="none" xmlns="http://www.w3.org/2000/svg">
<path fill-rule="evenodd" clip-rule="evenodd" d="M4.94269 14.9415C4.41032 15.0148 4 15.4779 4 16.0383C4 16.6496 4.48832 17.1451 5.09069 17.1451H24.2615L17.336 24.1452L17.2301 24.2691C16.9124 24.7018 16.9464 25.3168 17.3328 25.7106C17.7578 26.1437 18.4484 26.1452 18.8752 25.7138L27.6432 16.8525C27.8596 16.6502 27.9951 16.3603 27.9951 16.0383C27.9951 15.7293 27.8703 15.4498 27.6691 15.249L18.8752 6.36298L18.7526 6.25608C18.3249 5.9355 17.7191 5.97255 17.3327 6.36636C16.9077 6.79954 16.9092 7.50037 17.336 7.9317L24.2632 14.9314H5.09069L4.94269 14.9415Z" fill="#F3F3F3"/>
</svg>
